{"glyphs":{"0":{"ha":649,"x_min":0,"x_max":0,"o":"m 601 383 b 606 406 601 390 603 397 b 610 444 608 415 610 429 b 603 554 610 481 603 514 b 608 639 603 588 608 608 b 557 786 608 689 593 732 b 524 881 532 824 524 849 b 476 1011 524 971 515 994 b 385 1032 444 1025 413 1032 b 342 1025 368 1032 354 1031 b 315 1006 326 1019 315 1010 b 303 999 315 1001 310 999 b 126 819 282 999 140 856 b 92 754 119 800 103 771 b 50 472 71 722 50 569 b 54 411 50 447 51 425 b 60 372 57 397 60 383 b 56 350 60 363 58 354 b 50 310 53 344 50 328 b 51 286 50 303 51 293 b 57 217 54 260 57 229 b 92 156 57 204 72 176 b 126 108 111 135 126 114 b 203 7 126 82 163 33 b 346 -42 253 -26 301 -42 b 531 158 442 -42 517 32 b 575 249 535 203 542 217 b 621 325 606 278 621 303 b 601 383 621 344 601 364 z m 442 1000 b 383 978 442 988 418 978 b 313 960 364 978 333 971 b 281 946 294 951 285 946 b 276 951 278 946 276 949 b 278 957 276 953 278 954 b 410 1017 283 986 364 1017 b 442 1000 426 1017 442 1013 z m 474 983 b 464 978 474 981 469 978 b 454 989 458 978 454 983 b 460 994 454 993 457 994 b 474 983 467 994 474 985 z m 411 275 b 385 232 411 257 404 250 b 356 194 368 217 356 200 b 331 163 356 189 344 175 b 281 142 315 149 299 142 b 206 186 256 142 229 157 b 176 261 183 214 176 231 l 176 375 b 192 506 176 439 192 449 b 190 528 192 513 190 521 b 186 601 188 554 186 588 b 258 815 186 744 199 783 b 311 856 278 826 303 844 b 342 878 321 869 331 878 b 369 863 350 878 360 872 b 403 806 378 854 392 829 b 443 744 414 782 432 756 b 496 590 469 719 494 647 l 496 588 b 435 432 496 540 465 463 b 401 364 411 408 401 393 b 411 275 401 344 411 293 z m 508 681 b 504 690 506 681 504 685 b 514 700 504 696 508 700 b 521 696 518 700 521 699 b 508 681 521 688 511 681 z m 107 631 b 117 624 113 631 117 629 b 85 561 117 608 93 561 b 82 569 83 561 82 564 b 107 631 82 586 88 631 z m 496 500 b 536 582 496 518 526 582 b 543 557 540 582 543 571 b 501 494 543 535 515 494 b 496 500 499 494 496 497 z m 119 450 b 128 442 125 450 128 447 b 108 414 128 433 121 421 b 83 404 96 407 88 404 b 79 408 81 404 79 404 b 83 432 79 414 83 425 b 78 447 83 439 82 444 b 71 457 74 450 71 453 b 86 471 71 465 82 471 b 97 457 92 471 97 465 b 106 447 97 451 100 447 b 119 450 108 447 117 450 z m 376 149 b 382 167 376 154 378 160 b 403 217 388 179 397 201 b 458 265 410 233 431 253 b 513 314 489 279 506 294 b 535 343 519 332 528 343 b 543 326 539 343 543 338 l 543 325 b 460 224 543 292 490 229 b 417 175 436 219 429 211 b 394 125 404 139 400 125 b 376 149 388 125 376 140 z m 351 50 b 339 64 344 50 339 56 b 394 115 339 83 382 115 b 404 104 400 115 404 111 b 351 50 404 94 365 50 z "},"1":{"ha":347,"x_min":0,"x_max":0,"o":"m 146 -17 l 151 -17 b 217 54 179 -14 208 18 b 238 97 219 68 229 88 b 249 150 246 107 249 119 b 244 274 249 176 244 249 b 257 326 244 304 247 315 b 274 438 269 340 274 363 l 274 451 b 271 596 274 510 272 574 l 271 614 b 293 797 271 672 283 782 b 304 860 299 806 303 833 b 306 879 304 867 306 874 b 264 943 306 908 299 915 b 143 999 224 975 175 999 b 97 958 138 999 117 981 b 60 892 68 925 60 914 b 61 876 60 888 61 882 l 61 874 b 47 838 61 864 56 849 b 32 781 38 824 32 801 b 56 731 32 754 40 731 b 103 719 61 731 82 725 b 160 671 132 711 144 700 b 188 551 176 638 188 590 b 176 494 188 528 183 507 b 100 196 133 417 113 336 b 92 76 94 136 92 100 b 146 -17 92 35 115 -17 z m 260 869 b 250 849 260 858 256 849 b 240 869 244 849 240 858 b 250 889 240 881 244 889 b 260 869 256 889 260 881 z m 192 767 b 213 746 206 767 213 760 b 211 739 213 743 211 742 b 196 707 208 717 204 707 b 172 728 189 707 182 714 b 156 754 163 742 156 750 b 192 767 156 763 185 767 z m 240 450 b 193 382 240 436 222 410 l 147 339 l 169 376 b 190 431 181 397 190 421 b 226 472 190 451 208 472 b 240 450 233 472 240 463 z m 124 50 b 113 65 117 50 113 57 b 124 82 113 72 117 82 b 139 65 129 82 139 71 b 124 50 139 60 132 50 z "},"2":{"ha":614,"x_min":0,"x_max":0,"o":"m 71 649 b 133 672 97 649 133 661 b 178 733 133 678 153 706 b 240 833 203 761 231 807 b 288 888 254 875 263 888 b 378 826 340 888 350 878 b 418 778 393 799 411 778 l 421 778 b 431 763 426 778 431 772 b 440 735 431 753 435 740 b 443 725 442 733 443 729 b 429 681 443 715 438 700 b 413 608 418 656 413 631 b 414 596 413 604 414 600 b 415 569 415 586 415 578 b 272 365 415 500 383 457 b 210 313 258 354 231 331 b 76 75 136 251 76 138 b 131 19 76 39 101 26 b 153 4 143 17 153 10 b 179 -1 153 0 163 -1 b 344 18 214 -1 279 6 b 392 24 365 22 381 24 b 435 7 414 24 418 7 b 488 32 447 7 463 15 b 533 93 519 54 533 75 b 444 140 533 121 500 140 b 360 132 419 140 386 132 b 311 156 331 132 311 140 b 344 213 311 161 326 186 b 476 397 389 274 419 347 b 519 490 519 433 519 435 b 528 557 519 522 524 551 b 574 769 550 579 568 664 b 578 850 575 807 578 832 b 554 908 578 886 571 892 b 501 960 540 922 517 944 b 450 993 486 975 464 989 b 390 1019 436 997 410 1010 b 350 1035 371 1029 361 1035 b 235 967 317 1035 250 989 b 117 851 188 896 143 854 b 64 831 101 850 78 840 b 36 738 42 814 39 806 b 35 701 36 724 35 711 b 71 649 35 658 40 649 z m 331 982 b 322 988 325 982 322 985 b 346 1008 322 1000 335 1008 b 369 999 353 1008 361 1004 b 375 994 372 997 375 996 b 331 982 375 988 340 982 z m 186 843 b 182 851 183 843 182 846 b 203 879 182 867 189 879 b 213 869 208 879 213 875 b 186 843 213 865 197 843 z m 501 840 b 474 854 488 840 474 846 b 504 868 474 865 490 868 b 529 858 517 868 529 865 b 501 840 529 849 514 840 z m 113 821 b 67 800 113 811 89 800 b 57 803 60 800 57 800 b 64 814 57 806 60 808 b 99 829 72 824 88 829 b 113 821 107 829 113 826 z m 519 735 b 486 675 519 721 506 696 b 449 618 467 656 450 629 b 438 601 447 608 442 601 l 436 601 b 428 617 431 604 428 608 b 463 704 428 633 439 664 b 510 758 483 740 500 758 b 519 735 515 758 519 750 z m 74 725 b 64 710 74 717 69 710 b 54 725 58 710 54 717 b 64 740 54 733 58 740 b 74 725 69 740 74 733 z m 226 217 b 147 138 192 217 174 197 b 114 85 135 108 119 85 b 104 101 107 85 104 92 b 122 163 104 115 110 139 b 388 440 143 201 336 404 b 425 514 413 458 419 471 b 443 581 429 543 435 581 b 449 554 447 581 449 569 b 440 485 449 536 446 510 b 400 414 431 443 422 426 b 371 390 385 404 371 394 b 351 363 371 386 363 374 b 338 346 343 354 338 349 b 346 343 338 343 340 343 b 360 336 356 343 360 340 b 322 300 360 329 347 317 b 271 244 301 286 278 261 b 233 217 261 222 253 217 z m 460 96 b 371 67 460 79 424 67 b 365 68 369 67 368 68 b 301 76 331 68 301 72 b 329 85 301 81 314 85 b 396 100 344 85 374 92 b 443 114 422 110 435 114 b 460 96 450 114 460 104 z "},"3":{"ha":583,"x_min":0,"x_max":0,"o":"m 140 856 b 193 875 156 856 169 863 b 257 899 221 890 240 899 b 297 865 276 899 288 888 b 342 819 306 844 322 828 b 401 751 382 803 401 782 b 378 675 401 731 393 707 b 260 561 356 631 285 561 b 164 472 240 561 175 501 b 154 435 158 458 154 446 b 206 382 154 408 171 392 b 288 367 228 375 265 368 b 408 289 361 361 408 331 b 404 265 408 282 407 274 b 389 194 399 250 392 219 b 351 101 385 163 378 101 b 325 106 346 101 338 103 b 243 115 304 111 267 115 b 165 154 204 115 196 119 b 83 194 133 190 126 194 b 10 149 32 194 10 181 b 85 50 10 94 44 53 b 151 11 132 46 149 36 b 301 -65 157 -50 175 -60 l 365 -68 l 418 -4 b 506 164 478 68 500 110 b 529 326 508 207 529 276 b 486 461 529 379 515 426 b 458 514 465 486 458 497 b 461 539 458 521 458 529 b 515 671 474 601 475 624 b 550 743 538 699 550 722 b 531 785 550 758 543 774 b 497 849 519 794 504 822 b 243 1001 458 979 435 994 b 151 1011 201 1003 168 1011 b 86 976 138 1011 117 1000 b 35 925 57 954 35 932 b 140 856 35 900 96 856 z m 67 931 b 92 960 67 936 75 944 b 135 983 110 976 122 983 b 146 981 139 983 142 982 b 192 975 157 976 176 975 l 199 975 b 257 982 215 976 240 978 b 274 983 263 983 268 983 b 313 968 294 983 313 976 b 211 951 313 956 264 953 b 107 932 139 950 117 946 b 88 921 101 924 96 921 b 67 931 79 921 67 925 z m 322 958 b 332 969 322 963 326 965 b 367 976 339 975 353 976 b 404 964 386 976 404 971 b 349 943 401 953 371 943 b 322 958 335 943 322 947 z m 446 797 b 447 800 446 799 447 799 b 460 810 451 806 456 810 b 471 794 465 810 471 804 b 463 785 471 789 468 785 b 446 797 454 785 446 792 z m 225 490 b 257 522 225 501 243 522 b 297 554 264 522 282 536 b 435 660 340 606 411 660 b 447 657 443 660 447 660 b 421 629 447 653 439 644 b 233 482 392 604 267 482 b 225 490 228 482 225 485 z m 426 401 b 431 382 429 401 431 394 b 425 367 431 374 429 367 b 422 368 424 367 424 368 b 417 381 418 371 417 375 b 426 401 417 390 425 401 z m 417 165 b 414 179 414 165 414 169 b 447 282 414 210 424 282 b 454 265 453 282 454 276 b 417 165 454 240 431 165 z m 53 136 b 44 147 47 136 44 140 b 61 169 44 158 50 169 b 81 160 69 169 81 164 b 53 136 81 154 60 136 z m 431 115 b 364 40 431 88 388 40 b 358 42 363 40 360 42 b 343 53 347 46 343 49 b 369 72 343 58 351 64 b 410 110 385 79 404 96 b 426 133 417 125 422 133 b 431 115 429 133 431 128 z m 185 78 b 240 94 185 93 221 94 b 282 86 263 94 282 92 b 217 61 282 75 243 61 b 185 78 201 61 185 69 z "},"4":{"ha":631,"x_min":0,"x_max":0,"o":"m 286 681 b 285 671 286 676 285 674 b 275 628 282 663 278 643 b 233 585 271 608 260 596 b 60 425 176 561 81 472 b 21 354 50 403 33 369 l -1 325 l 19 292 b 100 214 42 256 85 214 b 118 199 106 214 113 207 b 260 174 129 179 222 174 b 375 201 308 174 340 182 b 424 219 396 213 414 219 b 443 160 436 219 440 188 b 468 83 446 133 457 99 b 488 47 479 68 488 53 b 506 7 488 42 496 24 b 550 -24 517 -14 532 -24 b 626 46 579 -24 626 15 b 600 126 626 65 600 104 b 601 132 600 129 601 131 l 601 135 b 571 188 601 144 589 165 b 522 269 538 229 522 249 b 542 328 522 285 529 301 b 585 469 557 360 576 422 b 596 544 592 508 596 529 b 586 581 596 560 593 569 b 531 610 575 601 563 607 l 515 610 b 449 561 490 610 482 601 b 404 431 407 511 406 508 b 367 318 403 353 401 350 b 313 290 346 299 328 290 b 286 308 300 290 290 296 b 285 315 286 310 285 313 b 318 457 285 340 304 424 b 358 603 333 492 358 585 b 368 626 358 613 363 624 b 379 657 374 629 379 643 b 417 721 379 674 392 696 b 457 840 456 760 456 761 l 457 851 b 422 958 457 925 447 958 b 368 931 408 958 390 949 b 279 735 322 893 279 792 b 286 681 279 715 286 696 z m 379 899 b 400 918 379 907 390 918 b 408 910 406 918 408 915 b 388 890 408 900 396 890 b 379 899 383 890 379 894 z m 342 747 b 358 731 342 743 358 732 l 357 731 b 331 753 346 731 332 743 l 331 756 b 392 849 331 778 376 849 b 397 846 396 849 397 847 b 390 838 397 844 394 842 b 379 808 383 831 379 818 b 357 775 379 799 369 783 b 343 763 349 768 343 765 b 350 758 343 761 346 758 b 358 757 356 758 358 758 b 342 747 358 754 342 753 z m 535 583 b 536 579 535 582 536 581 b 525 571 536 574 532 571 b 442 476 500 571 449 513 b 425 443 438 456 431 443 b 418 463 421 443 418 449 b 517 599 418 521 482 599 b 535 583 525 599 531 594 z m 289 578 b 249 542 289 557 272 542 b 124 439 215 542 160 496 b 96 408 110 418 100 408 b 93 414 94 408 93 410 b 101 444 93 419 96 429 b 215 561 119 490 168 540 b 281 581 242 574 268 581 b 289 578 286 581 289 581 z m 318 246 l 307 246 b 293 250 297 246 293 247 b 353 272 293 257 318 268 l 354 272 b 357 268 357 272 357 271 b 318 246 357 254 340 247 z m 468 260 b 497 222 476 260 497 235 b 483 214 497 218 492 214 b 463 247 472 214 463 233 b 468 260 463 251 463 260 z m 488 175 b 478 144 488 158 483 144 b 468 175 472 144 468 158 b 478 204 468 192 472 204 b 488 175 483 204 488 192 z "},"5":{"ha":628,"x_min":0,"x_max":0,"o":"m 69 825 b 99 765 69 803 76 790 b 126 721 118 743 126 735 b 121 693 126 714 125 706 b 76 582 107 646 101 617 b 58 540 67 569 58 550 b 35 456 58 518 35 478 b 65 389 35 438 43 419 b 113 350 83 364 94 350 b 264 456 139 350 176 381 b 297 496 282 471 297 490 b 326 542 297 503 311 522 b 360 569 343 563 350 569 b 379 563 365 569 371 567 b 433 456 410 546 433 499 b 429 414 433 439 429 429 b 440 354 429 394 433 374 b 456 265 449 331 456 290 b 417 185 456 226 450 217 b 286 106 381 150 307 106 b 182 140 274 106 201 140 b 153 135 174 140 164 139 b 100 86 117 124 100 108 b 103 71 100 82 101 76 b 228 -40 113 33 182 -29 b 272 -64 242 -43 261 -54 b 307 -78 282 -72 293 -78 b 415 -32 333 -78 369 -61 b 506 81 460 -3 474 13 b 543 219 536 146 543 171 b 558 308 543 256 549 290 b 575 347 567 325 575 342 b 596 381 575 353 583 368 b 625 463 615 401 625 429 b 578 606 625 536 592 565 b 539 651 572 624 557 642 b 465 703 522 660 489 682 b 397 739 436 728 415 739 b 368 731 388 739 379 736 b 250 681 331 710 260 681 b 204 828 232 681 204 781 b 289 894 204 871 253 894 l 292 894 b 415 854 336 893 401 871 b 443 840 424 844 433 840 b 519 913 468 840 519 885 b 488 981 519 929 508 949 b 354 1033 463 1018 440 1028 b 299 1042 329 1035 304 1039 b 290 1044 296 1043 293 1044 b 285 1042 289 1044 286 1043 b 261 1035 282 1039 272 1036 b 215 1014 250 1033 231 1024 b 128 994 199 1003 165 996 b 49 949 67 992 49 982 b 63 914 49 940 54 925 b 74 871 69 904 74 890 b 69 825 74 857 69 836 z m 422 1000 b 431 993 428 1000 431 997 b 425 986 431 989 429 986 b 421 988 424 986 422 988 b 388 990 415 990 403 990 b 314 981 358 990 322 986 b 238 961 304 974 261 961 b 232 964 233 961 232 961 b 239 976 232 967 235 971 b 340 1024 257 1006 301 1024 b 392 1008 360 1024 379 1018 b 414 1000 399 1003 407 1000 z m 90 831 b 139 888 90 849 125 888 b 149 865 144 888 149 881 b 124 825 149 851 139 835 b 101 814 113 818 106 814 b 90 831 97 814 90 822 z m 344 665 b 297 628 328 657 306 639 b 271 613 290 618 278 613 l 268 613 b 267 615 267 613 267 614 b 374 700 267 629 353 700 b 382 694 379 700 382 699 b 344 665 382 685 363 674 z m 128 610 b 122 618 125 610 122 614 b 149 690 122 638 140 690 b 154 676 151 690 154 685 b 128 610 154 649 138 610 z m 347 639 b 401 681 347 650 385 681 b 413 667 408 681 413 675 b 357 633 413 653 375 633 b 347 639 351 633 347 635 z m 206 613 b 197 621 200 613 197 615 b 219 631 197 626 207 631 b 235 628 229 631 235 629 b 206 613 235 619 208 613 z m 139 535 b 158 539 146 535 154 539 b 168 522 165 539 168 533 b 153 501 168 511 161 501 b 107 485 124 499 118 496 b 74 472 99 476 85 472 b 58 481 65 472 58 475 b 107 551 58 494 97 551 b 139 535 119 551 124 535 z m 558 524 b 532 507 558 514 551 511 b 478 479 515 503 490 490 l 456 460 l 456 485 b 510 538 456 513 463 521 b 546 549 529 544 540 549 b 558 524 553 549 558 536 z m 457 407 b 449 422 453 407 449 414 b 468 451 449 436 458 451 b 475 440 472 451 475 449 l 475 439 b 457 407 475 431 468 407 z m 296 88 b 329 103 308 88 318 93 b 447 175 353 124 436 175 b 456 165 451 175 456 171 b 439 140 456 160 447 149 b 314 43 354 67 326 43 b 300 54 308 43 304 47 b 271 75 292 67 279 75 b 257 85 263 75 257 79 b 268 92 257 89 261 92 b 296 88 275 92 286 88 z m 204 113 b 167 85 204 101 185 85 b 149 96 154 85 149 90 b 189 125 149 107 178 125 b 204 113 193 125 204 119 z m 296 6 b 288 15 290 6 288 10 b 303 26 288 21 294 26 b 313 19 310 26 313 24 b 296 6 313 11 301 6 z "},"6":{"ha":692,"x_min":0,"x_max":0,"o":"m 178 801 b 172 810 178 806 175 810 b 163 794 167 810 163 803 b 167 779 163 786 164 779 b 178 801 169 779 178 793 z m 49 636 b 71 367 49 597 71 404 b 65 332 71 349 69 338 b 54 300 58 321 54 311 b 72 250 54 286 60 269 b 128 124 99 206 96 165 b 153 75 142 106 153 85 b 360 -40 153 28 240 -21 b 382 -42 367 -42 374 -42 b 489 -3 424 -42 471 -25 b 558 43 497 7 529 28 b 646 135 606 67 617 78 b 679 238 667 175 679 215 b 671 254 679 247 676 254 b 661 272 667 254 663 263 b 625 486 654 351 638 458 b 478 596 610 524 524 588 b 376 621 446 603 411 621 b 289 592 349 621 319 611 b 208 561 258 572 226 561 b 193 569 200 561 193 564 b 194 574 193 571 194 572 b 217 643 197 581 207 611 b 333 800 232 693 244 713 b 440 899 388 854 436 899 b 463 875 444 899 456 888 b 576 790 481 840 549 790 b 614 843 600 790 614 814 b 590 906 614 865 607 888 b 567 940 581 915 571 931 b 426 1008 560 960 460 1008 b 381 985 414 1008 393 997 b 313 949 368 972 336 957 b 265 922 289 940 268 929 b 243 908 263 915 253 908 b 201 889 233 908 214 900 b 146 853 189 878 164 861 b 64 721 107 835 64 764 b 49 636 64 683 49 676 z m 440 975 b 325 908 440 968 338 908 b 311 900 317 908 311 906 b 283 879 311 894 299 886 b 231 842 268 872 243 856 b 217 824 222 832 217 825 l 217 822 b 219 824 217 822 218 824 b 226 825 222 825 225 825 b 232 821 229 825 232 824 b 168 769 232 808 183 769 b 94 674 138 769 107 731 b 68 578 81 608 71 578 b 67 590 67 578 67 582 b 68 617 67 597 68 606 b 153 832 76 743 97 799 b 206 868 172 843 196 860 b 435 979 253 908 403 979 b 440 975 439 979 440 978 z m 482 571 b 460 567 482 568 474 567 b 361 582 422 567 361 572 b 397 601 361 590 389 601 b 482 571 411 601 482 578 z m 265 453 b 322 488 272 453 299 468 b 407 522 351 511 381 522 b 456 504 425 522 442 515 b 496 397 485 481 493 454 b 497 388 496 394 497 392 b 453 182 497 321 472 204 b 404 144 444 172 422 156 l 372 124 l 319 158 b 201 350 247 204 201 285 b 265 453 201 396 240 453 z m 119 403 b 126 390 124 403 126 399 b 124 369 126 385 125 378 b 86 304 111 319 101 304 b 76 313 79 304 76 308 l 76 317 b 119 403 82 329 104 403 z m 579 351 b 551 332 579 347 567 339 b 522 299 536 325 524 310 b 506 257 518 269 513 257 b 497 269 500 257 497 263 b 550 388 497 300 521 388 b 579 351 560 388 579 357 z m 486 111 b 476 113 483 111 481 113 b 469 114 474 113 472 114 b 371 81 440 114 399 81 b 363 82 368 81 365 82 b 342 97 349 86 342 92 b 360 106 342 101 349 106 b 474 161 375 106 415 125 b 496 207 485 168 494 188 b 500 242 497 231 499 242 b 513 154 506 242 513 175 b 486 111 513 126 510 111 z m 172 194 b 190 179 186 194 190 190 l 190 172 b 174 153 189 158 183 153 l 168 153 b 143 167 150 156 143 160 b 172 194 143 182 154 194 z "},"7":{"ha":558,"x_min":0,"x_max":0,"o":"m 314 260 b 444 589 314 343 375 503 b 525 782 476 628 525 718 b 490 946 525 846 510 911 b 363 1015 465 989 465 988 b 238 1025 338 1022 285 1025 b 151 1017 194 1025 157 1022 b 89 1001 144 1010 118 1003 b 10 967 46 999 33 993 b -18 914 -10 944 -18 928 b -10 890 -18 906 -15 899 b 26 879 -6 883 4 879 b 68 882 38 879 50 881 b 179 925 139 888 179 903 b 200 939 179 932 189 939 l 201 939 b 378 824 238 939 378 847 b 297 647 378 801 317 668 b 258 556 274 624 271 588 b 250 468 254 544 250 504 b 233 376 250 424 244 393 b 213 306 225 363 215 331 b 182 238 210 274 200 254 b 161 199 167 224 161 214 b 164 182 161 193 163 189 b 171 93 167 164 169 125 b 194 36 172 40 174 36 b 236 63 208 36 225 47 b 279 117 246 76 265 101 b 324 203 308 147 324 176 b 314 260 324 225 314 235 z m 194 993 b 204 999 194 994 199 996 b 264 1007 218 1004 242 1007 b 308 999 288 1007 308 1004 b 261 981 308 988 289 981 b 194 993 246 981 194 986 z m 313 971 b 349 988 313 981 335 988 b 407 961 375 988 407 975 b 394 953 407 956 403 953 b 313 971 381 953 313 964 z m 438 811 b 372 710 438 801 379 710 b 365 721 368 710 365 714 b 393 789 365 738 378 771 b 432 819 410 808 425 819 b 438 811 436 819 438 817 z m 339 575 b 319 583 335 575 328 578 b 300 607 306 592 300 599 b 326 635 300 617 308 625 b 358 649 343 643 353 649 b 368 628 365 649 368 642 b 339 575 368 613 354 575 z m 315 531 l 315 528 b 282 453 315 506 292 453 b 279 479 281 453 279 464 l 279 494 b 301 557 281 533 292 557 b 315 531 307 557 313 549 z m 253 328 b 244 340 247 328 244 333 b 272 393 244 351 264 393 b 276 383 275 393 275 390 l 276 378 b 253 328 276 363 267 328 z "},"8":{"ha":625,"x_min":0,"x_max":0,"o":"m 478 542 b 557 621 500 542 557 599 b 572 663 557 629 564 647 b 585 754 581 678 585 715 l 585 761 b 592 847 585 797 588 835 b 594 858 593 851 594 854 b 471 964 594 889 497 960 b 439 979 453 967 439 974 b 421 988 439 983 431 988 b 379 1013 411 988 392 999 b 319 1038 364 1029 343 1038 b 251 1018 299 1038 275 1031 b 179 958 233 1008 200 981 b 131 918 158 936 136 918 b 76 878 125 918 101 900 b 32 789 36 840 32 832 b 42 735 32 763 36 738 b 72 690 47 732 61 713 b 106 651 83 668 97 651 b 147 618 114 651 132 636 l 174 586 l 167 454 b 151 306 163 382 157 314 b 115 207 136 279 118 231 b 96 160 114 196 106 174 b 85 124 89 149 85 136 b 263 -21 85 67 157 4 b 314 -28 283 -25 300 -28 b 378 8 343 -28 360 -17 b 421 46 385 19 404 36 b 489 111 438 56 468 85 b 525 181 517 144 525 156 b 467 401 525 264 493 365 b 435 486 446 428 435 460 b 478 542 435 515 454 542 z m 454 944 b 440 942 454 942 450 942 l 414 942 b 333 972 360 944 333 954 b 349 997 333 985 343 997 b 374 982 354 997 361 992 b 408 968 383 975 400 968 b 454 944 415 968 454 956 z m 215 940 l 214 940 b 213 946 213 942 213 943 b 232 978 213 957 224 978 b 236 974 235 978 236 976 b 215 940 236 963 221 940 z m 221 918 b 183 892 221 913 204 900 b 114 843 163 883 132 863 b 67 810 96 824 75 810 b 53 817 57 810 53 813 b 103 878 53 828 100 867 b 214 928 106 888 206 928 b 221 918 219 928 221 924 z m 374 889 b 399 821 394 872 399 861 b 326 656 399 765 361 678 b 300 646 317 649 310 646 b 189 685 278 646 194 676 b 186 697 186 688 186 693 b 211 746 186 713 196 732 b 231 778 221 754 231 769 b 251 840 231 786 240 814 b 326 908 272 885 299 908 b 374 889 342 908 357 901 z m 428 828 b 421 842 424 828 421 833 b 432 869 421 850 429 869 b 438 843 433 869 438 850 b 428 828 438 835 433 828 z m 449 771 b 424 717 449 761 438 736 b 404 672 413 700 404 681 l 404 669 b 406 667 404 668 406 668 b 394 661 406 663 401 661 b 374 676 382 661 374 669 b 379 685 374 679 375 682 b 389 706 385 689 389 697 b 440 790 389 725 429 790 b 449 771 444 790 449 781 z m 256 618 b 246 611 256 614 251 611 b 215 594 238 611 224 603 b 200 583 208 588 204 583 b 181 615 192 583 181 610 b 214 631 181 626 192 631 b 256 618 235 631 256 626 z m 196 446 b 190 476 193 446 190 456 b 217 551 190 511 204 551 b 219 543 218 551 219 549 b 196 446 219 529 203 446 z m 190 324 b 185 342 186 324 185 332 b 196 392 185 358 189 381 b 204 401 200 397 201 401 b 208 388 207 401 208 396 b 190 324 208 369 200 324 z m 396 297 b 461 218 439 268 461 242 b 443 185 461 206 454 196 b 313 133 418 160 346 149 b 286 125 303 128 293 125 b 258 196 267 125 260 146 b 257 254 257 219 257 239 b 276 331 257 306 261 319 b 303 339 285 336 293 339 b 396 297 325 339 354 326 z m 164 274 l 164 275 b 190 313 164 286 183 313 b 200 288 197 313 200 304 b 192 267 200 272 199 267 b 164 274 183 267 167 274 z m 200 242 b 131 135 200 224 142 135 b 122 146 125 135 122 139 b 147 208 122 157 131 178 b 193 254 164 238 183 254 b 200 242 199 254 200 250 z m 253 93 b 265 100 253 96 257 97 b 354 125 293 110 317 125 l 385 125 l 354 107 b 281 81 326 90 300 81 b 253 93 271 81 253 85 z "},"9":{"ha":693,"x_min":0,"x_max":0,"o":"m 536 442 b 489 281 536 401 519 344 b 413 182 457 214 440 196 b 356 165 393 172 368 165 b 311 149 343 165 324 157 b 267 138 300 140 288 138 b 190 142 250 138 210 142 b 150 119 163 142 150 135 b 158 92 150 113 153 104 b 299 0 172 61 254 8 b 346 -15 318 -4 339 -10 b 364 -19 350 -18 356 -19 b 457 -6 390 -19 435 -6 b 504 25 471 -6 492 8 b 571 75 517 40 547 64 b 628 111 594 86 621 103 b 639 196 636 121 639 147 b 636 293 639 222 639 253 l 636 299 b 642 356 636 313 638 338 b 644 381 643 364 644 372 b 635 425 644 396 642 410 b 611 539 619 458 611 501 b 622 601 611 564 615 586 b 644 703 638 631 644 671 b 633 749 644 725 642 742 b 617 776 625 756 617 768 b 546 889 617 799 567 878 b 499 899 536 894 515 899 b 417 918 482 899 446 908 b 311 946 367 936 331 946 b 297 940 304 946 299 943 b 210 885 296 935 257 911 b 65 768 111 829 96 817 b 40 651 46 738 42 715 l 40 635 b 61 543 40 582 44 567 b 96 467 74 526 89 493 b 175 390 108 418 111 415 b 257 367 214 375 238 367 b 321 403 279 367 294 378 b 369 443 344 425 367 443 b 414 472 372 443 393 456 b 486 503 439 492 464 503 b 536 442 519 503 536 478 z m 435 821 b 514 876 435 835 493 876 l 517 876 b 535 863 525 875 532 869 l 535 861 b 443 815 535 847 468 815 b 435 821 439 815 435 818 z m 115 790 b 113 792 113 790 113 790 b 193 849 113 803 175 849 b 197 846 196 849 197 847 b 115 790 197 824 126 790 z m 211 576 b 238 708 211 625 221 676 b 260 767 250 731 260 758 b 294 817 260 775 275 797 b 349 847 315 838 333 847 b 382 825 363 847 374 840 b 411 778 388 814 401 793 b 424 750 419 765 424 758 b 381 660 424 728 389 671 b 301 547 363 638 310 582 b 264 514 296 525 282 514 b 211 576 232 514 211 538 z m 451 681 b 421 651 443 681 431 668 b 385 615 408 629 393 615 b 379 624 381 615 379 617 b 472 721 379 647 432 721 b 486 711 481 721 486 717 b 451 681 486 697 463 681 z m 551 651 b 540 660 543 651 540 656 b 579 697 540 672 568 697 b 594 678 588 697 592 690 b 596 675 594 676 596 676 b 551 651 596 663 568 651 z m 117 560 b 104 528 115 539 110 528 b 94 551 100 528 96 535 l 94 561 b 110 592 94 582 99 592 b 117 565 114 592 117 581 z m 224 444 b 210 457 213 444 210 449 b 232 476 210 465 219 474 b 307 492 288 489 296 490 b 319 483 314 492 319 488 b 224 444 319 464 267 444 z m 121 442 b 114 453 117 442 114 447 b 124 471 114 458 119 471 b 131 456 128 471 131 461 b 121 442 131 450 125 442 z m 500 244 b 542 347 500 267 521 321 b 576 382 558 369 571 382 b 581 374 579 382 581 378 b 547 299 581 347 561 314 b 528 263 536 286 528 271 b 507 235 528 249 515 235 b 500 244 503 235 500 239 z m 369 122 b 358 128 363 122 358 125 b 411 154 358 140 396 154 b 428 146 421 154 428 151 b 369 122 428 140 386 122 z "}," ":{"ha":289,"x_min":0,"x_max":0,"o":""},"!":{"ha":289,"x_min":0,"x_max":0,"o":"m 89 67 b 69 36 89 60 81 46 b 50 3 57 25 50 13 b 149 -46 50 -28 117 -46 b 225 10 192 -46 225 -25 b 132 149 225 35 149 149 b 89 67 113 149 89 85 z m 129 36 l 129 29 b 99 3 129 18 110 3 b 92 8 94 3 92 4 b 101 29 92 14 94 22 b 118 82 110 39 118 64 b 131 125 118 108 124 125 b 140 106 138 125 140 115 b 129 36 140 86 129 53 z m 81 874 b 83 838 81 864 82 853 b 96 615 92 744 96 672 b 72 358 96 501 72 472 b 83 268 72 313 76 275 b 147 243 89 263 129 243 b 207 324 172 243 207 300 b 226 463 208 385 218 446 b 235 515 232 474 235 496 b 226 554 235 533 232 550 b 221 599 224 557 221 574 b 226 724 221 636 226 706 b 183 929 226 794 208 890 b 153 942 178 938 167 942 b 81 874 115 942 81 914 z m 139 921 b 147 907 144 921 147 915 b 133 882 147 900 142 889 b 118 851 125 875 118 863 b 111 838 118 843 115 838 b 108 839 110 838 110 839 b 99 860 101 843 99 850 b 139 921 99 878 122 921 z m 133 525 b 96 442 132 492 108 442 b 89 456 90 442 89 447 b 101 499 89 467 93 482 b 121 572 108 514 117 546 b 133 629 125 599 131 624 b 142 638 138 635 140 638 b 144 628 143 638 144 635 b 133 525 144 600 135 549 z "},"\"":{"ha":567,"x_min":0,"x_max":0,"o":"m 342 903 b 346 889 342 899 344 894 b 349 858 349 883 349 871 b 338 757 349 829 338 772 b 356 732 338 740 343 735 b 378 686 371 728 378 715 b 376 663 378 679 378 672 l 376 660 b 465 583 376 626 429 583 b 500 644 493 583 500 606 b 488 767 500 675 488 739 b 493 794 488 779 490 789 b 503 853 499 806 503 831 b 410 940 503 908 464 940 b 342 903 385 940 342 926 z m 433 922 b 410 897 433 917 424 906 b 385 863 396 889 385 874 b 375 843 385 851 381 843 b 364 863 368 843 364 851 b 388 915 364 881 374 906 b 424 931 401 925 415 931 b 433 922 431 931 433 928 z m 407 714 b 417 725 407 721 411 725 b 422 704 421 725 422 717 l 422 694 b 406 660 421 678 413 663 b 401 658 404 660 403 658 b 397 664 399 658 397 661 b 407 714 397 676 407 704 z m 64 903 b 68 889 64 899 67 894 b 71 858 71 883 71 871 b 60 757 71 829 60 772 b 78 732 60 740 65 735 b 100 686 93 728 100 715 b 99 663 100 679 100 672 l 99 660 b 188 583 99 626 151 583 b 222 644 215 583 222 606 b 210 767 222 675 210 739 b 215 794 210 779 213 789 b 225 853 221 806 225 831 b 132 940 225 908 186 940 b 64 903 107 940 64 926 z m 156 922 b 132 897 156 917 146 906 b 107 863 118 889 107 874 b 97 843 107 851 103 843 b 86 863 90 843 86 851 b 110 915 86 881 96 906 b 146 931 124 925 138 931 b 156 922 153 931 156 928 z m 129 714 b 139 725 129 721 133 725 b 144 704 143 725 144 717 l 144 694 b 128 660 143 678 135 663 b 124 658 126 660 125 658 b 119 664 121 658 119 661 b 129 714 119 676 129 704 z "},"#":{"ha":1046,"x_min":0,"x_max":0,"o":"m 597 700 b 521 824 546 700 522 739 b 497 881 521 857 518 881 b 435 831 479 881 454 863 b 349 704 401 776 372 767 b 311 656 336 669 326 657 b 226 653 300 656 261 654 b 74 590 132 650 74 633 b 151 506 74 563 100 533 b 204 485 176 492 192 485 b 221 489 210 485 215 486 b 317 517 257 506 299 517 b 331 500 326 517 331 510 b 211 375 331 465 253 375 b 146 389 194 375 165 389 b 8 333 108 389 26 350 b -8 315 -3 324 -8 319 b 47 285 -8 301 33 285 b 69 275 60 285 69 281 b 81 268 69 271 74 268 l 89 268 b 93 269 90 268 92 269 b 182 211 117 269 182 240 b 163 153 182 196 175 172 b 133 71 156 142 143 106 b 108 -1 124 36 113 3 b 104 -15 106 -4 104 -10 b 122 -49 104 -29 113 -47 b 160 -54 128 -49 144 -51 l 171 -54 b 199 -37 183 -54 192 -49 b 221 -18 206 -26 215 -18 b 290 75 231 -18 242 -4 b 346 149 301 93 326 126 b 382 213 365 171 382 200 b 435 263 382 244 401 263 b 456 261 440 263 449 263 b 510 229 492 254 510 258 b 494 188 510 214 504 196 b 481 163 486 181 481 169 b 438 76 481 149 465 118 b 424 43 428 63 424 54 b 431 11 424 35 426 25 b 492 -47 442 -26 464 -47 b 528 -8 499 -47 515 -29 b 586 50 540 14 565 39 b 647 108 607 61 633 86 b 678 149 661 131 674 149 b 689 167 681 149 686 157 b 790 226 694 188 761 226 b 838 251 800 226 821 238 l 867 275 l 832 307 b 779 350 813 325 789 344 b 765 383 769 356 765 363 b 768 436 765 396 765 413 b 839 547 776 522 790 547 b 861 547 846 547 853 549 b 879 546 867 547 872 546 b 968 558 906 546 939 550 b 1025 588 1014 571 1025 574 b 975 667 1025 624 993 667 b 928 678 969 667 949 672 b 867 739 890 689 867 713 b 872 775 867 753 872 758 b 843 904 872 807 860 860 b 824 929 836 922 833 929 b 803 925 818 929 813 928 b 735 792 786 921 735 821 l 735 790 b 597 700 735 753 658 700 z m 807 869 b 758 804 796 833 775 804 b 747 808 751 804 747 806 b 757 826 747 811 751 817 b 783 869 764 838 776 858 b 804 892 790 881 799 892 b 810 882 807 892 810 888 b 807 869 810 878 808 875 z m 428 743 b 379 667 389 715 386 711 b 319 601 372 625 350 601 b 310 603 317 601 314 603 b 279 614 289 607 279 610 b 301 624 279 617 286 621 b 363 703 332 631 363 669 b 403 760 363 713 382 739 b 442 808 424 781 442 803 b 476 850 442 819 468 850 l 478 849 l 478 846 b 428 743 478 807 451 760 z m 719 657 b 706 665 710 657 706 660 b 736 710 706 674 715 689 b 778 742 758 732 771 742 b 782 735 781 742 782 740 b 719 657 782 699 744 657 z m 569 669 b 596 678 569 674 578 678 b 675 694 625 678 653 694 b 686 688 682 694 686 692 b 668 663 686 683 678 671 b 633 650 658 654 649 650 b 569 669 610 650 569 661 z m 911 640 b 878 626 899 640 890 636 b 826 608 863 615 840 608 b 813 617 818 608 813 611 b 881 671 813 626 858 671 b 896 665 886 671 893 668 b 926 657 901 661 915 657 b 975 640 953 657 975 649 b 974 638 975 639 974 639 b 961 635 972 635 968 635 b 911 640 949 635 924 640 z m 126 600 b 108 607 117 600 108 603 b 143 625 108 617 125 625 b 169 621 153 625 160 621 b 226 638 189 621 208 638 b 256 628 236 638 246 633 b 265 619 261 624 265 621 b 254 618 265 618 261 618 b 228 603 246 618 232 611 b 208 590 224 594 218 590 b 186 594 203 590 196 592 b 139 600 171 599 151 600 z m 671 556 b 682 524 679 556 682 543 b 651 413 682 488 671 433 b 563 389 633 393 624 389 l 532 389 l 436 390 l 439 428 b 440 519 440 449 440 490 b 494 608 440 578 460 608 b 586 578 506 608 547 594 b 663 553 621 563 653 553 b 671 556 665 553 668 556 z m 394 486 l 394 482 b 338 403 392 457 353 403 b 301 375 332 403 315 390 b 208 336 279 351 243 336 b 161 346 192 336 176 339 b 142 356 149 351 142 354 b 190 358 142 358 156 358 b 297 404 249 358 251 360 b 343 458 322 429 343 454 b 383 508 343 474 371 508 b 394 486 390 504 394 500 z m 558 363 b 542 347 558 357 551 350 b 508 328 532 344 517 336 b 486 319 501 322 494 319 b 461 339 472 319 461 326 b 478 363 461 346 469 357 b 526 372 489 369 508 372 b 558 363 544 372 558 369 z m 208 265 b 233 275 208 271 215 275 b 253 274 239 275 246 274 b 300 261 278 272 300 267 b 265 246 300 256 283 249 b 213 167 231 240 226 233 b 175 113 207 143 186 113 b 169 117 172 113 171 114 l 169 121 b 181 150 169 128 174 139 b 208 256 194 171 208 228 z m 547 163 l 547 158 b 510 100 547 143 510 113 b 456 44 510 86 467 44 l 454 44 b 453 47 454 44 453 46 b 532 203 453 67 504 167 b 556 221 542 215 550 221 b 563 213 560 221 563 218 b 547 163 563 200 547 176 z m 167 51 b 158 60 163 51 158 54 b 174 75 158 69 165 75 b 183 67 179 75 183 72 b 167 51 183 61 172 51 z "},"$":{"ha":664,"x_min":0,"x_max":0,"o":"m 246 917 b 138 878 194 893 156 878 b 133 879 136 878 135 879 l 126 879 b 38 801 100 879 69 853 b 19 747 25 781 19 769 b 31 663 19 729 24 704 b 78 469 40 611 68 493 b 156 397 83 456 117 424 b 261 276 233 343 261 317 b 251 225 261 261 257 246 b 204 172 242 190 226 172 b 168 183 194 172 182 176 b 138 196 153 192 144 196 b 118 185 131 196 126 193 b 97 89 106 172 100 147 b 96 57 97 78 96 67 b 143 -18 96 -3 107 -18 b 253 -83 192 -18 213 -29 l 293 -137 l 318 -114 b 350 -69 332 -101 346 -82 b 500 11 358 -49 469 11 b 531 53 517 11 525 22 b 561 97 533 65 546 85 b 585 142 578 113 585 119 b 561 282 585 188 574 253 b 542 347 554 303 544 332 b 450 460 536 374 465 460 l 449 460 b 446 458 449 460 447 458 b 413 464 440 458 426 461 b 367 544 381 471 367 486 b 376 674 367 575 369 617 b 390 750 381 713 388 747 b 404 754 393 753 399 754 b 464 728 425 754 460 740 b 554 640 486 658 497 640 b 572 642 563 640 568 640 b 622 738 593 649 622 706 b 621 747 622 740 621 744 b 488 879 606 807 531 879 b 481 878 485 879 483 878 b 472 876 478 878 475 876 b 433 897 460 876 447 883 b 393 921 419 911 403 921 b 356 940 383 921 367 931 b 333 951 347 947 342 951 b 246 917 321 951 300 942 z m 507 843 b 482 833 507 838 496 833 b 461 840 471 833 461 836 b 463 843 461 842 463 842 b 488 853 465 849 476 853 b 507 843 499 853 507 849 z m 125 821 b 57 767 125 806 75 767 l 54 767 b 53 771 53 767 53 769 b 111 833 53 785 96 833 b 125 821 119 833 125 828 z m 222 794 b 213 804 217 794 213 799 b 228 814 213 810 219 814 b 239 807 235 814 239 811 b 222 794 239 800 226 794 z m 274 786 b 264 790 267 786 265 786 b 275 793 264 792 268 793 l 278 793 b 288 790 285 793 288 792 b 274 786 288 788 276 786 z m 267 553 b 217 563 253 553 229 563 b 204 560 211 563 208 560 b 158 626 190 560 163 596 b 149 683 156 646 151 671 l 149 690 b 182 731 149 703 157 714 b 229 751 203 744 217 751 b 257 731 242 751 250 744 b 283 686 263 719 274 700 b 299 615 293 671 299 642 b 267 553 299 582 294 553 z m 550 743 b 513 717 550 725 528 717 b 497 725 504 717 497 718 b 508 735 497 731 501 735 b 514 738 513 735 514 736 b 500 751 514 739 500 749 b 517 756 500 754 504 756 b 550 743 533 756 550 753 z m 96 564 b 86 540 96 550 92 540 b 76 564 81 540 76 550 b 86 589 76 578 81 589 b 96 564 92 589 96 578 z m 257 474 b 243 476 253 474 249 475 b 214 490 221 482 214 485 b 247 510 214 504 231 510 b 299 535 260 510 283 522 b 322 551 313 546 318 551 b 329 542 325 551 328 547 l 329 540 b 257 474 329 518 281 474 z m 179 515 l 182 515 b 200 510 189 513 197 510 l 201 510 b 179 486 201 507 192 499 b 146 463 163 471 151 463 b 142 467 143 463 142 464 b 179 515 142 482 168 515 z m 358 413 b 340 421 349 413 340 415 b 372 438 340 429 358 438 b 386 428 378 438 386 433 b 358 413 386 418 369 413 z m 236 140 b 219 135 228 136 224 135 b 214 140 215 135 214 138 b 242 183 214 147 224 163 b 275 254 257 201 271 231 b 292 296 279 276 286 296 b 299 279 296 296 299 290 b 236 140 299 214 265 153 z m 450 217 b 486 175 469 200 486 182 b 418 119 486 151 446 119 b 360 176 367 119 360 126 b 393 246 360 222 371 246 b 450 217 407 246 426 236 z m 404 90 b 378 81 401 85 389 81 b 364 88 369 81 364 83 l 364 90 b 390 100 367 96 379 100 b 404 93 399 100 404 97 z m 263 57 b 364 49 308 57 364 53 b 338 40 361 44 349 40 b 288 17 325 40 303 31 b 251 -7 269 1 258 -7 b 242 11 246 -7 242 -1 b 224 31 242 24 236 31 b 197 44 208 31 197 38 b 247 57 197 56 222 57 z m 144 31 b 135 21 144 25 140 21 b 125 31 129 21 125 25 b 135 40 125 36 129 40 b 144 31 140 40 144 36 z "},"%":{"ha":839,"x_min":0,"x_max":0,"o":"m 667 553 b 660 549 667 550 663 549 b 572 460 649 549 579 478 b 554 426 568 450 560 435 b 533 286 543 411 533 335 b 538 236 533 265 538 254 b 533 204 538 222 533 222 l 533 193 b 536 158 535 181 536 164 b 554 128 536 153 544 139 b 572 104 564 117 572 107 b 682 29 572 65 643 29 b 774 129 731 29 767 65 b 796 174 776 151 779 157 b 818 213 811 189 818 201 b 808 242 818 224 808 232 b 814 272 808 251 814 258 b 810 326 814 289 810 306 b 813 369 810 342 813 356 b 786 443 813 394 804 415 b 771 490 774 463 771 474 b 746 556 771 535 765 547 b 701 565 731 563 715 565 b 667 553 689 565 667 561 z m 728 553 b 729 550 728 551 729 551 b 700 539 729 544 718 539 b 664 529 690 539 675 535 b 649 522 656 525 651 522 b 647 525 647 522 647 524 l 647 528 b 713 558 650 542 689 558 b 728 553 719 558 725 557 z m 746 540 b 740 539 746 539 743 539 b 736 544 738 539 736 542 b 738 547 736 546 736 547 b 740 546 739 547 739 546 b 746 540 743 544 746 542 z m 714 188 b 701 165 714 178 711 174 b 686 147 693 157 686 150 b 649 119 686 138 660 119 b 597 179 625 119 597 153 l 597 238 b 604 303 597 268 604 275 l 604 314 b 601 350 603 328 601 343 b 638 457 601 421 608 442 b 664 478 647 463 660 472 b 679 489 669 485 674 489 b 729 422 701 489 717 435 b 756 344 742 410 754 372 l 756 343 b 725 265 756 319 740 281 b 710 232 714 254 710 246 b 714 188 710 222 714 196 z m 768 394 b 763 390 767 392 764 390 b 760 394 761 390 760 392 b 765 400 760 397 763 400 b 768 397 767 400 768 399 z m 563 365 b 567 361 565 365 567 364 b 550 331 567 354 554 331 b 549 335 549 331 549 332 b 563 365 549 343 553 365 z m 781 328 b 758 297 781 317 765 297 l 757 297 l 757 300 b 776 340 757 308 771 340 b 781 328 779 340 781 335 z m 550 251 b 549 254 549 251 549 253 b 550 261 549 256 549 258 l 550 265 b 544 278 550 271 544 274 l 544 281 b 551 285 546 283 549 285 b 557 278 554 285 557 282 b 561 274 557 275 558 274 l 564 274 b 568 275 565 274 567 275 b 572 271 571 275 572 274 b 550 251 572 263 557 251 z m 696 124 b 710 158 696 133 706 149 b 765 207 715 176 760 189 b 776 221 768 217 774 221 b 781 213 779 221 781 218 b 739 161 781 196 754 164 b 717 138 726 160 722 156 b 706 113 711 119 708 113 b 696 124 703 113 696 121 z m 683 75 b 678 82 679 75 678 78 b 706 107 678 90 700 107 b 711 101 708 107 711 106 b 683 75 711 97 689 75 z m 153 983 b 146 979 153 981 149 979 b 58 890 135 979 65 908 b 40 857 54 881 46 865 b 19 717 29 842 19 765 b 24 667 19 696 24 685 b 19 635 24 653 19 653 l 19 624 b 22 589 21 611 22 594 b 40 558 22 583 31 569 b 58 535 50 547 58 538 b 168 460 58 496 129 460 b 260 560 217 460 253 496 b 282 604 263 582 265 588 b 304 643 297 619 304 632 b 294 672 304 654 294 663 b 300 703 294 682 300 689 b 296 757 300 719 296 736 b 299 800 296 772 299 786 b 272 874 299 825 290 846 b 257 921 260 893 257 904 b 232 986 257 965 251 978 b 188 996 217 993 201 996 b 153 983 175 996 153 992 z m 214 983 b 215 981 214 982 215 982 b 186 969 215 975 204 969 b 150 960 176 969 161 965 b 135 953 142 956 138 953 b 133 956 133 953 133 954 l 133 958 b 199 989 136 972 175 989 b 214 983 206 989 211 988 z m 232 971 b 226 969 232 969 229 969 b 222 975 224 969 222 972 b 224 978 222 976 222 978 b 226 976 225 978 225 976 b 232 971 229 975 232 972 z m 200 618 b 188 596 200 608 197 604 b 172 578 179 588 172 581 b 135 550 172 568 146 550 b 83 610 111 550 83 583 l 83 668 b 90 733 83 699 90 706 l 90 744 b 88 781 89 758 88 774 b 124 888 88 851 94 872 b 150 908 133 893 146 903 b 165 919 156 915 160 919 b 215 853 188 919 203 865 b 242 775 228 840 240 803 l 242 774 b 211 696 242 750 226 711 b 196 663 200 685 196 676 b 200 618 196 653 200 626 z m 254 825 b 249 821 253 822 250 821 b 246 825 247 821 246 822 b 251 831 246 828 249 831 b 254 828 253 831 254 829 z m 49 796 b 53 792 51 796 53 794 b 36 761 53 785 40 761 b 35 765 35 761 35 763 b 49 796 35 774 39 796 z m 267 758 b 244 728 267 747 251 728 l 243 728 l 243 731 b 263 771 243 739 257 771 b 267 758 265 771 267 765 z m 36 682 b 35 685 35 682 35 683 b 36 692 35 686 35 689 l 36 696 b 31 708 36 701 31 704 l 31 711 b 38 715 32 714 35 715 b 43 708 40 715 43 713 b 47 704 43 706 44 704 l 50 704 b 54 706 51 704 53 706 b 58 701 57 706 58 704 b 36 682 58 693 43 682 z m 182 554 b 196 589 182 564 192 579 b 251 638 201 607 246 619 b 263 651 254 647 260 651 b 267 643 265 651 267 649 b 225 592 267 626 240 594 b 203 568 213 590 208 586 b 192 543 197 550 194 543 b 182 554 189 543 182 551 z m 169 506 b 164 513 165 506 164 508 b 192 538 164 521 186 538 b 197 532 194 538 197 536 b 169 506 197 528 175 506 z m 311 468 b 282 365 311 426 300 383 b 261 322 271 354 261 335 b 203 207 261 292 203 239 b 182 129 203 193 192 158 b 164 54 169 93 164 69 b 190 31 164 36 172 31 b 300 104 225 31 261 56 b 388 276 332 144 388 254 b 436 403 388 292 436 386 b 476 471 436 411 454 442 b 515 569 508 515 515 532 b 561 701 515 604 526 633 b 615 838 586 750 611 811 b 631 938 622 875 631 907 b 618 950 631 947 628 950 l 617 950 b 567 918 607 950 585 936 b 529 843 544 896 535 875 b 513 779 525 818 518 790 b 476 686 507 768 490 728 b 347 507 444 594 396 526 b 311 475 324 497 311 488 z m 558 865 b 556 871 557 867 556 867 b 568 892 556 879 564 892 b 571 889 569 892 571 892 b 558 865 571 881 564 865 z m 456 550 b 447 535 451 550 447 543 b 351 479 447 521 374 479 b 349 481 349 479 349 479 b 383 506 349 486 365 497 b 429 543 401 514 422 532 b 492 633 457 592 486 633 l 493 633 l 493 632 b 456 550 493 618 465 550 z m 339 457 b 349 461 339 460 342 461 b 358 451 354 461 358 457 b 354 446 358 447 357 446 b 339 457 346 446 339 454 z m 300 296 b 268 250 300 292 285 269 b 231 161 244 224 236 201 b 201 90 225 117 213 90 b 193 100 196 90 193 93 b 201 132 193 107 196 119 b 215 194 208 150 214 176 b 249 267 217 213 231 242 b 281 318 265 289 281 313 b 354 386 281 332 340 386 b 357 385 356 386 357 386 l 357 382 b 300 296 357 368 300 306 z "},"&":{"ha":682,"x_min":0,"x_max":0,"o":"m 357 -29 b 447 -3 388 -29 410 -24 b 486 11 464 6 475 11 b 528 -3 499 11 510 7 b 600 -15 543 -11 572 -15 b 692 14 638 -15 692 -11 b 647 72 692 24 681 39 b 594 140 608 111 594 128 b 601 154 594 146 597 149 b 635 233 606 158 621 196 l 660 303 l 635 328 b 600 354 621 342 604 354 b 553 318 596 354 574 338 l 514 283 l 479 300 b 328 417 429 324 328 401 b 368 456 328 424 347 442 b 425 518 389 469 415 497 b 493 599 435 539 465 574 b 561 735 539 639 561 686 b 544 838 561 769 551 804 b 425 1000 535 890 472 976 b 357 1017 403 1011 386 1017 b 253 1006 333 1017 301 1013 b 143 956 190 996 179 990 b 49 786 96 910 68 861 b 39 736 43 764 39 750 b 54 675 39 719 44 704 b 117 532 82 594 81 603 l 143 479 l 124 457 b 89 374 113 446 97 408 b 58 272 81 339 67 293 b 44 204 49 249 44 226 b 79 96 44 171 57 136 b 114 21 99 61 114 28 b 182 -33 114 -6 131 -18 b 260 -51 226 -46 247 -51 b 286 -42 269 -51 276 -49 b 340 -29 297 -35 321 -29 z m 319 988 b 374 1008 319 994 368 1008 b 388 990 383 1008 388 1003 b 374 975 388 979 385 975 b 319 988 354 975 319 982 z m 239 968 b 169 940 239 958 185 940 b 163 943 165 940 163 940 b 222 978 163 951 213 978 b 239 968 225 978 239 975 z m 99 825 b 86 815 93 819 89 815 b 83 828 83 815 83 819 b 125 901 83 847 114 901 b 128 896 126 901 128 900 b 99 825 128 872 108 835 z m 426 792 b 417 769 426 782 424 774 b 407 742 410 765 407 754 b 417 710 407 729 410 717 b 425 693 422 704 425 699 b 361 653 425 678 401 664 b 308 628 325 643 308 635 b 229 585 308 614 254 585 b 224 586 228 585 225 586 b 204 646 208 590 204 596 b 206 671 204 653 206 661 l 206 681 b 199 781 206 722 203 765 b 194 800 196 789 194 796 b 233 826 194 813 204 815 b 296 843 257 835 285 843 b 343 860 319 843 319 860 b 426 792 379 860 426 832 z m 440 754 b 461 786 440 763 446 771 b 489 808 476 801 485 808 b 503 778 493 808 503 786 b 486 757 503 769 497 764 b 465 728 475 749 465 736 b 463 719 465 722 464 719 b 440 754 458 719 440 747 z m 60 715 b 54 725 57 715 54 719 b 69 775 54 736 60 757 l 86 806 l 100 785 b 110 767 106 776 110 772 b 60 715 110 757 64 715 z m 461 667 b 465 657 464 667 465 663 b 456 647 465 651 461 647 b 449 651 451 647 449 649 b 461 667 449 660 458 667 z m 326 589 b 322 592 324 589 322 590 b 331 607 322 594 325 599 b 351 628 339 621 346 628 b 357 619 354 628 357 625 b 356 611 357 617 356 614 b 326 589 354 599 340 589 z m 392 628 b 397 618 394 628 397 624 b 386 608 397 613 392 608 b 381 613 382 608 381 610 b 392 628 381 619 389 628 z m 157 383 l 122 350 l 122 382 b 154 442 122 406 131 421 b 189 463 169 456 181 463 b 200 450 196 463 200 458 b 157 383 200 425 181 407 z m 272 346 b 269 361 271 346 269 351 b 279 383 269 372 274 383 b 289 376 285 383 289 381 b 272 346 289 374 279 346 z m 215 354 b 254 329 231 354 243 346 b 318 197 285 281 318 214 b 338 164 318 188 326 174 b 358 135 351 151 358 142 b 338 125 358 128 351 125 b 275 138 324 125 303 129 b 186 217 215 156 188 179 b 171 282 186 235 178 265 b 163 310 165 294 163 303 b 215 354 163 331 196 354 z m 376 336 b 368 335 376 335 375 335 b 329 353 360 335 329 343 b 338 354 329 354 331 354 b 376 336 346 354 376 346 z m 74 197 b 69 213 71 197 69 204 b 117 344 69 249 108 344 b 118 335 118 344 118 340 b 74 197 118 283 94 197 z m 610 308 l 610 304 b 599 296 610 299 606 296 b 557 265 590 296 572 282 b 500 238 538 244 519 238 b 476 240 485 238 476 238 b 489 249 476 242 481 244 b 543 293 499 256 525 275 b 592 322 564 313 579 322 b 610 308 600 322 607 318 z m 592 61 b 582 71 586 61 582 65 b 597 81 582 76 589 81 b 608 74 604 81 608 78 b 592 61 608 67 596 61 z "},"'":{"ha":289,"x_min":0,"x_max":0,"o":"m 64 903 b 68 889 64 899 67 894 b 71 858 71 883 71 871 b 60 757 71 829 60 772 b 78 732 60 740 65 735 b 100 686 93 728 100 715 b 99 663 100 679 100 672 l 99 660 b 188 583 99 626 151 583 b 222 644 215 583 222 606 b 210 767 222 675 210 739 b 215 794 210 779 213 789 b 225 853 221 806 225 831 b 132 940 225 908 186 940 b 64 903 107 940 64 926 z m 156 922 b 132 897 156 917 146 906 b 107 863 118 889 107 874 b 97 843 107 851 103 843 b 86 863 90 843 86 851 b 110 915 86 881 96 906 b 146 931 124 925 138 931 b 156 922 153 931 156 928 z m 129 714 b 139 725 129 721 133 725 b 144 704 143 725 144 717 l 144 694 b 128 660 143 678 135 663 b 124 658 126 660 125 658 b 119 664 121 658 119 661 b 129 714 119 676 129 704 z "},"(":{"ha":372,"x_min":0,"x_max":0,"o":"m 38 504 b 24 458 38 489 24 476 b 42 343 24 433 42 369 b 39 328 42 336 40 331 b 32 257 33 315 32 288 b 78 108 32 178 43 147 b 106 38 93 92 103 67 b 172 -75 113 -33 122 -51 b 314 -111 219 -97 276 -111 b 364 -76 342 -111 364 -99 b 321 -21 364 -60 350 -40 b 257 43 297 -6 268 22 b 178 279 232 88 178 247 b 161 333 178 292 169 315 b 150 383 153 350 150 363 b 160 532 150 435 160 475 b 157 640 160 560 158 593 l 157 663 b 196 736 157 697 163 704 b 236 785 218 758 236 779 b 261 819 236 790 247 804 b 286 876 275 835 286 858 b 290 960 286 893 289 931 b 292 979 290 967 292 974 b 263 1068 292 1028 279 1068 b 211 1026 256 1068 232 1049 b 158 953 190 1004 165 969 b 136 921 151 935 142 921 b 131 918 133 921 131 919 b 136 910 131 917 132 914 b 147 889 143 903 147 896 b 114 842 147 876 136 863 b 81 788 94 824 81 800 b 71 760 81 775 76 763 b 28 671 61 754 38 706 b 26 661 26 668 26 665 b 36 622 26 650 31 635 b 50 558 46 604 50 579 b 40 525 50 543 47 529 b 35 515 36 522 35 519 b 38 504 35 511 38 510 z m 250 1039 b 256 1032 254 1039 256 1038 b 206 979 256 1022 215 979 b 203 983 204 979 203 982 b 250 1039 203 1004 238 1039 z m 190 904 b 189 907 189 904 189 906 b 197 942 189 918 197 935 b 206 950 197 947 200 950 b 211 940 208 950 211 946 b 190 904 211 926 201 904 z m 188 868 b 181 872 183 868 181 868 l 181 875 b 189 883 182 881 186 883 b 192 882 190 883 190 883 l 194 882 b 224 907 204 882 213 907 b 232 899 228 907 232 903 b 188 868 232 882 199 868 z m 65 661 b 53 682 57 661 53 674 b 107 771 53 704 74 739 b 161 813 136 799 153 813 b 168 800 167 813 168 808 b 129 756 168 793 150 772 b 90 715 108 739 90 719 b 65 661 90 710 75 661 z m 53 419 b 44 440 49 419 44 435 b 69 483 44 451 51 463 b 92 500 79 494 86 500 b 100 488 96 500 100 496 b 53 419 100 479 65 419 z m 124 258 b 101 221 124 244 117 235 b 69 199 85 206 75 199 b 58 217 64 199 61 204 b 57 224 58 218 57 221 b 108 293 57 243 94 293 b 124 258 117 293 124 275 z "},")":{"ha":344,"x_min":0,"x_max":0,"o":"m 51 1024 b 63 943 51 994 56 961 b 124 779 72 915 124 818 b 122 768 124 775 122 771 b 121 757 122 764 121 761 b 163 668 121 726 139 688 b 174 643 169 663 174 653 b 172 632 174 640 174 635 b 171 624 172 629 171 626 b 207 507 171 593 207 535 b 151 360 207 469 178 392 b 132 318 139 344 132 331 b 133 308 132 315 132 311 b 135 300 133 306 135 303 b 96 193 135 282 122 249 b 44 43 67 131 44 86 l 44 40 b 60 78 46 40 50 53 b 97 151 69 106 86 140 b 163 285 122 179 140 217 b 250 450 189 367 231 446 l 257 450 b 261 446 260 450 261 449 b 254 425 261 442 258 436 b 243 374 249 410 243 386 b 192 310 243 340 199 338 b 132 150 186 289 132 181 l 132 147 b 133 143 132 146 133 144 b 111 111 133 133 125 121 b 72 47 94 100 79 75 b 47 0 65 19 54 0 b 42 14 44 0 42 4 b 39 19 42 18 40 19 b 32 11 38 19 35 17 b 22 -25 25 1 22 -11 b 42 -76 22 -44 29 -64 b 65 -90 51 -86 56 -90 b 119 -57 88 -90 119 -72 b 153 -11 119 -47 135 -28 b 276 233 226 53 265 128 b 300 364 281 279 292 338 b 311 426 307 385 311 408 b 304 488 311 447 304 475 b 311 542 304 500 311 522 b 294 589 311 557 307 569 b 229 738 272 624 257 657 b 218 782 222 758 218 771 b 225 806 218 790 221 797 b 235 857 232 819 235 836 b 219 950 235 882 229 914 b 90 1088 201 1015 133 1088 b 51 1024 51 1088 51 1063 z m 108 993 b 107 990 108 992 107 992 b 93 975 106 981 100 975 b 76 994 85 975 76 982 l 76 996 b 83 1036 78 1024 79 1036 b 108 993 93 1036 108 1001 z "},"*":{"ha":678,"x_min":0,"x_max":0,"o":"m 61 771 b 83 736 61 753 68 742 b 118 714 96 731 111 722 b 169 682 125 706 149 692 l 208 664 l 183 640 b 139 578 169 628 150 599 l 119 538 l 139 517 b 242 464 160 496 201 464 b 331 510 271 464 300 479 b 381 549 351 531 375 549 b 417 511 386 549 403 532 b 492 467 438 479 458 467 b 558 501 526 467 549 472 b 564 524 561 510 564 518 b 486 589 564 550 510 582 b 436 651 451 600 436 618 b 439 675 436 658 438 667 b 511 725 446 721 467 725 b 557 715 532 725 550 722 b 583 707 561 711 572 707 l 590 707 b 615 758 611 710 614 717 l 615 774 b 575 824 615 806 610 808 b 528 835 558 831 543 835 b 456 804 504 835 481 825 b 428 790 444 794 435 790 b 415 803 421 790 415 796 b 421 815 415 807 417 811 b 433 863 428 822 433 843 b 396 928 433 892 426 904 b 319 965 364 953 340 965 b 272 942 303 965 288 957 b 243 857 249 917 244 904 b 228 797 243 818 236 797 b 208 822 222 797 215 806 b 128 878 196 851 156 878 b 61 771 96 878 61 808 z m 351 926 b 286 872 351 908 310 872 b 268 883 274 872 268 876 b 288 918 268 892 274 904 b 331 940 301 933 318 940 b 351 926 339 940 351 936 z m 146 838 l 146 832 b 96 785 146 814 117 785 b 81 793 86 785 81 788 b 100 826 81 800 88 810 b 132 851 113 843 124 851 b 146 838 138 851 142 847 z m 521 807 b 479 778 521 803 501 789 b 381 749 447 761 401 749 b 369 753 374 749 369 750 l 369 756 b 401 765 372 760 386 765 b 463 789 417 765 444 775 b 513 814 483 804 503 814 b 521 807 518 814 521 811 z m 315 794 b 306 785 315 789 311 785 b 296 794 300 785 296 789 b 306 804 296 800 300 804 b 315 794 311 804 315 800 z m 254 624 b 238 601 246 617 238 607 b 164 542 238 590 176 542 b 163 543 163 542 163 543 b 161 550 161 544 161 546 b 211 618 161 585 176 603 b 261 636 236 629 254 636 b 264 635 263 636 264 636 b 254 624 264 633 261 629 z m 239 561 b 229 565 232 561 231 561 b 240 568 229 567 233 568 l 243 568 b 254 565 250 568 254 567 b 239 561 254 563 242 561 z "},"+":{"ha":947,"x_min":0,"x_max":0,"o":"m 447 739 b 422 710 447 731 436 718 b 399 674 408 701 399 686 l 399 669 b 383 579 399 647 392 603 b 382 575 383 578 382 576 b 393 547 382 567 386 557 b 407 496 403 533 407 514 b 338 440 407 454 382 440 b 243 447 311 440 267 447 b 174 432 213 447 190 442 b 168 426 169 429 168 428 b 172 426 168 425 169 426 b 218 431 185 426 204 431 b 288 417 250 431 288 424 b 233 408 283 413 263 410 b 151 381 199 407 178 400 b 104 354 132 365 110 354 b 94 361 97 354 94 357 b 121 392 94 368 104 379 b 140 411 133 401 140 408 b 139 413 140 411 140 413 b 58 344 114 413 58 372 b 101 306 58 331 94 313 b 194 281 119 290 165 286 b 206 279 197 281 201 279 b 254 289 221 279 240 283 b 326 307 272 297 306 306 l 344 307 b 368 288 361 307 365 303 l 368 278 b 361 239 368 265 365 250 b 357 185 358 229 357 208 b 358 144 357 172 357 157 l 364 76 l 408 60 b 449 50 426 53 439 50 b 490 93 468 50 476 61 b 539 288 504 125 529 228 b 576 328 543 318 550 322 b 596 331 583 329 590 331 b 613 326 604 331 611 329 b 736 314 618 318 622 317 l 753 314 b 888 388 844 314 888 338 b 799 474 888 404 828 463 b 646 483 783 479 703 483 b 589 481 618 483 596 483 l 586 481 b 547 492 579 481 563 485 b 515 529 526 501 515 514 b 531 567 515 540 521 553 b 547 644 543 583 547 613 b 522 753 547 683 539 726 b 490 764 518 760 504 764 b 447 739 472 764 447 760 z m 453 496 b 410 421 446 465 432 440 b 364 393 388 401 371 393 b 360 396 361 393 360 394 b 382 425 360 400 367 410 b 422 486 400 443 419 471 b 450 540 432 535 436 540 b 460 529 456 540 460 538 b 453 496 460 522 457 513 z m 793 382 b 760 354 793 368 778 354 b 738 365 744 354 738 357 b 775 401 738 381 763 401 b 793 382 783 401 793 393 z m 422 346 b 443 383 422 364 432 383 b 444 374 444 383 444 379 b 417 238 444 332 432 257 b 399 192 407 225 399 204 b 389 168 399 179 394 168 b 382 201 385 168 382 181 l 382 224 b 408 297 385 267 392 283 b 425 328 419 307 425 317 b 422 346 425 333 422 340 z "},",":{"ha":351,"x_min":0,"x_max":0,"o":"m 71 224 b 63 151 67 217 63 185 b 122 44 63 88 71 71 l 150 31 l 133 -6 b 118 -86 122 -29 118 -58 b 160 -185 118 -137 133 -185 b 257 -115 193 -185 238 -153 b 275 -32 271 -90 275 -74 b 274 17 275 -19 275 -3 l 274 56 b 279 146 274 94 275 131 b 292 208 288 176 292 196 b 260 246 292 228 282 235 b 179 269 228 263 203 269 b 71 224 146 269 81 239 z m 125 218 l 125 215 b 108 186 125 210 118 197 l 88 163 l 83 186 l 83 192 b 111 226 83 211 99 226 b 125 218 117 226 121 224 z m 185 104 b 181 108 182 104 181 106 b 211 139 181 117 201 139 b 219 131 215 139 219 136 b 185 104 219 122 199 104 z m 153 -51 b 211 -18 153 -43 208 -18 b 219 -32 217 -18 219 -22 b 182 -57 219 -47 204 -57 b 153 -51 175 -57 153 -54 z "},"-":{"ha":647,"x_min":0,"x_max":0,"o":"m 318 482 b 235 464 296 482 260 464 b 188 474 222 464 208 467 b 147 485 168 481 156 485 b 115 468 136 485 129 479 b 64 411 86 446 64 422 b 167 354 64 396 139 354 b 226 374 183 354 208 363 b 264 386 242 383 250 386 b 353 368 279 386 303 381 b 508 339 404 356 475 343 b 550 335 528 338 540 335 b 575 356 569 335 571 340 b 579 382 578 365 579 374 b 536 463 579 410 565 433 b 415 507 501 497 475 507 b 318 482 375 507 353 482 z m 404 407 b 385 417 399 407 393 411 b 346 432 374 425 356 432 b 324 439 331 432 324 435 b 435 469 324 456 424 469 b 450 461 444 469 447 467 b 451 458 450 460 451 460 b 404 407 451 446 415 407 z m 251 432 b 250 433 250 432 250 432 b 258 444 250 435 253 438 b 288 461 267 456 279 461 b 299 451 294 461 299 458 b 289 442 299 446 294 442 b 251 432 283 442 260 432 z m 118 418 b 106 431 111 418 106 424 b 146 451 106 442 122 451 l 147 451 b 160 449 156 451 160 451 b 118 418 160 442 128 418 z "},".":{"ha":356,"x_min":0,"x_max":0,"o":"m 61 119 b 60 111 61 117 60 114 b 157 13 60 81 100 40 b 218 -8 185 0 204 -8 b 269 40 239 -8 251 7 b 289 106 282 65 289 88 b 190 196 289 151 238 196 b 61 119 133 196 72 161 z m 131 139 b 113 114 126 139 118 128 b 93 90 107 99 99 90 b 83 114 88 90 83 99 b 143 168 83 147 107 168 l 144 168 b 168 164 161 168 168 167 b 131 139 168 156 133 139 z "},"/":{"ha":501,"x_min":0,"x_max":0,"o":"m 163 468 b 133 365 163 426 151 383 b 113 322 122 354 113 335 b 54 207 113 292 54 239 b 33 129 54 193 43 158 b 15 54 21 93 15 69 b 42 31 15 36 24 31 b 151 104 76 31 113 56 b 239 276 183 144 239 254 b 288 403 239 292 288 386 b 328 471 288 411 306 442 b 367 569 360 515 367 532 b 413 701 367 604 378 633 b 467 838 438 750 463 811 b 481 918 472 865 478 900 b 483 938 482 926 483 933 b 469 950 483 947 479 950 l 468 950 b 418 918 458 950 436 936 b 381 843 396 896 386 875 b 364 779 376 818 369 790 b 328 686 358 768 342 728 b 199 507 296 594 247 526 b 163 475 175 497 163 488 z m 411 865 b 407 871 408 867 407 867 b 421 892 407 878 418 892 b 422 889 422 892 422 892 b 411 865 422 882 415 865 z m 307 550 b 299 535 303 550 299 543 b 204 479 299 521 226 479 b 200 481 201 479 200 479 b 235 506 200 486 217 497 b 281 543 253 514 274 532 b 343 633 308 592 338 633 l 344 633 l 344 632 b 307 550 344 618 317 550 z m 190 457 b 200 461 190 460 193 461 b 210 451 206 461 210 457 b 206 446 210 447 208 446 b 190 457 197 446 190 454 z m 151 296 b 121 250 151 292 138 269 b 82 161 97 224 88 201 b 54 90 76 117 65 90 b 44 100 50 90 44 94 b 53 132 44 107 47 119 b 67 194 60 150 65 176 b 100 267 68 213 82 242 b 132 318 117 289 132 313 b 206 386 132 332 192 386 b 208 385 207 386 208 386 l 208 382 b 151 296 208 368 151 306 z "},":":{"ha":356,"x_min":0,"x_max":0,"o":"m 61 633 b 60 625 61 631 60 628 b 157 526 60 594 100 554 b 218 506 185 514 204 506 b 269 554 239 506 251 521 b 289 619 282 579 289 601 b 190 710 289 665 238 710 b 61 633 133 710 72 675 z m 131 653 b 113 628 126 653 118 642 b 93 604 107 613 99 604 b 83 628 88 604 83 613 b 143 682 83 661 107 682 l 144 682 b 168 678 161 682 168 681 b 131 653 168 669 133 653 z m 61 119 b 60 111 61 117 60 114 b 157 13 60 81 100 40 b 218 -8 185 0 204 -8 b 269 40 239 -8 251 7 b 289 106 282 65 289 88 b 190 196 289 151 238 196 b 61 119 133 196 72 161 z m 131 139 b 113 114 126 139 118 128 b 93 90 107 99 99 90 b 83 114 88 90 83 99 b 143 168 83 147 107 168 l 144 168 b 168 164 161 168 168 167 b 131 139 168 156 133 139 z "},";":{"ha":351,"x_min":0,"x_max":0,"o":"m 61 633 b 60 625 61 631 60 628 b 157 526 60 594 100 554 b 218 506 185 514 204 506 b 269 554 239 506 251 521 b 289 619 282 579 289 601 b 190 710 289 665 238 710 b 61 633 133 710 72 675 z m 131 653 b 113 628 126 653 118 642 b 93 604 107 613 99 604 b 83 628 88 604 83 613 b 143 682 83 661 107 682 l 144 682 b 168 678 161 682 168 681 b 131 653 168 669 133 653 z m 71 224 b 63 151 67 217 63 185 b 122 44 63 88 71 71 l 150 31 l 133 -6 b 118 -86 122 -29 118 -58 b 160 -185 118 -137 133 -185 b 257 -115 193 -185 238 -153 b 275 -32 271 -90 275 -74 b 274 17 275 -19 275 -3 l 274 56 b 279 146 274 94 275 131 b 292 208 288 176 292 196 b 260 246 292 228 282 235 b 179 269 228 263 203 269 b 71 224 146 269 81 239 z m 125 218 l 125 215 b 108 186 125 210 118 197 l 88 163 l 83 186 l 83 192 b 111 226 83 211 99 226 b 125 218 117 226 121 224 z m 185 104 b 181 108 182 104 181 106 b 211 139 181 117 201 139 b 219 131 215 139 219 136 b 185 104 219 122 199 104 z m 153 -51 b 211 -18 153 -43 208 -18 b 219 -32 217 -18 219 -22 b 182 -57 219 -47 204 -57 b 153 -51 175 -57 153 -54 z "},"<":{"ha":532,"x_min":0,"x_max":0,"o":"m 376 682 b 314 596 376 667 356 638 b 196 528 254 536 249 533 b 17 358 97 518 17 449 b 46 297 17 338 24 325 b 176 179 114 211 147 179 b 179 181 178 179 178 181 l 181 181 b 311 114 211 181 297 138 b 485 61 325 92 424 61 b 543 67 517 61 543 64 b 443 215 543 83 461 204 b 382 228 432 222 406 228 l 368 228 b 321 235 347 228 326 231 b 253 361 296 251 253 318 b 276 375 253 372 258 374 b 325 424 297 378 308 389 b 446 561 346 468 383 513 b 504 682 479 588 504 643 b 442 731 504 721 482 731 b 376 682 406 731 376 713 z m 471 689 b 465 688 471 688 469 688 b 415 679 453 688 431 679 b 406 690 408 679 406 682 b 425 706 406 700 413 706 b 471 689 429 706 471 697 z m 371 596 b 294 510 347 569 314 533 b 233 490 283 496 265 490 b 161 471 204 490 179 483 b 104 440 146 460 119 446 b 54 364 75 431 54 399 b 44 344 54 353 50 344 b 35 369 38 344 35 356 b 47 421 35 386 39 406 b 208 514 69 463 144 507 b 303 564 263 519 271 525 b 360 611 322 588 347 608 b 386 617 371 614 383 615 b 371 596 386 615 381 606 z m 449 183 b 428 140 449 175 432 140 b 426 156 426 140 426 146 b 407 183 426 175 421 183 b 350 171 394 183 365 171 b 311 181 339 171 328 174 l 274 196 l 326 196 b 374 201 349 196 371 199 b 386 204 375 203 379 204 b 449 183 404 204 449 197 z "},"=":{"ha":656,"x_min":0,"x_max":0,"o":"m 581 260 b 561 256 581 257 575 256 b 522 238 547 256 529 247 b 350 178 506 215 399 178 b 324 182 332 178 324 179 b 364 197 324 192 354 197 b 490 251 389 197 450 224 b 538 282 508 264 529 274 l 533 282 b 444 247 504 282 472 268 b 365 218 418 228 390 218 b 299 244 342 218 319 228 b 253 264 281 260 272 264 b 128 251 217 264 160 253 b 86 217 92 249 89 246 b 85 207 86 214 85 210 b 261 114 85 151 138 124 b 317 111 285 113 303 111 b 369 122 343 111 357 114 b 469 149 382 131 428 143 b 632 226 571 163 632 190 b 574 289 632 256 608 281 b 560 292 567 290 563 292 b 557 290 558 292 557 292 b 581 260 557 289 581 263 z m 167 217 b 138 207 164 211 150 207 b 114 217 125 207 114 211 b 143 226 114 222 126 226 b 168 219 158 226 168 224 b 167 217 168 218 167 218 z m 111 550 b 61 526 86 550 78 543 b 26 463 38 503 26 481 b 110 413 26 432 56 413 b 167 421 138 413 164 417 b 196 436 169 425 183 433 b 322 490 228 443 283 490 b 363 478 338 490 350 486 b 542 426 376 469 510 426 b 569 436 553 426 560 431 b 600 499 590 450 600 471 b 594 539 600 511 599 525 b 536 589 585 572 578 578 b 485 601 513 596 490 601 l 483 601 b 465 614 479 601 471 607 b 422 626 458 622 443 626 b 293 593 379 626 324 613 b 178 546 238 557 217 546 b 111 550 160 546 126 550 z m 475 549 b 451 540 475 543 464 540 b 422 549 439 540 426 543 b 410 554 419 553 415 554 b 394 551 404 554 400 551 b 353 575 378 551 353 565 l 353 579 b 367 588 357 585 360 588 b 475 549 376 588 475 560 z m 240 514 b 194 488 240 501 214 488 b 181 492 189 488 185 489 b 138 500 171 497 154 500 b 85 489 117 500 97 496 b 67 482 78 485 71 482 b 58 490 61 482 58 485 b 64 510 58 494 60 501 b 118 528 72 525 79 528 l 158 528 b 240 514 210 526 240 521 z "},">":{"ha":461,"x_min":0,"x_max":0,"o":"m -3 674 b 15 610 -3 661 3 643 b 81 539 35 554 47 539 b 256 401 129 539 239 453 b 257 396 256 400 257 399 b 89 197 257 347 132 197 b 50 118 60 197 50 178 l 50 115 b 75 54 50 74 58 54 b 113 74 85 54 97 61 b 163 104 129 88 151 101 b 192 144 174 107 185 125 b 264 207 201 174 213 185 b 361 240 297 222 340 236 b 429 351 408 249 429 281 b 422 442 429 376 426 406 b 385 522 417 485 408 501 b 268 589 339 560 318 551 b 213 618 246 606 221 618 b 151 657 204 618 176 636 b 44 715 106 696 71 715 b -3 674 24 715 -3 694 z m 100 663 b 81 643 100 650 92 643 b 44 672 64 643 44 657 b 68 686 44 682 56 686 b 100 663 83 686 100 681 z m 197 589 b 221 579 210 589 221 586 b 236 569 221 574 228 569 b 319 529 256 569 319 539 b 315 526 319 528 318 526 b 293 535 311 526 303 529 b 222 556 278 542 247 551 b 165 572 179 561 165 565 b 197 589 165 585 182 589 z m 182 208 b 140 164 176 197 158 179 b 110 144 125 151 115 144 b 106 149 107 144 106 146 b 139 193 106 156 117 174 b 185 225 164 215 179 225 b 188 222 186 225 188 224 b 182 208 188 219 186 215 z "},"?":{"ha":525,"x_min":0,"x_max":0,"o":"m 158 101 b 140 43 158 86 151 61 b 126 15 131 28 126 21 b 165 -6 126 6 153 -6 b 250 31 185 -6 210 6 b 296 81 279 49 296 68 b 201 133 296 108 249 133 b 158 101 175 133 158 129 z m 257 99 b 247 93 257 96 253 93 b 231 96 242 93 236 96 b 207 74 221 96 215 90 b 164 42 197 53 182 42 b 160 43 161 42 160 42 b 172 64 160 46 165 53 b 189 104 182 78 189 96 b 204 118 189 114 193 118 b 257 99 214 118 257 110 z m 192 238 b 253 290 210 238 229 256 b 299 354 271 318 292 346 b 349 442 319 379 342 417 b 399 513 351 456 375 488 b 444 592 431 547 443 568 b 465 732 449 676 451 706 b 476 783 472 746 476 764 b 421 925 476 831 456 885 b 403 953 411 936 403 949 b 243 997 403 976 311 997 b 183 988 218 997 196 994 b 36 832 151 969 54 867 b 25 796 29 817 25 807 b 31 764 25 788 26 778 b 74 725 40 731 46 725 b 122 744 92 725 113 733 b 169 799 146 772 151 761 b 222 828 182 824 189 828 l 228 828 b 299 813 251 828 283 821 b 329 735 325 799 328 794 b 339 656 331 700 335 665 b 340 647 340 653 340 650 b 250 550 340 622 267 560 b 149 397 221 535 169 421 b 126 338 133 381 126 360 b 192 238 126 301 158 238 z m 176 919 b 115 844 158 900 132 867 b 74 804 99 822 81 804 b 65 810 68 804 65 806 b 142 906 65 824 93 857 b 204 957 176 939 199 957 b 206 957 206 957 206 958 b 176 919 206 953 197 942 z m 264 950 b 240 942 256 944 247 942 b 228 950 233 942 228 944 b 253 958 228 954 239 958 b 269 954 264 958 269 957 b 264 950 269 953 267 953 z m 403 872 b 413 864 408 872 413 869 b 389 824 413 844 401 824 b 368 842 376 824 368 832 b 403 872 368 860 390 872 z m 408 731 b 376 715 408 721 397 715 b 356 724 361 715 356 718 b 383 764 356 735 374 764 b 408 731 392 764 408 743 z m 374 603 b 354 571 364 592 354 576 b 333 549 354 564 344 556 b 290 488 322 542 303 515 b 171 365 268 439 196 365 l 168 365 b 167 369 167 365 167 368 b 192 414 167 376 176 394 b 242 488 211 439 233 472 b 293 556 250 503 272 535 b 358 629 314 576 343 608 b 396 665 376 653 389 665 b 401 658 399 665 401 663 b 374 603 401 639 386 617 z "},"@":{"ha":1250,"x_min":0,"x_max":0,"o":"m 728 943 b 689 946 715 943 699 946 b 674 939 679 946 674 943 b 690 915 674 935 690 921 b 676 911 690 913 686 911 b 649 904 665 911 653 908 b 524 874 633 889 571 874 l 508 874 b 433 849 475 874 460 868 b 382 818 414 833 392 819 b 289 789 360 814 311 799 b 279 788 285 788 282 788 b 271 793 275 788 271 789 b 318 824 271 799 293 813 b 418 872 343 833 389 857 b 492 896 451 890 469 896 b 535 893 504 896 521 893 b 588 906 554 893 571 897 b 644 931 606 914 632 925 b 660 939 656 935 660 938 b 647 940 660 940 656 940 b 590 922 636 940 611 932 b 519 907 569 913 544 907 l 508 907 b 496 908 504 907 500 908 b 419 888 469 908 447 901 b 331 851 394 875 354 858 b 74 682 279 836 90 711 b 46 492 61 660 46 543 b 56 424 46 460 56 460 b 83 365 56 400 64 383 b 144 224 121 329 144 276 b 167 153 144 192 150 172 b 222 4 192 122 222 40 b 263 -76 222 -24 249 -76 b 326 -131 268 -76 297 -101 b 481 -207 376 -181 431 -207 b 606 -161 531 -207 565 -178 b 658 -117 626 -151 649 -135 b 668 -90 665 -104 668 -96 b 649 -64 668 -82 661 -75 b 535 0 592 -12 571 0 b 482 -3 519 0 497 -3 b 376 67 438 -3 417 13 b 282 229 324 136 328 129 b 247 335 257 285 247 311 b 249 347 247 339 249 343 b 250 363 250 353 250 357 b 228 432 250 382 243 403 b 203 493 214 460 203 488 b 231 539 203 499 215 519 b 271 608 246 558 264 589 b 319 667 278 629 299 653 b 396 726 339 681 372 707 b 582 799 433 757 496 781 b 629 824 599 801 619 814 b 672 844 642 838 656 844 b 783 783 701 844 739 825 b 829 756 804 764 815 756 b 883 768 840 756 867 768 b 938 749 896 768 911 763 b 1014 661 990 721 1014 694 l 1014 656 b 1013 653 1014 654 1013 654 b 1039 429 1013 597 1033 485 b 1053 374 1042 397 1049 374 b 1078 315 1063 374 1078 333 b 994 239 1078 267 1046 239 b 933 244 978 239 958 240 b 926 263 929 244 926 254 b 893 332 926 271 911 301 b 854 450 868 374 854 419 b 864 482 854 465 857 476 b 878 511 872 489 878 500 b 850 557 878 528 868 544 b 800 581 826 574 813 581 b 758 558 788 581 775 574 b 713 531 738 540 722 531 b 701 550 706 531 701 538 b 682 589 701 561 693 578 b 663 622 671 600 663 614 b 640 643 663 631 653 640 b 632 644 638 643 635 644 b 515 604 603 644 538 622 b 454 574 507 597 481 583 b 378 494 411 557 404 551 b 351 406 360 456 351 431 b 374 329 351 382 358 360 b 399 258 388 301 399 271 b 518 129 399 210 474 129 b 565 163 525 129 547 144 b 618 197 583 181 607 197 b 663 213 629 197 649 204 b 717 226 676 219 700 226 l 747 226 l 753 163 b 794 82 758 101 765 82 b 814 85 800 82 807 83 b 910 94 831 88 874 92 b 1117 210 1013 101 1043 119 b 1176 304 1161 264 1176 288 b 1175 310 1176 307 1175 307 b 1174 319 1174 313 1174 315 b 1185 363 1174 332 1178 350 b 1206 474 1193 379 1203 428 b 1225 657 1211 576 1219 647 b 1226 661 1226 658 1226 660 b 1110 778 1226 685 1158 754 b 1029 849 1068 797 1049 814 b 919 921 1004 893 961 921 b 876 940 910 921 890 929 b 819 958 861 953 840 958 b 728 943 789 958 765 943 z m 807 883 b 781 889 792 883 781 885 b 828 931 781 903 815 931 b 839 921 833 931 839 928 b 858 911 839 915 847 911 b 878 903 871 911 878 907 b 807 883 878 888 825 883 z m 904 908 b 938 901 915 908 929 901 b 946 892 943 901 946 897 b 917 882 946 886 933 882 b 888 893 897 882 888 886 b 904 908 888 899 894 908 z m 1097 739 b 1056 721 1097 725 1074 721 b 1035 746 1039 721 1035 728 b 1063 765 1035 760 1049 765 b 1097 739 1079 765 1097 757 z m 164 717 b 142 685 164 713 154 697 b 99 632 129 671 110 647 l 79 604 l 79 631 b 110 690 79 646 90 669 b 157 725 131 713 149 725 b 164 717 161 725 164 722 z m 1138 721 b 1151 710 1144 721 1151 717 b 1136 706 1151 707 1144 706 b 1126 713 1129 706 1126 708 b 1138 721 1126 718 1133 721 z m 275 690 b 274 692 274 690 274 692 b 272 696 272 693 272 694 b 293 715 272 704 283 715 b 297 713 296 715 297 714 b 275 690 297 706 281 690 z m 1068 638 b 1043 600 1068 624 1051 600 b 1035 643 1036 600 1035 614 b 1043 685 1035 672 1038 685 b 1068 638 1050 685 1068 653 z m 621 611 l 621 610 b 596 594 621 604 610 597 b 475 536 565 588 518 565 b 444 524 463 528 451 524 b 438 529 440 524 438 526 b 444 540 438 532 439 535 b 608 624 460 556 594 624 b 621 611 613 622 619 617 z m 1049 535 b 1046 550 1047 535 1046 540 b 1049 565 1046 560 1047 565 b 1053 550 1051 565 1053 554 b 1049 535 1053 543 1053 539 z m 810 536 b 701 422 810 517 719 422 b 682 431 689 422 682 425 b 731 492 682 440 697 457 b 801 549 768 531 790 549 b 810 536 807 549 810 544 z m 1050 479 b 1060 521 1050 497 1054 521 b 1064 483 1063 521 1064 503 b 1057 456 1064 465 1061 456 b 1050 479 1051 456 1050 469 z m 633 400 b 532 315 633 379 557 315 b 467 371 486 315 467 331 b 507 450 467 401 474 417 b 560 490 529 472 554 490 b 633 400 572 490 633 411 z m 96 464 b 107 461 96 463 99 461 b 125 453 117 461 125 458 b 151 435 125 449 136 440 l 178 424 l 149 422 b 124 421 139 421 131 421 b 79 444 92 421 79 428 b 104 481 79 461 90 481 b 114 479 111 481 114 481 b 96 464 114 476 96 465 z m 440 294 b 465 285 446 294 454 292 b 478 282 468 283 472 282 b 628 358 510 282 578 315 b 679 393 654 382 672 393 b 682 389 682 393 682 392 b 582 299 682 358 656 335 b 438 243 506 261 460 243 b 419 258 425 243 419 249 b 440 294 419 275 428 294 z m 800 146 b 790 129 800 136 796 129 b 785 186 786 129 785 154 b 789 258 785 211 786 238 b 794 267 789 264 792 267 b 813 238 801 267 813 251 l 813 236 b 800 146 810 210 800 171 z m 289 118 l 289 115 b 276 104 289 108 285 104 l 274 104 b 251 129 256 106 251 111 b 263 138 251 135 257 138 b 289 118 272 138 286 129 z m 490 -33 b 518 -18 490 -22 507 -18 b 535 -26 528 -18 535 -21 b 506 -44 535 -36 518 -44 b 490 -33 499 -44 490 -39 z m 560 -37 b 565 -47 563 -37 565 -42 b 554 -57 565 -53 560 -57 b 549 -53 550 -57 549 -56 b 560 -37 549 -46 557 -37 z m 506 -67 b 496 -82 506 -72 501 -78 b 456 -135 485 -87 471 -135 b 447 -121 451 -135 447 -131 b 456 -106 447 -112 451 -106 b 475 -82 460 -106 469 -96 b 500 -57 482 -67 493 -57 b 506 -67 504 -57 506 -60 z "},"A":{"ha":721,"x_min":0,"x_max":0,"o":"m 49 6 b 128 61 75 6 111 28 b 208 118 146 99 172 118 b 272 108 228 118 254 108 b 335 129 289 108 304 115 b 443 154 372 147 403 154 b 522 122 494 154 500 153 b 558 64 535 104 551 79 b 683 -24 572 38 658 -24 b 707 46 699 -24 707 8 b 689 132 707 76 700 110 b 649 217 683 142 665 181 b 594 311 632 253 607 296 b 535 468 557 356 535 415 b 544 524 535 488 539 507 b 558 599 554 551 558 575 b 544 672 558 622 554 646 b 535 724 538 692 535 707 b 544 818 535 750 544 792 b 453 958 544 885 514 931 b 415 971 433 967 422 971 b 397 960 408 971 404 968 b 314 788 365 922 328 846 b 243 624 293 701 271 706 b 188 515 232 590 207 540 b 153 460 168 490 153 465 b 118 382 153 454 138 419 b 83 294 99 344 83 306 b 60 247 83 283 72 263 b 13 89 26 206 13 168 b 49 6 13 47 13 6 z m 465 929 l 465 926 b 447 918 465 922 458 918 b 390 872 431 918 414 906 b 356 839 374 849 361 839 b 351 844 353 839 351 840 b 375 897 351 854 360 872 b 429 939 396 931 406 939 b 465 929 444 939 463 935 z m 453 763 b 469 751 463 763 469 760 b 431 718 469 747 453 732 l 390 692 l 390 714 b 453 763 390 738 426 763 z m 179 382 b 106 286 179 371 124 286 b 103 290 104 286 103 288 b 129 351 103 299 111 321 b 157 408 144 378 157 403 b 213 529 158 436 188 500 b 249 589 228 547 244 574 b 317 693 260 632 303 693 b 321 685 319 693 321 690 l 321 683 b 292 632 321 679 308 656 b 261 560 275 608 261 575 b 232 506 261 540 253 524 b 179 390 206 483 179 425 z m 333 583 b 346 588 333 586 339 588 b 379 579 357 588 372 585 b 390 531 386 574 390 551 b 399 492 390 510 394 492 b 435 428 408 492 429 456 b 475 315 438 411 475 343 b 403 279 475 293 454 286 b 333 263 372 275 340 268 b 319 258 331 260 325 258 b 261 288 297 258 261 274 b 278 343 261 293 269 318 b 297 421 286 368 294 403 b 333 579 304 468 333 526 z m 494 592 b 500 582 497 592 500 588 b 489 571 500 576 494 571 b 483 576 485 571 483 574 b 494 592 483 583 492 592 z m 222 214 b 182 165 222 192 200 165 b 163 172 169 165 163 167 b 183 201 163 178 169 186 b 215 224 197 217 208 224 b 222 214 219 224 222 221 z m 628 167 b 604 154 628 160 618 154 b 578 176 588 154 578 164 b 600 207 578 185 588 207 b 628 167 613 207 628 178 z "},"B":{"ha":661,"x_min":0,"x_max":0,"o":"m 268 1058 b 169 988 260 1047 176 988 b 90 913 161 988 90 921 b 74 888 90 908 82 897 b 64 857 67 881 64 872 b 90 715 64 833 72 794 b 100 633 96 694 100 658 l 100 506 b 90 408 100 465 96 422 b 81 356 85 394 81 371 b 65 300 81 342 74 315 b 46 101 53 276 46 179 b 53 8 46 60 47 24 b 111 -42 63 -22 89 -42 b 128 -37 117 -42 122 -40 b 263 -26 140 -31 203 -26 b 367 -33 307 -26 349 -28 b 390 -36 372 -35 381 -36 b 504 -11 428 -36 483 -25 b 535 39 511 -7 525 17 b 592 133 544 63 571 104 b 624 214 614 165 624 182 b 608 324 624 238 618 269 b 511 463 597 385 551 449 b 478 490 489 469 478 481 b 494 506 478 497 482 501 b 606 722 531 517 606 663 b 593 758 606 735 600 749 b 567 818 586 767 574 794 b 472 929 553 861 496 929 b 418 985 458 929 418 971 b 333 1076 418 997 344 1076 l 332 1076 b 268 1058 321 1074 274 1067 z m 247 999 b 242 1001 243 999 242 1000 b 249 1011 242 1004 244 1006 b 315 1040 258 1024 290 1040 b 339 1029 329 1040 339 1036 b 247 999 339 1011 276 999 z m 144 915 b 104 839 144 894 117 839 b 92 856 96 839 92 846 b 133 928 92 875 115 928 b 144 915 139 928 144 924 z m 217 657 b 226 732 217 692 221 725 b 232 768 231 736 232 750 b 225 869 232 797 225 843 b 226 886 225 878 225 883 b 299 910 232 896 274 910 b 429 868 340 910 394 893 b 456 831 450 854 456 847 b 432 728 456 797 442 747 b 418 692 424 713 418 697 b 322 592 418 681 332 592 b 289 571 319 592 304 582 b 254 557 276 561 264 557 b 217 657 217 557 217 611 z m 517 844 b 467 750 517 825 478 750 b 458 758 461 750 458 751 b 483 847 458 774 479 836 b 500 860 486 856 493 860 b 517 844 508 860 517 854 z m 482 711 b 467 689 482 706 476 700 b 411 624 456 676 431 647 b 317 554 381 588 333 554 b 311 556 314 554 313 554 l 311 557 b 347 588 311 561 326 574 b 431 696 386 614 399 631 b 460 733 443 724 451 733 b 482 711 467 733 482 718 z m 156 549 b 143 501 156 531 146 517 b 110 393 132 440 118 393 b 100 403 104 393 100 396 b 110 436 100 410 104 419 b 136 586 121 464 125 560 b 143 597 139 593 142 597 b 156 549 149 597 156 560 z m 315 532 b 318 503 317 532 318 518 b 288 457 318 481 311 469 b 251 446 274 450 261 446 b 233 460 240 446 233 451 b 315 532 233 478 304 532 z m 407 106 b 351 111 389 106 371 111 b 238 90 317 111 265 103 b 229 89 235 89 232 89 b 192 190 207 89 192 129 b 208 307 192 229 201 300 b 219 335 214 313 219 326 b 249 358 219 351 228 358 b 328 343 265 358 292 353 b 400 331 353 336 385 332 b 467 238 433 329 451 304 b 474 189 471 217 474 201 b 407 106 474 142 449 106 z m 521 288 b 517 303 518 288 517 292 b 507 324 517 315 513 324 b 504 326 506 324 504 325 b 535 357 504 336 529 357 b 547 328 543 357 547 346 b 521 288 547 313 536 288 z m 106 158 b 83 115 106 138 94 115 b 72 131 76 115 72 121 b 79 176 72 144 79 172 b 88 185 79 182 83 185 b 106 158 97 185 106 171 z "},"C":{"ha":607,"x_min":0,"x_max":0,"o":"m 31 539 b 15 432 31 494 26 468 b 14 428 15 431 14 429 b 47 346 14 413 25 385 b 96 219 74 301 90 258 b 226 3 107 147 183 21 b 286 -8 244 -4 265 -8 b 531 106 385 -8 467 74 b 575 188 556 118 575 156 b 538 224 575 213 567 224 b 460 204 518 224 490 218 b 335 182 429 190 388 183 l 256 179 l 228 229 b 199 294 213 257 199 286 b 178 349 199 303 189 328 b 158 408 167 369 158 397 b 143 463 158 438 143 436 b 171 543 143 485 153 514 b 213 628 186 568 206 606 b 278 807 235 689 263 733 b 319 876 286 857 293 876 b 347 828 338 876 347 860 b 496 704 347 783 446 704 b 542 765 528 704 542 733 b 488 888 542 803 522 850 b 446 939 468 907 450 931 b 353 978 439 953 378 978 l 351 978 b 278 960 347 978 313 969 b 197 915 228 947 210 938 b 140 867 188 900 163 879 b 54 724 79 833 61 803 b 31 549 49 643 31 625 z m 296 933 b 292 935 293 933 292 933 b 303 944 292 936 296 940 b 336 958 314 953 328 958 b 347 950 343 958 347 956 b 296 933 347 943 310 933 z m 374 869 b 368 878 369 869 368 874 b 394 899 368 888 381 899 b 406 896 401 899 406 899 b 374 869 406 890 379 869 z m 417 844 b 390 808 417 825 403 808 b 381 813 388 808 383 810 l 381 814 b 414 868 381 824 407 867 b 417 844 415 868 417 858 z m 125 742 b 88 686 111 726 94 703 l 75 656 l 72 688 b 71 694 72 690 71 692 b 124 779 71 729 94 768 b 139 783 129 782 135 783 b 147 776 144 783 147 781 b 125 742 147 769 139 757 z m 54 597 b 81 651 54 613 71 651 b 89 638 85 651 89 644 b 58 592 89 621 68 592 b 54 597 56 592 54 592 z m 79 397 b 69 393 79 394 75 393 b 60 403 64 393 60 397 b 64 410 60 407 61 410 b 79 397 72 410 79 400 z m 192 136 b 185 124 192 131 190 124 b 149 160 176 124 149 157 b 157 165 149 163 151 165 b 192 136 172 165 192 154 z m 268 135 b 253 125 268 129 261 125 b 238 135 244 125 238 129 b 253 144 238 140 244 144 b 268 135 261 144 268 140 z m 311 119 l 310 119 b 307 125 308 121 307 124 b 329 144 307 133 319 144 b 333 142 332 144 333 143 b 311 119 333 135 317 119 z "},"D":{"ha":642,"x_min":0,"x_max":0,"o":"m 156 1015 b 125 1008 142 1015 128 1013 b 113 999 121 1001 117 999 b 103 1011 107 999 103 1003 b 104 1018 103 1014 104 1015 b 106 1026 106 1022 106 1024 b 103 1032 106 1031 104 1032 b 79 990 99 1032 79 1008 b 88 964 79 981 82 972 b 100 924 96 951 100 938 b 88 886 100 910 97 896 b 75 824 79 876 75 860 l 75 772 b 71 681 75 738 74 700 b 68 651 69 669 68 660 b 82 596 68 632 72 618 b 100 518 93 571 100 546 b 47 293 100 458 56 346 b 33 236 43 268 38 243 b 31 224 32 233 31 229 b 65 100 31 196 46 136 b 82 49 74 83 82 61 b 92 1 82 36 86 15 b 140 -24 100 -19 107 -24 b 242 7 179 -24 188 -21 b 400 129 344 61 382 90 b 418 186 411 151 418 176 b 450 226 418 196 433 214 b 500 292 467 239 489 269 b 565 374 511 314 540 351 b 614 475 610 413 611 415 b 624 589 615 522 624 554 b 572 779 624 644 597 742 b 547 824 558 799 547 819 b 528 858 547 828 539 843 b 501 913 518 872 506 897 b 397 975 494 942 436 975 b 374 972 390 975 381 972 b 336 999 361 972 351 981 b 218 1065 313 1026 243 1065 l 215 1065 b 161 1051 210 1065 186 1058 l 117 1038 l 163 1040 l 179 1040 b 210 1036 197 1040 210 1039 b 164 1015 210 1025 190 1015 z m 138 903 b 131 914 133 903 131 907 b 140 929 131 922 135 929 b 151 919 146 929 151 925 b 138 903 151 915 144 903 z m 238 479 b 222 524 238 494 233 507 b 199 651 207 547 199 601 b 211 736 199 685 203 717 b 219 769 217 750 219 758 b 211 807 219 779 217 792 b 197 869 201 838 197 856 b 239 914 197 893 215 914 b 300 893 254 914 275 907 b 365 861 314 885 343 872 b 415 783 406 842 415 829 b 414 756 415 775 414 767 l 414 744 b 429 658 414 717 419 685 b 447 579 440 628 447 600 b 438 544 447 564 444 551 b 422 461 432 539 425 501 b 404 374 419 421 411 382 b 381 318 397 365 386 340 b 338 224 375 296 356 253 b 265 169 307 172 303 169 l 225 169 l 226 229 b 229 328 228 263 228 306 b 231 353 229 335 231 344 b 229 393 231 368 231 385 b 228 401 229 396 228 399 b 238 479 228 425 238 456 z m 439 713 b 443 739 439 719 440 728 b 471 767 447 761 451 767 l 486 767 b 526 751 506 765 524 758 b 444 704 526 740 463 704 b 439 713 440 704 439 707 z m 99 651 b 90 661 93 651 90 654 b 114 708 90 674 100 693 l 136 732 l 139 704 b 140 696 139 701 140 699 b 99 651 140 674 117 651 z m 485 635 b 478 646 481 635 478 639 b 488 661 478 654 482 661 b 499 651 493 661 499 657 b 485 635 499 647 492 635 z m 504 564 b 461 418 494 531 467 461 b 442 363 458 396 450 371 b 432 356 438 358 433 356 b 429 361 431 356 429 358 b 433 388 429 367 431 374 b 443 463 438 410 442 443 b 494 582 447 511 476 582 b 506 571 501 582 506 578 b 504 564 506 568 506 567 z m 88 324 b 82 332 83 324 82 326 b 103 353 82 343 92 353 b 106 347 106 353 106 351 b 88 324 106 335 94 324 z m 364 160 b 225 75 358 135 251 75 b 211 88 217 75 211 81 l 211 92 b 292 144 214 110 221 113 b 350 200 328 161 340 174 b 371 233 358 222 365 233 b 375 224 374 233 375 231 b 364 160 375 203 368 175 z m 140 144 b 131 161 135 144 131 153 b 146 182 131 169 138 182 b 156 168 151 182 156 176 b 140 144 156 157 146 144 z "},"E":{"ha":586,"x_min":0,"x_max":0,"o":"m 582 36 b 563 97 582 57 575 78 b 490 139 543 128 533 133 b 390 147 449 144 415 147 b 333 135 360 147 340 143 b 264 99 321 119 279 99 b 258 106 260 99 258 100 b 274 218 258 131 274 186 b 260 360 274 250 260 329 b 299 436 260 393 276 436 b 347 403 311 436 326 425 b 419 363 374 375 396 363 b 450 369 429 363 439 365 b 464 399 460 374 464 385 b 446 453 464 415 458 436 b 425 494 435 467 425 485 b 350 549 425 519 383 549 b 342 547 347 549 344 547 b 253 533 292 538 267 533 b 228 550 238 533 233 539 b 203 618 221 563 210 593 b 194 657 197 635 194 646 b 218 724 194 674 201 689 b 339 829 247 783 250 786 b 446 871 388 853 433 871 l 453 871 b 538 940 479 871 538 906 b 517 972 538 950 532 958 b 431 1004 496 992 458 1004 b 400 994 417 1004 406 1001 b 313 942 369 961 338 942 b 304 943 310 942 307 943 b 215 953 289 946 250 950 l 153 960 l 99 914 b 38 869 69 889 40 869 b 25 833 29 869 25 851 b 29 808 25 824 26 814 b 75 779 35 799 56 786 b 107 756 99 771 107 768 b 103 736 107 750 104 744 b 92 660 96 704 92 679 b 107 596 92 636 97 619 b 122 524 117 574 122 553 b 99 363 122 488 115 439 b 74 168 89 315 76 229 l 68 57 l 107 18 b 169 -17 135 -10 144 -17 b 290 8 208 -17 269 -6 b 324 22 304 17 313 22 b 413 -10 350 22 397 0 b 511 -31 432 -22 476 -31 b 582 36 561 -31 582 -10 z m 67 843 b 60 850 63 843 60 844 b 61 863 60 853 60 858 b 119 911 64 869 90 892 b 188 943 154 935 167 943 b 222 939 197 943 207 942 b 310 929 257 933 286 929 b 364 943 339 929 358 933 b 454 979 375 963 425 979 b 475 969 467 979 475 976 b 433 947 475 964 456 953 b 374 918 411 942 383 928 b 329 900 363 906 351 900 b 249 910 313 900 288 903 b 199 917 225 914 210 917 b 157 900 182 917 172 911 b 122 879 142 889 126 879 b 67 843 115 879 79 843 z m 122 685 b 118 699 119 685 118 689 b 158 779 118 724 146 779 b 164 775 161 779 164 778 b 158 761 164 772 161 767 b 149 722 153 750 149 733 b 122 685 149 710 136 685 z m 376 494 b 363 486 376 489 372 486 b 289 500 357 486 289 496 b 293 501 289 500 290 501 b 326 517 306 501 319 508 b 346 529 333 525 340 529 b 376 494 354 529 376 510 z m 224 247 b 200 219 224 236 217 229 b 138 160 185 211 156 183 b 96 115 119 136 100 115 b 89 128 92 115 89 119 b 144 256 89 158 119 235 b 213 290 157 267 204 290 l 214 290 b 224 247 214 290 224 257 z m 500 81 b 460 103 483 81 460 93 b 486 115 460 113 476 115 b 518 101 500 115 514 111 b 519 96 518 100 519 97 b 500 81 519 86 513 81 z m 263 46 b 247 56 254 46 247 49 b 318 94 247 68 296 94 l 319 94 b 342 85 328 94 339 90 b 343 82 342 83 343 83 b 328 75 343 78 336 75 b 263 46 301 75 288 46 z "},"F":{"ha":471,"x_min":0,"x_max":0,"o":"m 24 867 b 40 828 24 854 29 843 b 107 665 60 803 94 715 b 114 582 111 646 114 615 b 108 492 114 553 113 519 b 82 228 101 433 94 282 b 76 183 78 211 76 193 b 78 175 76 179 76 176 b 83 92 81 171 83 133 b 133 -7 85 14 90 3 b 149 -10 140 -8 144 -10 b 167 17 160 -10 163 -4 b 192 79 171 33 181 61 b 236 250 222 131 236 183 b 232 350 236 279 232 326 b 244 396 232 376 235 386 b 269 411 256 406 263 411 b 301 390 278 411 286 404 b 381 343 326 367 365 343 b 449 417 392 343 449 404 b 433 457 449 421 442 439 b 375 496 421 485 413 490 b 257 535 315 507 308 518 b 204 622 218 547 204 569 b 206 665 204 635 204 649 b 250 779 214 751 219 767 b 311 825 265 786 293 806 b 367 860 329 844 354 860 b 394 869 379 860 392 864 b 435 893 397 875 415 885 b 476 940 461 904 476 922 b 403 988 476 972 436 988 b 282 935 356 988 307 957 b 232 919 271 925 250 919 b 189 933 214 919 199 924 b 129 956 174 949 151 956 b 24 867 81 956 24 918 z m 119 939 b 132 929 126 939 132 936 b 119 918 132 924 126 918 b 85 897 113 918 97 910 b 60 882 74 886 65 882 b 56 886 57 882 56 883 b 119 939 56 908 101 939 z m 108 843 b 99 839 108 840 106 839 b 82 854 90 839 82 846 b 86 869 82 863 83 869 b 108 843 88 869 108 850 z m 138 454 b 140 419 138 443 140 429 b 135 403 140 410 139 403 b 124 454 128 403 124 426 b 135 533 124 482 128 515 b 144 574 140 547 144 564 l 144 579 b 143 583 144 581 143 582 b 150 592 143 588 146 592 b 167 569 156 592 164 582 b 168 561 167 567 168 564 b 138 454 168 529 138 486 z m 267 510 b 236 501 267 506 254 501 b 201 513 217 501 201 507 b 231 522 201 518 215 522 b 267 510 249 522 263 518 z m 122 239 b 96 178 110 199 101 178 b 92 196 93 178 92 183 b 126 293 92 236 113 293 b 133 285 132 293 133 292 b 122 239 133 276 129 263 z "},"G":{"ha":676,"x_min":0,"x_max":0,"o":"m 86 54 b 119 21 86 43 94 36 b 161 -11 140 7 160 -7 b 258 -64 169 -31 232 -64 b 339 -83 275 -64 311 -72 l 389 -103 l 429 -83 b 475 -65 450 -72 469 -65 l 485 -65 b 554 0 507 -65 524 -50 b 613 138 596 67 613 99 b 594 274 613 172 594 240 b 625 339 594 310 606 331 b 646 397 643 347 646 356 b 542 504 646 451 639 458 b 501 518 522 513 513 518 b 417 499 485 518 435 499 b 382 513 401 499 394 513 b 343 435 358 513 343 471 b 375 382 343 404 354 383 b 408 378 385 382 400 379 b 439 375 417 376 431 376 b 472 261 463 372 465 286 b 475 244 474 256 475 250 b 465 217 475 233 472 225 b 418 71 454 204 418 93 b 357 58 418 65 381 58 b 340 60 350 58 344 58 b 300 106 331 63 313 83 b 258 158 288 128 268 151 b 239 189 249 165 239 179 b 208 272 239 199 225 236 b 169 438 182 328 175 354 b 151 569 165 492 158 551 b 144 597 147 581 144 590 b 164 639 144 608 150 618 b 190 693 178 660 190 683 b 200 715 190 701 194 713 b 210 749 206 718 210 733 b 239 844 210 799 222 838 b 296 856 258 851 276 856 b 394 824 328 856 360 844 b 458 790 426 804 456 790 b 488 721 468 790 488 743 b 508 676 488 711 497 692 b 554 653 522 658 532 653 l 571 653 b 625 683 604 656 614 661 b 633 715 631 694 633 707 b 632 724 633 718 633 722 b 553 828 610 764 593 786 b 479 896 528 854 494 883 b 443 946 464 908 447 931 b 404 1006 439 961 422 986 b 314 1044 379 1031 347 1044 b 217 1006 276 1044 236 1025 b 190 988 207 996 196 988 b 125 904 167 988 131 943 b 64 768 115 843 100 808 b 24 640 35 735 24 697 b 42 571 24 603 31 571 b 69 376 57 571 69 482 l 69 336 b 93 133 69 235 76 175 b 97 106 96 124 97 115 b 86 54 97 92 86 67 z m 260 976 b 215 924 260 975 240 950 b 153 821 186 892 164 856 b 104 744 142 785 126 761 b 67 681 81 728 71 710 b 50 640 63 653 56 640 b 44 663 46 640 44 647 b 81 758 44 707 56 738 b 135 842 96 772 121 810 b 224 969 167 915 196 958 b 256 978 239 975 250 978 b 260 976 258 978 260 978 z m 393 883 b 382 904 388 883 382 894 b 410 928 382 918 401 928 b 418 915 415 928 418 924 b 393 883 418 906 406 883 z m 97 417 b 90 449 93 417 90 426 b 100 496 90 479 96 496 b 108 467 103 496 107 488 l 108 456 b 97 417 108 439 106 417 z m 554 410 b 513 383 543 393 525 383 b 497 397 504 383 497 389 b 550 432 497 415 524 432 l 553 432 b 564 428 561 432 564 431 b 554 410 564 425 561 419 z m 117 178 b 103 199 110 178 103 188 b 149 288 103 226 133 288 b 158 268 157 288 158 276 b 117 178 158 238 132 178 z m 486 150 b 478 158 481 150 478 153 b 518 194 478 168 506 194 b 522 186 521 194 522 190 b 486 150 522 165 501 150 z m 357 8 b 331 22 344 8 333 13 l 331 26 b 340 36 331 32 335 36 b 457 100 386 36 426 58 b 506 144 478 129 496 144 b 514 131 511 144 514 140 b 357 8 514 72 408 8 z "},"H":{"ha":725,"x_min":0,"x_max":0,"o":"m 85 858 l 85 844 b 97 726 89 814 97 764 b 90 683 97 707 94 690 b 86 665 88 678 86 672 b 92 640 86 658 89 649 b 121 525 108 599 121 547 b 118 515 121 521 119 517 b 68 353 107 501 68 379 b 49 289 68 340 60 311 b 31 210 36 264 31 239 b 54 75 31 176 38 135 b 124 -53 79 -15 99 -53 b 151 -40 132 -53 142 -49 b 179 90 163 -32 171 1 b 199 219 186 156 193 214 b 208 250 204 225 208 238 b 263 324 208 276 243 324 b 321 363 271 324 296 342 b 397 407 357 393 378 407 b 451 382 413 407 428 399 b 496 307 492 353 496 346 b 504 242 496 283 499 256 b 508 225 507 236 508 231 b 489 192 508 215 501 206 b 460 100 468 169 460 135 b 535 -12 460 47 482 -12 b 644 114 568 -12 600 25 b 676 243 665 156 676 204 b 661 301 676 268 672 289 b 640 388 653 311 644 349 b 626 568 631 488 626 539 b 639 624 626 597 631 607 b 675 753 657 658 675 722 b 660 789 675 763 668 781 b 644 838 644 806 644 808 b 619 881 644 847 633 865 b 560 908 603 899 581 908 b 526 894 546 908 533 904 b 510 768 517 883 510 817 b 517 714 510 742 513 719 b 524 647 521 708 524 681 l 524 625 l 521 547 l 475 540 b 329 490 397 529 354 514 b 304 474 317 479 311 474 b 289 481 300 474 294 476 b 251 503 279 488 264 497 b 224 531 239 508 226 521 b 196 617 219 543 196 596 b 215 651 196 628 201 635 b 243 744 233 672 243 708 b 215 850 243 781 233 819 b 125 933 183 904 150 933 b 85 858 94 933 85 893 z m 578 864 b 564 854 576 857 569 854 b 547 867 557 854 550 858 l 547 872 b 556 878 547 876 550 878 l 561 878 b 578 865 571 876 578 871 z m 565 810 b 556 800 565 804 561 800 b 544 810 550 800 544 804 b 556 819 544 815 550 819 b 565 810 561 819 565 815 z m 154 792 b 153 789 154 790 153 790 b 140 781 149 783 144 781 b 128 794 135 781 128 785 b 138 804 128 800 132 804 b 154 792 144 804 154 796 z m 133 735 b 131 750 132 735 131 740 b 133 765 131 760 132 765 b 138 750 135 765 138 753 b 133 735 138 747 135 735 z m 122 674 b 118 686 119 674 118 678 b 131 717 118 704 125 717 b 138 706 133 717 136 713 l 138 700 b 122 674 138 690 131 674 z m 568 651 l 568 653 b 581 676 568 660 576 676 l 583 676 b 585 672 585 675 585 674 b 568 651 585 668 574 651 z m 515 489 l 497 489 b 463 500 472 492 463 494 b 504 522 463 515 488 522 b 565 571 532 522 565 549 l 565 574 b 564 590 565 578 564 583 l 564 606 b 567 619 564 614 565 619 b 581 567 574 619 581 581 b 515 489 581 515 558 489 z m 165 538 b 154 485 165 515 161 492 b 100 393 149 479 110 393 b 90 399 94 393 90 393 b 122 475 90 407 100 428 b 149 544 138 507 149 535 b 147 547 149 546 147 547 b 139 567 142 550 139 560 b 149 582 139 575 143 582 b 165 538 161 582 165 554 z m 376 483 b 313 443 376 468 335 443 b 303 446 306 443 303 443 b 328 467 303 449 311 454 b 371 492 350 483 364 492 b 376 483 375 492 376 489 z m 232 476 b 242 482 232 481 235 482 b 257 472 250 482 257 478 b 249 463 257 467 254 463 b 232 476 242 463 232 468 z m 467 425 b 464 424 465 425 465 424 b 456 435 458 424 456 429 b 482 461 456 449 471 461 l 482 460 b 467 425 482 446 478 429 z m 129 346 b 104 294 129 342 118 318 b 79 222 90 271 79 239 b 67 197 79 206 72 197 b 50 224 60 197 53 206 l 50 229 b 92 342 50 254 72 315 b 118 353 97 349 110 353 b 129 346 124 353 129 350 z m 489 110 b 479 118 483 110 479 115 b 500 140 479 125 494 140 b 506 135 503 140 506 139 b 489 110 506 125 499 110 z m 510 71 b 488 86 496 71 488 74 b 504 103 488 96 494 103 b 553 96 518 103 533 96 b 571 90 564 96 571 93 b 510 71 571 76 526 71 z m 104 85 b 108 61 108 85 108 78 b 99 36 108 47 104 36 b 89 57 93 36 89 46 b 104 85 89 68 96 85 z "},"I":{"ha":271,"x_min":0,"x_max":0,"o":"m 104 540 b 99 513 104 532 103 524 b 93 468 94 500 93 482 b 94 440 93 457 94 450 b 71 363 94 408 71 393 b 50 286 71 349 61 315 b 32 207 38 253 32 229 b 49 140 32 185 38 165 b 67 96 58 119 67 100 l 67 94 b 85 43 67 90 75 68 b 125 -3 97 11 110 -3 b 160 18 135 -3 147 4 b 214 183 188 47 214 132 b 213 200 214 189 214 196 b 208 296 210 218 208 257 l 208 324 b 210 399 208 351 210 378 b 208 428 210 413 208 424 l 208 507 b 190 585 208 540 203 565 b 175 621 181 600 175 608 b 190 689 175 635 181 653 b 204 763 200 725 204 746 b 199 790 204 774 203 782 b 185 851 193 806 186 833 b 149 965 179 929 168 965 b 133 960 144 965 139 964 b 72 817 107 942 72 868 b 79 765 72 799 75 779 b 85 733 83 753 85 743 b 75 700 85 722 82 713 b 60 629 65 682 60 651 b 69 601 60 613 63 601 b 104 540 81 601 104 558 z m 138 783 b 126 765 138 774 135 765 b 100 796 115 765 100 781 b 115 808 100 804 107 808 b 138 783 129 808 138 800 z m 89 642 b 81 658 83 642 81 647 b 114 706 81 675 104 706 b 118 703 115 706 118 704 l 118 699 b 89 642 118 681 104 642 z m 136 467 b 131 490 132 467 131 485 b 154 542 131 515 142 542 b 169 531 163 542 169 536 b 136 467 169 526 146 467 z m 169 417 b 158 383 169 415 164 401 b 138 357 151 364 146 357 b 132 358 136 357 133 358 l 126 358 b 103 324 117 358 111 349 b 90 265 96 301 90 275 b 74 233 90 256 82 240 b 63 225 68 229 64 225 b 61 229 61 225 61 226 b 64 244 61 232 63 238 b 150 418 99 390 113 418 b 169 417 161 418 169 418 z m 125 140 b 104 115 125 126 117 115 b 90 133 96 115 90 124 b 110 164 90 153 100 164 b 125 140 119 164 125 153 z "},"J":{"ha":600,"x_min":0,"x_max":0,"o":"m 178 185 b 188 229 178 197 181 213 b 193 272 192 239 193 254 b 133 426 193 340 169 396 b 113 440 124 435 118 440 b 63 389 100 440 63 397 b 36 351 63 383 50 367 b 11 296 18 333 11 317 l 11 292 b 14 206 13 274 14 235 b 39 115 15 165 21 142 b 63 68 53 96 63 75 b 163 15 63 56 139 15 b 213 -8 169 15 193 6 b 281 -33 232 -22 264 -33 b 460 46 318 -33 429 15 b 513 183 485 71 507 131 b 538 279 515 203 526 246 b 564 411 554 328 564 369 b 547 508 564 444 558 475 b 532 586 536 542 532 563 b 542 707 532 622 542 676 b 511 822 542 753 532 785 b 453 879 490 858 468 879 b 436 863 444 879 439 874 b 418 725 425 822 418 771 l 418 711 b 456 529 419 656 426 628 b 467 478 463 504 467 490 b 419 361 467 453 428 375 b 410 328 414 351 410 338 b 361 238 410 306 381 251 b 329 174 353 232 338 203 b 283 117 315 125 311 119 l 276 117 b 178 185 229 117 178 140 z m 454 824 b 451 839 453 824 451 829 b 454 854 451 849 453 854 b 458 839 456 854 458 842 b 454 824 458 836 456 824 z m 469 636 b 460 617 469 628 465 619 b 457 615 458 617 458 615 b 449 636 453 615 449 624 b 457 657 449 649 453 657 b 460 656 458 657 458 656 b 469 636 465 653 469 644 z m 493 444 b 490 456 492 444 490 449 l 490 458 b 493 469 490 465 492 469 b 497 454 496 469 497 457 b 493 444 497 449 496 447 z m 265 31 b 258 53 265 39 263 47 b 251 65 253 58 251 63 b 289 82 251 71 261 74 b 339 142 319 90 325 99 b 381 231 347 169 367 210 b 418 301 394 251 413 283 b 492 400 432 342 476 400 l 493 400 b 501 381 499 399 501 390 b 500 374 501 378 500 376 b 463 318 499 361 482 336 b 429 269 443 300 429 279 b 400 208 429 260 417 232 b 369 151 383 185 369 158 b 351 100 369 144 363 122 l 332 61 l 353 54 b 367 49 361 51 367 50 b 344 38 367 46 360 43 b 299 15 328 31 308 21 b 272 6 288 8 278 6 b 263 14 267 6 263 8 b 265 31 263 19 265 25 z m 46 293 b 40 256 44 267 43 256 b 26 289 33 256 26 279 b 114 374 26 325 74 374 b 126 365 122 374 126 371 b 46 293 126 338 46 318 z m 53 219 b 43 200 53 211 49 203 b 40 199 42 200 42 199 b 32 214 36 199 32 204 b 43 235 32 225 38 235 b 53 219 49 235 53 228 z "},"K":{"ha":615,"x_min":0,"x_max":0,"o":"m 78 596 b 92 506 78 571 81 553 b 101 436 99 476 101 456 b 74 343 101 406 93 381 b 31 215 44 290 31 249 b 54 149 31 190 39 169 b 79 93 68 131 79 106 b 89 33 79 81 83 54 b 124 -4 97 4 104 -4 b 188 50 150 -4 188 26 b 197 65 188 58 192 65 b 203 74 200 65 203 69 b 201 79 203 75 203 78 b 200 83 201 81 200 82 b 213 104 200 90 206 99 b 233 167 221 111 229 140 b 293 263 239 206 258 263 b 339 210 310 263 325 246 b 407 29 365 144 393 107 b 461 -74 418 -28 442 -74 b 546 -121 471 -74 536 -121 b 568 -108 553 -121 560 -117 b 582 -22 578 -99 582 -74 l 582 -17 b 526 146 582 67 569 103 b 406 282 500 172 429 254 b 335 433 346 350 338 369 b 333 458 335 443 333 451 b 356 531 333 493 339 507 b 379 608 374 554 379 575 l 379 618 b 492 731 379 671 397 688 b 582 821 551 758 582 788 b 449 903 582 872 510 903 b 310 790 376 903 318 843 b 292 725 306 771 299 742 b 283 682 286 713 283 696 l 283 669 b 285 656 285 665 285 660 b 278 622 285 643 282 631 b 200 574 265 600 224 574 b 178 619 182 574 178 593 b 193 682 178 643 183 671 b 215 750 207 697 215 722 b 203 813 215 771 211 793 b 140 940 161 911 154 924 b 113 957 131 951 122 957 b 85 946 104 957 96 954 b 67 864 71 936 67 918 l 67 853 b 82 733 67 783 72 750 b 85 704 83 731 85 719 b 78 596 85 674 78 617 z m 113 939 b 118 932 117 939 118 938 b 86 860 118 917 93 860 b 79 878 81 860 79 867 b 113 939 79 900 92 939 z m 446 863 b 350 819 446 858 358 819 b 344 826 346 819 344 822 b 367 863 344 836 354 854 b 414 871 375 868 396 871 b 446 863 431 871 446 868 z m 344 721 b 340 724 342 721 340 721 b 368 750 340 735 361 750 b 372 746 371 750 372 749 b 344 721 372 735 351 721 z m 113 604 b 100 592 111 597 106 592 b 93 606 96 592 93 597 b 117 674 93 625 103 658 b 132 688 125 682 129 688 b 135 683 133 688 135 686 b 113 604 135 669 114 613 z m 251 533 l 247 533 b 235 540 240 535 235 536 b 269 582 235 546 246 557 b 315 618 292 606 307 618 b 322 607 319 618 322 614 b 251 533 322 571 279 533 z m 265 474 l 265 467 b 253 453 265 457 261 453 b 238 478 243 453 238 461 b 249 500 238 493 243 500 b 265 474 256 500 263 490 z m 186 403 l 186 401 b 147 354 186 392 169 372 l 106 321 l 113 346 b 156 421 128 403 136 421 l 161 421 b 186 403 174 419 185 411 z m 363 238 b 378 264 363 253 368 264 b 386 235 383 264 386 251 b 375 206 386 217 381 206 b 363 238 367 206 363 225 z m 433 86 b 426 104 428 86 426 92 b 469 147 426 126 450 147 b 489 133 476 147 489 140 b 433 86 489 121 439 86 z "},"L":{"ha":561,"x_min":0,"x_max":0,"o":"m 100 781 b 85 686 100 747 93 707 b 69 608 76 665 69 631 b 54 494 69 586 63 535 b 43 329 46 456 43 408 b 44 238 43 303 43 272 b 100 -36 49 33 60 -21 b 128 -39 107 -39 117 -39 b 286 3 172 -39 243 -22 b 338 22 307 15 325 22 b 372 13 349 22 364 13 b 418 -11 378 13 399 1 b 478 -28 438 -22 458 -28 b 557 31 518 -28 553 -6 b 558 65 558 44 558 56 b 494 135 558 101 546 111 b 419 160 463 150 433 160 b 413 158 417 160 414 158 b 357 153 403 156 378 153 l 353 153 b 300 142 332 153 307 149 b 281 132 293 136 285 132 l 278 132 b 222 117 268 132 235 117 b 201 147 208 117 201 126 b 207 211 201 164 207 193 b 203 242 207 225 206 236 b 194 304 197 256 194 278 b 201 394 194 335 201 363 b 188 531 201 439 188 489 b 194 607 188 551 189 575 b 217 822 204 671 217 756 b 200 868 217 847 213 856 b 156 889 186 882 169 889 b 100 781 110 889 100 838 z m 110 692 b 163 767 110 704 147 767 b 168 751 165 767 167 761 l 168 744 b 156 711 168 732 163 719 b 125 653 147 703 135 675 b 100 611 115 631 104 611 b 86 629 92 611 86 619 b 110 692 86 649 110 672 z m 100 464 l 97 464 b 90 471 93 464 90 467 b 100 488 90 476 93 483 b 106 497 104 490 106 493 b 104 503 106 499 106 501 b 103 506 104 504 103 504 b 114 513 103 510 107 513 b 124 504 121 513 124 510 b 100 464 124 488 110 468 z m 144 229 b 114 194 144 213 131 194 b 100 206 106 194 100 197 b 129 254 100 218 117 254 b 144 229 135 254 144 242 z m 107 158 b 119 143 114 158 119 153 b 69 51 119 125 79 51 b 65 67 67 53 65 58 b 107 158 65 97 78 158 z m 354 107 b 310 101 339 107 321 106 b 296 99 304 100 300 99 b 288 104 290 99 288 100 b 382 138 288 113 313 121 b 415 143 397 142 408 143 b 431 138 424 143 428 142 b 432 133 431 136 432 135 b 368 107 432 121 397 107 z "},"M":{"ha":849,"x_min":0,"x_max":0,"o":"m 317 733 b 290 801 317 764 311 781 b 246 850 275 817 256 839 b 206 872 233 864 221 872 b 108 813 181 872 151 853 l 46 754 l 44 628 b 31 471 43 551 39 490 b 24 444 26 460 24 451 b 47 397 24 432 31 421 b 75 281 71 363 75 357 l 75 218 b 74 156 75 193 74 172 b 99 47 74 81 78 74 b 136 14 113 29 131 14 b 182 49 142 14 163 29 b 219 124 213 78 219 92 b 182 310 219 183 197 292 b 172 375 175 318 172 344 b 189 486 172 417 178 465 b 225 529 206 518 214 529 b 243 524 231 529 236 528 b 317 425 292 499 317 464 b 358 349 317 376 332 349 b 413 338 371 349 394 344 b 436 332 422 335 429 332 b 472 378 458 332 469 347 b 518 450 474 392 493 424 b 569 526 542 475 567 511 b 617 579 575 554 600 579 b 625 576 619 579 622 579 b 647 485 631 571 640 531 b 672 354 654 439 665 381 b 679 306 678 335 679 321 b 664 204 679 278 664 231 b 665 194 664 200 664 197 b 678 132 668 185 674 157 b 735 29 686 69 703 42 b 756 24 743 26 750 24 b 796 76 775 24 796 56 b 793 90 796 81 794 86 b 785 210 789 104 786 158 b 742 421 782 314 772 363 b 726 481 732 440 726 460 b 749 560 726 506 733 531 b 772 649 757 576 768 617 b 781 844 776 683 781 772 b 775 947 781 899 778 944 b 747 956 769 953 760 956 b 693 938 726 956 703 949 b 610 874 660 897 636 879 b 549 826 593 869 569 851 b 514 735 519 792 514 776 b 486 663 514 692 510 682 b 444 611 471 650 453 626 b 379 560 428 578 404 560 b 360 563 372 560 367 560 b 324 631 335 571 331 578 b 317 728 319 661 317 704 z m 722 913 b 683 863 708 889 689 863 b 682 864 683 863 682 863 b 722 929 682 881 713 929 b 726 925 725 929 726 928 b 722 913 726 922 725 918 z m 661 850 b 631 822 661 842 636 822 b 622 832 626 822 622 825 b 661 850 622 840 654 850 z m 168 804 b 69 713 146 775 78 713 b 61 725 65 713 61 718 b 163 821 61 744 142 821 b 176 818 172 821 176 821 b 168 804 176 815 174 811 z m 697 789 b 717 768 708 789 717 781 b 710 764 717 764 715 764 b 679 767 701 764 688 767 b 606 736 651 767 619 754 b 592 725 600 729 596 725 b 569 749 586 725 569 740 b 589 781 569 756 575 764 b 629 810 606 801 618 810 b 651 797 638 810 644 806 b 676 786 657 790 667 786 b 697 789 682 786 692 789 z m 233 767 b 214 763 233 764 228 763 b 189 774 197 763 189 767 b 206 792 189 778 201 792 b 233 767 207 792 233 775 z m 76 703 b 81 693 79 703 81 699 b 71 683 81 688 76 683 b 64 689 67 683 64 686 b 76 703 64 694 75 703 z m 533 635 b 504 614 531 635 517 625 b 475 596 490 601 481 596 b 469 606 471 596 469 600 l 469 611 b 560 679 471 625 544 679 b 561 678 561 679 561 678 l 563 676 b 533 635 563 669 538 635 z m 96 610 b 78 597 96 604 88 599 b 74 596 76 597 75 596 b 61 610 65 596 61 601 b 74 622 61 618 65 622 l 78 622 b 96 610 88 621 96 615 z m 53 446 b 97 506 53 451 86 506 b 110 461 106 506 110 490 l 110 457 b 97 433 110 439 108 433 b 53 446 81 433 53 438 z m 343 442 b 349 461 343 454 344 461 b 365 410 357 461 365 414 l 365 407 b 361 397 365 400 364 397 b 343 442 349 397 343 424 z m 726 313 b 699 235 726 296 710 235 b 694 249 696 235 696 240 b 693 260 694 251 693 256 b 706 333 693 283 706 310 b 703 354 706 342 703 349 b 704 357 703 356 703 357 b 726 313 715 357 726 329 z m 115 269 b 111 279 113 269 111 274 b 121 289 111 285 115 289 b 126 285 125 289 126 288 b 115 269 126 278 118 269 z m 107 176 b 100 199 101 176 100 182 b 111 236 100 215 101 236 b 140 200 121 236 140 213 b 107 176 140 193 119 176 z m 694 193 b 692 197 693 193 692 194 b 706 217 692 207 699 217 b 711 213 708 217 711 215 b 694 193 711 210 701 193 z m 710 144 b 707 135 710 140 708 136 l 706 135 b 703 144 704 135 703 138 l 703 147 b 706 158 703 154 704 158 b 710 144 708 158 710 147 z "},"N":{"ha":738,"x_min":0,"x_max":0,"o":"m 224 363 b 235 381 224 375 226 381 b 338 310 251 381 338 319 b 382 254 338 306 358 279 b 422 197 406 231 422 206 l 422 190 b 490 67 422 164 465 83 b 551 -39 518 49 551 -11 l 551 -46 b 550 -53 550 -49 550 -50 b 568 -69 550 -64 557 -69 b 610 -49 581 -69 597 -62 b 633 32 629 -28 633 -12 b 657 135 633 69 642 103 b 675 193 669 161 675 176 b 665 276 675 219 665 246 b 668 307 665 288 667 299 b 674 404 672 336 674 371 b 657 546 674 460 668 514 b 646 592 649 569 646 582 b 688 657 646 613 678 651 b 700 693 696 663 700 675 b 633 856 700 749 667 846 b 617 858 626 857 622 858 b 593 829 601 858 593 849 b 569 782 593 817 583 797 b 543 676 547 758 544 747 l 543 668 b 553 578 543 628 547 588 b 567 438 560 564 567 490 b 536 361 567 399 563 390 b 503 318 521 344 506 326 b 493 314 501 315 499 314 b 401 369 469 314 408 347 b 369 418 399 379 383 401 b 340 493 351 439 342 463 b 324 567 339 517 332 550 b 308 621 315 583 308 608 b 299 644 308 633 304 644 b 263 681 294 644 278 661 b 228 778 242 707 232 732 b 193 879 224 822 214 850 b 150 919 174 907 161 919 b 133 908 144 919 139 915 b 94 797 115 885 111 826 b 83 753 88 783 83 771 b 86 724 83 744 85 733 b 108 479 93 679 90 513 b 121 428 115 467 121 444 b 47 279 121 397 74 301 b 25 194 33 268 25 231 b 31 150 25 178 26 163 b 46 46 36 132 43 85 b 88 -89 51 -50 60 -71 b 108 -99 97 -96 103 -99 b 132 -83 115 -99 122 -93 b 203 138 165 -50 193 39 b 233 290 206 168 233 251 b 224 363 233 310 224 343 z m 104 750 b 129 831 104 774 114 807 b 143 857 138 843 143 854 l 143 858 b 140 867 142 861 140 864 b 150 881 140 874 144 881 b 160 847 156 881 160 865 b 146 803 160 829 154 810 b 125 750 138 796 129 772 b 115 719 121 729 119 719 b 104 750 110 719 104 740 z m 586 693 b 593 679 590 693 593 689 b 563 614 593 658 572 614 b 554 628 557 614 554 619 b 586 693 554 643 572 693 z m 158 590 b 131 536 158 569 143 536 b 121 560 125 536 121 547 b 142 614 121 593 131 614 b 158 590 149 614 158 604 z m 600 428 b 593 435 596 428 593 429 b 614 457 593 446 604 457 b 618 450 617 457 618 454 b 600 428 618 436 607 428 z m 288 410 b 292 414 288 413 289 414 b 318 393 300 414 318 394 b 315 392 318 393 317 392 b 288 410 304 392 288 401 z m 568 317 b 539 290 549 308 539 299 b 540 285 539 289 540 286 b 542 279 542 282 542 281 b 514 269 542 272 535 269 b 488 272 496 269 488 269 b 503 285 488 274 493 278 b 525 310 515 293 525 306 b 611 403 525 319 603 403 l 611 399 b 568 317 611 356 601 333 z m 114 319 b 121 311 118 319 121 317 b 49 221 121 299 58 221 b 44 226 46 221 44 222 b 114 319 44 247 85 319 z m 410 303 b 421 310 410 307 414 310 b 436 300 429 310 436 306 b 426 289 436 294 432 289 b 410 303 422 289 410 296 z "},"O":{"ha":699,"x_min":0,"x_max":0,"o":"m 421 8 b 478 17 446 8 467 13 b 549 86 517 33 549 64 b 600 169 549 104 585 163 b 672 424 625 181 667 325 b 674 454 672 435 674 444 b 638 575 674 503 664 532 b 601 728 617 610 601 678 b 606 782 601 744 606 769 b 574 833 606 803 597 811 b 444 929 489 914 472 929 b 436 928 442 929 439 928 l 429 928 b 388 938 413 928 394 932 b 344 954 375 949 361 954 b 288 936 328 954 308 947 b 193 825 239 910 229 900 b 97 724 161 758 144 742 b 65 701 79 717 65 707 b 51 675 65 696 60 683 b 35 590 43 665 36 632 b 13 482 33 550 24 504 b 0 439 4 463 0 451 b 7 404 0 429 3 419 b 36 333 14 382 26 350 b 61 279 46 317 57 293 b 106 178 65 265 85 219 b 144 75 126 136 144 89 b 181 17 144 57 156 39 b 233 -15 204 -4 218 -15 b 279 0 244 -15 260 -10 b 340 13 297 8 314 13 b 421 8 363 13 399 8 z m 283 900 b 303 893 293 900 303 897 b 258 842 303 889 283 867 b 214 786 233 817 214 792 b 185 753 214 778 190 753 b 183 754 183 753 183 753 b 283 900 183 758 246 900 z m 506 851 b 525 821 513 851 525 829 b 514 793 525 814 521 806 b 479 763 504 774 489 763 b 469 776 474 763 469 767 b 506 851 469 785 494 851 z m 363 840 b 383 826 369 840 375 835 b 501 642 436 767 481 697 b 517 561 511 615 517 596 b 514 500 517 544 515 525 b 467 311 507 389 494 343 b 440 251 456 299 443 272 b 331 188 433 213 417 204 b 311 185 322 186 317 185 b 236 238 292 185 279 196 l 178 294 l 185 354 b 233 668 194 449 224 636 b 243 728 239 685 243 713 b 296 801 243 754 276 801 b 363 840 307 801 351 840 z m 94 688 b 85 692 89 688 85 689 b 129 713 85 703 101 711 l 132 713 b 142 708 139 713 142 711 b 94 688 142 694 103 688 z m 544 504 l 529 472 l 533 511 b 550 604 542 576 547 604 b 556 574 551 604 554 593 l 556 565 b 544 504 556 546 551 519 z m 31 428 b 19 436 22 428 19 432 b 64 481 19 449 51 481 b 75 456 72 481 75 472 b 31 428 75 438 53 428 z m 507 300 b 503 306 504 300 503 301 b 532 368 503 318 532 357 l 532 371 b 531 376 531 372 531 375 b 558 418 531 389 549 418 b 568 404 564 418 568 411 b 507 300 568 383 529 300 z m 107 300 b 125 279 117 300 125 292 b 106 260 125 267 118 260 b 85 278 93 260 85 268 b 107 300 85 289 96 300 z m 176 203 l 172 203 b 168 207 169 203 168 204 b 188 231 168 218 182 231 b 193 224 190 231 193 228 b 176 203 193 214 183 206 z m 454 149 b 440 142 446 149 440 146 b 415 132 440 136 429 132 b 385 117 401 132 388 125 b 372 103 381 107 376 103 b 365 117 368 103 365 108 l 365 122 b 350 135 365 131 361 135 b 339 133 347 135 343 133 l 328 133 b 317 139 319 133 317 135 b 390 169 317 163 351 169 b 458 164 410 169 440 164 b 499 181 476 164 485 169 b 532 200 515 194 525 200 b 543 192 536 200 539 197 b 544 188 543 190 544 189 b 528 161 544 182 538 171 b 493 144 515 149 507 144 b 454 149 482 144 464 149 z "},"P":{"ha":615,"x_min":0,"x_max":0,"o":"m 108 975 b 76 628 89 975 76 836 b 78 479 76 582 76 532 b 79 453 78 469 79 461 b 68 374 79 408 75 382 b 36 238 47 349 36 299 b 40 174 36 217 38 196 b 99 38 51 86 67 47 b 111 36 103 36 107 36 b 161 72 132 36 154 51 b 188 288 172 106 188 235 l 188 303 b 232 368 188 351 200 368 b 272 378 244 368 263 374 b 439 453 289 385 432 436 b 476 486 442 460 458 475 b 576 621 507 504 576 576 b 572 682 576 636 572 665 b 588 746 572 717 588 715 b 514 917 588 793 554 876 b 492 953 501 929 492 944 b 411 1022 492 971 419 1011 b 360 1032 407 1029 385 1032 b 288 1021 333 1032 304 1028 l 260 1010 l 292 1010 b 324 999 310 1010 324 1004 b 317 989 324 993 321 989 b 181 942 236 982 219 976 b 132 874 154 918 136 893 b 111 842 128 856 118 842 b 101 856 104 842 101 846 b 104 872 101 860 103 865 b 168 967 113 917 115 921 b 229 1003 197 992 214 1003 b 238 1001 232 1003 235 1001 b 250 999 243 1000 247 999 b 254 1000 253 999 254 999 b 249 1007 254 1001 251 1004 b 226 1015 243 1013 236 1015 b 150 982 204 1015 172 1003 b 124 965 138 971 129 965 b 108 975 117 965 114 975 z m 389 935 b 388 936 388 935 388 935 b 425 979 388 958 415 979 b 432 971 429 979 432 978 b 389 935 432 965 399 935 z m 468 650 b 446 604 468 638 461 626 b 338 546 422 569 379 546 b 293 511 332 546 311 529 b 249 478 272 490 258 478 b 221 578 233 478 229 507 b 206 635 217 610 210 635 b 189 683 194 635 189 658 b 199 733 189 701 192 722 b 210 765 206 746 210 754 b 197 826 210 776 197 814 b 236 860 197 842 224 860 b 285 847 246 860 258 856 b 460 722 325 836 460 758 b 457 713 460 719 458 715 b 456 707 457 711 456 710 b 468 650 456 694 468 664 z m 501 801 b 482 792 501 796 493 792 b 457 801 471 792 460 796 b 456 804 457 803 456 803 b 476 811 456 808 464 811 b 501 801 490 811 501 807 z m 486 694 b 482 710 483 694 482 700 b 488 719 482 715 483 719 b 497 708 493 719 497 713 b 486 694 497 701 489 694 z m 129 556 b 133 525 132 556 133 546 l 133 504 b 118 449 132 472 126 451 b 114 447 117 449 115 447 b 108 461 110 447 108 451 b 129 556 108 496 124 556 z m 67 279 b 63 281 65 279 64 279 l 63 283 b 101 425 63 297 76 350 b 117 438 104 432 111 438 b 124 428 121 438 124 433 b 121 415 124 424 122 421 b 67 279 113 389 89 279 z m 65 160 b 58 203 61 160 58 174 l 58 207 b 74 260 58 249 61 260 b 86 246 82 260 86 257 b 65 160 86 218 68 160 z "},"Q":{"ha":714,"x_min":0,"x_max":0,"o":"m 678 586 b 682 650 678 606 682 632 b 667 703 682 671 678 683 b 596 793 649 733 638 747 b 582 818 588 801 582 813 b 563 839 582 824 574 832 b 542 865 551 846 542 857 b 417 911 542 890 488 910 b 307 957 346 913 326 921 b 288 976 300 971 296 976 b 247 961 279 976 269 971 b 150 872 208 943 185 921 b 100 690 121 832 110 792 b 72 592 94 635 86 607 b 7 410 35 550 7 465 b 15 367 7 392 10 376 b 25 297 19 360 24 329 b 58 197 26 250 35 231 b 96 125 75 175 92 142 b 176 33 101 104 128 75 b 282 -25 226 -8 251 -25 b 342 -11 299 -25 317 -19 b 349 -10 344 -10 346 -10 b 403 -79 361 -10 372 -25 b 521 -190 446 -154 483 -190 b 567 -171 536 -190 551 -183 b 596 -97 590 -151 594 -139 l 596 -90 b 569 -12 596 -56 590 -39 b 542 47 551 11 542 32 b 553 68 542 57 546 64 b 611 192 563 74 586 125 b 638 240 618 210 631 232 b 656 315 644 249 651 283 b 676 415 660 347 668 392 b 690 504 685 442 690 476 b 678 586 690 544 678 547 z m 242 940 b 267 929 256 940 267 935 b 249 913 267 924 258 917 b 221 890 239 908 228 899 b 207 881 215 883 210 881 b 201 890 204 881 201 885 b 242 940 201 917 218 940 z m 357 863 b 347 867 351 863 350 864 b 358 869 347 868 351 869 l 361 869 b 372 867 368 869 372 868 b 357 863 372 864 360 863 z m 174 822 b 144 786 161 799 151 786 b 139 801 140 786 139 792 b 160 836 139 813 147 828 b 183 850 172 846 181 850 b 185 849 185 850 185 850 b 174 822 185 846 181 836 z m 246 175 b 217 225 246 190 236 207 b 139 390 179 260 139 347 l 139 392 b 168 501 139 432 168 463 b 189 574 168 518 178 551 b 207 658 201 600 207 626 l 207 675 b 269 797 207 728 226 767 b 308 807 279 804 293 807 b 403 776 338 807 374 796 b 444 753 421 764 440 753 b 515 700 453 753 483 731 b 542 683 525 690 536 683 b 561 607 554 683 561 647 b 543 503 561 568 556 524 b 518 432 533 486 522 454 b 468 269 511 386 475 269 b 433 285 465 269 450 276 b 399 294 421 292 410 294 b 369 289 390 294 381 293 b 325 194 333 278 325 260 b 288 103 325 138 311 103 b 246 165 265 103 246 133 z m 138 715 b 135 706 138 711 136 707 l 133 706 b 129 717 132 706 129 710 l 129 719 b 132 729 129 726 131 729 b 138 715 136 729 138 719 z m 122 638 b 119 651 119 638 119 642 b 138 683 119 669 122 683 b 149 669 143 683 149 679 b 122 638 149 663 133 638 z m 83 544 b 79 554 81 544 79 547 b 119 614 79 575 106 614 b 129 599 124 614 129 607 b 83 544 129 588 97 544 z m 592 532 b 583 526 588 529 585 526 b 582 529 582 526 582 528 b 585 539 582 531 583 533 b 593 574 588 549 592 565 b 594 579 593 578 593 579 b 599 567 596 579 597 575 b 600 558 599 564 600 561 b 592 532 600 547 597 538 z m 26 411 b 50 457 26 431 39 457 b 58 435 56 457 58 449 l 58 425 b 39 389 57 403 47 389 b 26 411 32 389 26 400 z m 581 429 b 547 363 564 413 551 385 b 531 303 544 342 536 314 b 469 232 514 269 481 232 b 468 233 468 232 468 233 b 465 239 467 235 465 238 b 472 249 465 243 468 246 b 511 342 479 253 496 296 b 586 457 542 438 554 457 b 603 454 597 457 603 457 b 581 429 603 451 594 443 z m 414 263 b 365 211 414 250 376 211 b 356 218 358 211 356 214 b 371 249 356 224 361 235 b 406 269 381 263 396 269 b 414 263 411 269 414 268 z m 547 192 b 563 183 556 192 563 188 b 514 113 563 168 524 113 b 504 118 507 113 504 113 b 547 192 504 133 531 192 z m 146 122 b 139 131 142 122 139 125 b 178 150 139 140 156 150 l 179 150 b 185 149 183 150 185 150 b 146 122 185 138 150 122 z m 397 83 b 385 85 389 83 385 83 b 418 101 385 90 417 101 b 422 99 421 101 422 101 b 397 83 422 89 407 83 z m 238 53 b 228 54 231 53 228 53 b 267 72 228 63 258 72 b 276 71 274 72 276 72 b 238 53 276 63 246 53 z m 474 -124 b 457 -108 467 -124 457 -118 b 525 -51 457 -92 493 -51 b 538 -61 533 -51 538 -54 b 474 -124 538 -83 489 -124 z "},"R":{"ha":610,"x_min":0,"x_max":0,"o":"m 53 150 b 50 90 53 129 50 108 b 67 50 50 72 54 63 b 90 -1 78 38 89 15 b 118 -33 93 -24 101 -33 b 164 -17 131 -33 146 -28 b 229 154 213 13 226 51 l 232 246 l 264 246 b 364 154 319 246 364 206 b 417 11 364 104 404 54 b 535 -64 425 -24 482 -64 b 569 -6 560 -64 569 -35 b 568 11 569 0 569 6 b 536 133 554 101 549 122 b 522 154 528 140 522 149 b 421 250 522 167 433 250 b 382 335 411 250 382 315 b 415 372 382 354 393 367 b 525 479 446 381 486 418 b 564 638 556 526 558 539 b 567 697 565 660 567 679 b 536 806 567 764 557 799 b 463 953 518 813 463 924 b 436 994 463 976 451 994 b 428 993 433 994 431 994 b 422 992 426 993 425 992 b 388 1003 414 992 400 996 b 275 1024 364 1015 311 1024 b 143 986 231 1024 156 994 b 74 856 82 940 79 936 b 60 668 69 794 60 722 b 86 628 60 644 67 640 b 128 513 126 601 128 597 b 107 406 128 450 124 429 b 49 222 74 360 49 276 b 53 150 49 197 53 178 z m 306 1000 b 247 979 306 992 272 979 l 246 979 b 239 982 240 979 239 981 b 250 994 239 985 243 989 b 290 1008 263 1004 279 1008 b 306 1000 299 1008 306 1006 z m 196 921 b 172 944 190 921 172 935 b 213 969 172 957 206 969 b 219 963 217 969 219 968 b 196 921 219 946 204 921 z m 354 828 b 390 790 360 815 375 797 b 460 644 438 767 453 735 l 465 560 l 429 540 b 389 506 410 529 392 514 b 275 418 381 482 297 418 b 250 435 264 418 253 425 b 232 482 247 444 239 465 b 207 565 225 499 214 536 b 186 644 200 594 192 631 b 182 665 183 650 182 657 b 196 732 182 681 186 701 b 217 804 207 767 217 799 b 296 851 217 831 250 851 b 354 828 338 851 346 849 z m 126 788 b 103 742 126 763 121 751 b 79 733 93 736 85 733 b 72 740 75 733 72 735 b 88 781 72 747 78 761 b 117 819 101 807 110 819 b 126 788 122 819 126 808 z m 472 790 b 482 801 472 797 475 801 b 492 792 488 801 492 797 b 507 782 492 786 499 782 b 522 767 515 782 522 775 b 508 753 522 757 517 753 b 472 790 492 753 472 774 z m 508 676 b 503 626 504 656 503 633 b 494 614 503 619 499 614 b 488 646 490 614 488 628 b 489 661 488 650 489 656 b 500 713 492 710 490 713 l 504 713 b 511 699 508 713 511 708 b 508 676 511 693 510 686 z m 388 444 b 346 408 374 421 356 408 b 340 414 343 408 340 410 b 346 429 340 418 342 422 b 397 476 358 453 383 476 b 400 474 399 476 400 475 b 388 444 400 469 396 457 z m 160 419 b 157 424 158 419 157 421 b 172 443 157 433 165 443 b 178 439 175 443 178 442 b 160 419 178 435 167 419 z m 215 360 b 172 339 215 350 196 339 b 133 325 160 339 144 333 b 99 310 121 315 107 310 b 89 317 93 310 89 313 b 108 357 89 321 97 339 b 143 386 122 379 128 386 b 215 360 165 386 215 375 z m 239 349 b 226 350 231 349 226 349 b 260 368 226 357 257 368 b 264 364 263 368 264 367 b 239 349 264 354 249 349 z m 119 214 b 81 253 108 214 81 242 b 88 258 81 257 83 258 b 106 244 94 258 99 244 b 118 254 108 244 113 247 b 139 269 126 264 133 269 b 147 251 144 269 147 264 b 119 214 147 239 135 214 z m 442 193 l 442 190 b 429 181 442 185 436 181 b 414 197 421 181 414 189 b 424 208 414 206 418 208 b 442 193 431 208 439 203 z m 108 157 b 118 161 108 160 111 161 b 128 151 124 161 128 157 b 124 144 128 147 126 144 b 108 157 117 144 108 156 z m 433 142 b 424 132 433 136 429 132 b 414 142 418 132 414 136 b 424 151 414 147 418 151 b 433 142 429 151 433 147 z m 121 72 b 114 85 117 72 114 78 b 124 107 114 93 121 107 b 133 86 129 107 133 92 b 121 72 133 78 124 72 z m 486 14 b 472 25 478 14 472 18 b 504 56 472 33 490 56 b 518 36 510 56 518 44 b 486 14 518 22 496 14 z "},"S":{"ha":543,"x_min":0,"x_max":0,"o":"m 378 110 b 372 75 378 96 375 83 b 317 53 365 57 357 53 b 221 107 271 53 267 56 b 117 175 179 154 146 175 b 43 86 67 175 43 131 b 83 -14 43 53 57 17 b 246 -114 107 -39 228 -114 b 385 -36 269 -114 351 -68 b 456 22 404 -18 435 8 b 488 56 478 38 488 46 b 486 63 488 58 488 60 b 478 161 482 71 478 115 b 469 267 478 207 474 254 b 375 376 465 279 424 329 b 228 574 275 475 246 514 b 207 614 221 596 213 614 b 197 625 201 614 197 619 b 179 660 197 631 189 647 b 165 706 171 671 165 690 b 178 733 165 721 169 733 b 188 746 182 733 188 739 b 264 821 188 761 232 804 b 285 825 269 824 278 825 b 382 744 319 825 363 790 b 467 664 400 701 439 664 b 514 718 485 664 508 693 l 514 721 b 490 796 514 735 504 767 b 418 872 467 844 454 856 b 354 929 386 886 368 901 b 315 969 340 956 328 969 b 303 964 311 969 307 968 b 231 953 300 961 267 956 b 54 736 107 942 63 888 b 53 689 53 717 53 701 b 69 617 53 654 57 638 b 83 578 78 601 83 586 b 82 574 83 576 82 575 b 82 567 81 572 82 569 b 126 461 82 543 110 474 b 157 410 135 456 149 432 b 244 290 165 388 206 333 b 315 201 283 247 315 207 b 333 192 315 196 324 192 b 378 110 369 192 378 151 z m 207 925 b 179 907 207 924 194 915 b 125 865 165 899 140 881 b 96 844 111 851 101 844 b 90 853 92 844 90 847 b 93 871 90 857 90 864 b 183 933 101 896 157 933 b 189 932 185 933 188 932 b 207 925 199 929 207 926 z m 107 819 b 89 804 104 810 96 804 b 79 815 83 804 79 807 b 94 832 79 824 86 832 b 107 822 101 832 107 828 z m 453 747 b 433 743 453 744 444 743 b 414 751 422 743 414 746 b 424 757 414 754 418 757 b 453 747 435 757 453 750 z m 111 549 b 138 586 111 565 125 586 b 158 560 149 586 158 567 b 126 529 158 543 140 529 b 111 549 117 529 111 539 z m 431 239 b 403 208 431 222 417 208 b 381 239 389 208 381 226 b 406 269 381 256 390 269 b 431 239 418 269 431 256 z m 397 165 b 408 181 397 171 407 181 b 414 165 411 181 414 175 b 407 156 414 160 411 156 b 397 165 403 156 397 163 z m 106 135 b 78 88 97 125 85 104 l 65 58 l 61 85 l 61 96 b 100 151 61 126 78 151 b 115 149 110 151 115 151 b 106 135 115 146 113 142 z m 321 7 b 286 -11 321 -1 297 -11 b 265 1 275 -11 265 -6 b 296 22 265 10 289 22 b 321 7 300 22 321 15 z "},"T":{"ha":625,"x_min":0,"x_max":0,"o":"m 233 583 b 215 408 233 551 215 428 b 231 303 215 386 231 335 b 221 238 231 283 228 264 b 206 122 211 197 206 156 b 214 61 206 97 208 75 b 292 -26 224 36 279 -26 b 351 97 306 -26 340 44 b 363 232 358 132 363 182 b 349 383 363 289 358 347 b 333 544 338 425 333 486 b 350 683 333 607 339 664 b 363 718 358 697 363 707 b 356 750 363 726 360 736 b 343 803 347 775 343 792 b 361 819 343 814 349 819 b 386 817 368 819 376 818 b 542 789 442 807 496 808 b 574 779 557 782 567 779 b 599 796 582 779 588 785 b 618 850 613 810 618 831 b 607 892 618 865 614 878 b 457 960 581 938 574 942 b 378 974 425 965 389 971 l 372 974 b 336 963 361 974 346 969 b 204 942 317 950 257 942 b 126 950 174 942 144 944 l 89 963 l 44 917 b 0 844 15 886 0 864 b 25 799 0 829 8 815 l 50 774 l 100 807 b 153 833 128 825 143 833 b 163 831 157 833 160 833 b 215 665 176 819 215 697 b 233 583 215 638 233 617 z m 496 936 b 442 925 496 931 472 925 b 368 911 408 925 379 919 b 206 889 349 894 239 892 l 197 889 b 181 900 186 889 181 892 b 247 917 181 911 194 915 b 328 929 283 917 319 922 b 408 951 346 944 374 951 b 496 936 449 951 496 944 z m 560 897 l 560 896 b 557 894 560 896 558 894 b 525 917 550 894 525 910 b 528 919 525 918 525 919 b 560 897 536 919 560 908 z m 135 904 b 117 901 129 903 122 901 b 100 904 111 901 106 903 b 96 906 97 904 96 906 b 117 908 96 907 103 908 b 139 906 131 908 139 907 b 135 904 139 906 138 904 z m 215 763 b 206 782 208 763 206 771 b 229 826 206 799 213 826 b 235 813 233 826 235 822 b 215 763 235 796 228 763 z m 258 410 b 290 428 258 419 283 428 b 304 418 299 428 304 425 b 278 400 304 408 290 400 b 258 410 271 400 258 404 z m 274 289 b 288 271 279 289 285 283 l 288 263 b 263 231 288 246 276 231 b 256 254 257 231 256 242 b 274 289 256 271 260 289 z m 250 122 b 256 113 253 122 256 118 b 244 103 256 107 250 103 b 239 107 240 103 239 104 b 250 122 239 114 247 122 z "},"U":{"ha":675,"x_min":0,"x_max":0,"o":"m 488 614 b 508 546 488 594 493 576 b 533 461 525 514 533 490 b 510 347 533 432 525 399 b 439 224 488 276 479 260 b 381 181 414 200 388 181 b 347 161 374 181 360 172 b 279 142 332 147 311 142 l 233 142 l 211 206 b 185 408 193 257 188 299 b 161 571 182 529 179 549 b 133 644 143 594 133 621 b 149 686 133 661 139 675 b 172 779 165 704 172 740 b 118 928 172 846 151 921 l 115 928 b 35 700 85 928 35 768 b 53 613 35 671 42 646 b 74 454 69 565 74 538 b 72 333 74 424 74 383 b 71 274 72 313 71 292 b 104 85 71 164 82 108 b 265 -6 131 56 240 -6 b 308 -25 275 -6 294 -14 b 342 -44 324 -37 332 -44 b 375 -28 350 -44 360 -39 b 424 -1 390 -18 411 -6 b 544 92 465 11 519 53 b 624 290 624 215 624 214 l 624 308 b 622 393 624 343 624 379 l 622 403 b 631 504 622 429 631 475 b 613 569 631 525 625 542 b 596 624 600 596 596 608 b 601 661 596 633 597 646 b 613 751 608 688 613 721 b 561 868 613 815 601 850 b 535 899 546 875 535 889 b 488 950 535 917 506 950 b 467 931 482 950 472 940 b 457 879 460 918 457 900 b 475 782 457 850 463 814 b 494 689 489 747 494 719 b 488 614 494 668 488 639 z m 481 864 b 475 882 478 864 475 869 b 486 915 475 903 481 915 b 493 900 489 915 492 910 b 494 893 493 897 494 896 b 481 864 494 882 489 864 z m 85 775 b 81 785 82 775 81 779 b 101 813 81 799 89 813 b 111 803 107 813 111 808 b 85 775 111 799 94 775 z m 118 544 b 108 536 118 538 115 536 b 93 567 100 536 93 547 l 93 569 b 99 588 93 582 96 588 b 118 544 101 588 118 563 z m 544 572 b 547 582 544 579 544 582 b 583 533 556 582 583 536 b 579 526 583 529 582 526 b 544 572 565 526 544 556 z m 93 413 b 88 429 90 413 88 418 b 106 508 88 444 99 508 b 113 479 110 508 113 489 b 93 413 113 461 103 413 z m 557 371 b 564 343 557 360 558 349 b 571 332 568 339 571 336 b 550 304 571 325 564 317 b 525 267 535 290 525 274 b 500 221 525 260 514 239 b 475 164 486 203 475 176 b 274 86 475 114 324 86 b 240 103 253 86 240 90 b 293 118 240 111 253 114 b 447 203 356 125 390 143 b 515 313 478 235 500 272 b 558 408 540 382 551 408 b 561 401 560 408 561 406 b 557 371 561 396 557 381 z m 157 96 b 131 126 143 96 131 108 b 147 172 131 138 138 160 l 165 196 l 168 169 b 179 142 169 154 175 142 b 189 131 186 142 189 138 b 157 96 189 114 175 96 z "},"V":{"ha":656,"x_min":0,"x_max":0,"o":"m 150 375 b 158 335 150 358 153 347 b 194 169 176 290 174 215 b 213 114 204 149 213 125 b 328 17 213 76 288 17 b 336 18 331 17 333 18 b 360 32 350 21 360 28 b 386 69 360 36 372 54 b 450 310 415 101 446 217 b 467 392 451 339 458 376 b 494 469 475 407 486 443 b 538 557 503 496 522 536 b 572 640 553 579 568 615 b 607 774 576 665 592 725 b 635 885 625 831 635 863 b 586 939 635 911 610 939 b 542 921 574 939 561 932 b 467 860 525 911 490 883 l 424 817 l 421 733 b 356 496 418 651 417 640 b 326 394 343 467 331 421 b 308 350 322 363 317 350 b 289 361 304 350 297 354 b 269 446 278 369 272 396 b 254 525 267 485 260 521 b 214 594 249 529 231 558 b 181 735 190 644 183 675 b 139 853 176 807 175 813 b 58 910 93 906 85 910 b 24 863 35 910 24 897 b 28 818 24 850 25 836 b 92 656 36 756 53 715 b 147 533 118 614 119 572 b 163 493 158 518 163 511 b 150 375 163 474 150 397 z m 458 813 b 532 897 458 831 492 869 b 583 924 557 915 574 924 b 594 913 590 924 594 917 b 582 896 594 907 590 901 b 531 865 571 888 549 874 b 499 832 513 856 499 842 b 469 804 499 818 482 804 b 458 813 465 804 458 807 z m 82 874 b 63 844 82 867 69 844 b 51 871 57 844 51 863 b 65 890 51 882 58 890 b 82 874 69 890 82 885 z m 74 801 b 85 788 79 801 85 797 b 69 772 85 779 78 772 b 54 782 60 772 54 776 b 74 801 54 789 67 801 z m 542 700 b 468 603 531 664 496 619 b 419 542 453 594 432 567 b 382 488 404 508 388 488 b 379 493 381 488 379 489 b 438 617 379 518 411 585 b 468 663 454 636 468 657 b 540 722 468 674 528 722 b 544 715 543 722 544 719 b 542 700 544 711 543 706 z m 169 403 b 193 472 169 417 193 468 b 203 476 193 475 197 476 b 213 461 208 476 213 469 b 175 392 213 439 186 392 b 169 403 172 394 169 397 z m 375 408 b 365 417 369 408 365 411 b 385 438 365 428 376 438 b 394 429 390 438 394 435 b 375 408 394 418 383 408 z m 350 279 b 308 260 342 279 322 271 b 272 240 294 249 278 240 b 251 214 267 240 257 229 b 236 194 246 201 240 194 b 228 208 229 194 228 201 b 260 263 228 225 242 251 b 272 285 267 267 272 276 b 278 299 272 292 274 299 l 279 299 b 286 297 282 299 283 297 b 368 336 313 297 356 317 l 385 363 l 390 333 b 393 318 392 328 393 322 b 350 279 393 294 371 279 z m 232 279 b 222 269 232 274 228 269 b 213 285 217 269 213 276 b 218 296 213 292 214 296 b 232 279 226 296 232 285 z "},"W":{"ha":1068,"x_min":0,"x_max":0,"o":"m 15 850 b 21 825 15 840 18 832 b 53 757 26 815 40 785 b 101 679 65 729 86 696 b 150 522 129 649 150 586 b 182 388 150 472 175 432 b 201 235 190 331 201 314 b 200 168 201 214 201 190 l 194 51 l 242 1 b 306 -43 269 -28 292 -43 b 326 -19 317 -43 322 -35 b 389 63 329 -7 358 31 b 446 154 435 110 446 129 b 497 354 447 318 453 340 b 546 381 510 358 531 369 b 582 396 558 389 572 396 b 588 394 583 396 586 394 b 629 258 607 386 629 311 b 621 171 629 228 621 194 b 632 103 621 147 624 126 b 713 33 643 69 653 60 b 796 6 757 14 782 6 b 810 21 806 6 810 11 b 840 68 810 31 824 51 b 879 197 868 96 871 108 b 885 307 882 232 885 272 b 881 394 885 340 881 368 b 939 539 881 425 892 447 b 947 565 943 547 947 560 b 1010 647 947 575 958 590 b 1051 726 1038 679 1051 700 b 1031 797 1051 746 1043 767 b 1013 863 1024 814 1015 843 b 983 911 1007 896 1000 911 b 936 890 972 911 957 904 b 839 728 875 853 860 826 b 814 633 829 682 818 640 b 804 561 810 626 806 594 b 776 368 800 456 788 368 b 754 376 771 368 760 372 b 708 514 736 389 708 469 b 688 571 708 546 703 560 b 669 611 674 581 669 590 b 671 624 669 615 671 619 l 671 635 b 649 685 671 657 665 669 b 613 744 635 697 619 724 b 593 788 606 765 599 785 b 583 813 588 790 583 801 b 558 838 583 829 575 838 b 531 832 551 838 542 836 b 479 693 503 821 492 790 b 461 614 475 664 468 628 b 411 447 446 583 418 493 b 354 361 406 411 371 361 b 333 410 343 361 338 386 b 238 635 324 465 269 593 b 217 678 224 654 217 664 b 231 719 217 689 222 701 b 235 736 233 725 235 731 b 217 774 235 746 229 756 b 181 846 203 792 186 824 b 85 931 168 890 135 919 b 64 933 76 932 69 933 b 15 850 29 933 15 882 z m 90 913 b 42 861 90 900 53 861 b 36 869 38 861 36 864 b 38 878 36 872 36 875 b 75 919 44 900 47 919 b 90 913 83 919 90 918 z m 914 832 b 899 797 906 822 899 807 b 857 683 899 772 865 683 b 850 700 853 683 850 690 b 899 843 850 738 876 825 b 922 857 910 851 918 857 b 926 853 925 857 926 856 b 914 832 926 849 922 842 z m 76 811 b 81 801 79 811 81 807 b 71 792 81 796 76 792 b 64 797 67 792 64 794 b 76 811 64 804 75 811 z m 536 774 b 539 772 536 772 538 772 b 539 771 540 772 539 772 b 529 750 539 768 536 758 b 514 711 521 738 514 721 b 503 693 514 701 508 693 b 497 704 499 693 497 697 b 511 774 497 726 507 753 b 536 801 515 793 522 801 b 550 797 546 801 550 800 b 536 774 550 794 536 778 z m 961 744 b 958 756 960 744 958 749 l 958 758 b 961 769 958 765 960 769 b 967 754 963 769 967 757 b 961 744 967 749 965 746 z m 869 656 b 833 600 869 636 843 600 b 829 607 831 600 829 603 b 861 674 829 629 851 674 b 869 656 865 674 869 665 z m 499 575 b 439 457 499 575 447 457 b 436 472 436 457 436 463 b 506 604 436 504 489 604 b 510 600 508 604 510 603 b 499 575 510 593 499 579 z m 206 589 b 221 565 211 589 218 581 l 221 564 b 175 496 221 547 188 496 b 169 507 171 496 169 500 b 206 589 169 518 188 589 z m 219 438 b 229 428 225 438 229 433 b 208 388 229 411 217 388 b 200 408 203 388 200 397 b 219 438 200 425 204 438 z m 338 318 b 356 333 338 324 344 329 b 397 374 367 336 385 356 b 431 403 411 393 422 403 b 443 390 436 403 440 399 b 408 339 443 383 428 361 b 360 301 385 313 371 301 b 338 318 347 301 338 311 z m 694 349 b 706 358 694 356 699 358 b 718 343 714 358 718 354 b 700 258 718 317 706 272 b 692 218 696 249 692 231 b 654 171 692 193 675 171 b 644 179 649 171 644 174 b 647 188 644 182 646 185 b 668 276 654 206 657 218 b 688 314 671 294 679 311 b 699 329 694 317 699 322 b 694 349 699 333 694 343 z m 778 289 b 771 297 772 289 771 292 b 824 358 771 314 807 358 b 829 353 826 358 829 357 b 778 289 829 335 799 289 z m 313 329 b 317 319 315 329 317 325 b 307 310 317 314 313 310 b 301 314 303 310 301 311 b 313 329 301 321 310 329 z m 268 303 b 240 264 268 289 250 264 b 238 265 239 264 239 265 b 233 274 235 267 233 269 b 258 310 233 288 247 310 b 268 303 264 310 268 307 z m 365 142 b 360 146 361 142 360 143 b 378 161 360 156 372 161 b 383 157 382 161 383 160 b 365 142 383 150 371 142 z m 682 132 b 672 122 682 126 678 122 b 663 132 667 122 663 126 b 672 142 663 138 667 142 b 682 132 678 142 682 138 z "},"X":{"ha":622,"x_min":0,"x_max":0,"o":"m 49 -40 b 167 51 67 -40 104 -12 b 239 115 201 86 233 115 b 285 153 244 115 265 132 l 319 189 l 339 165 b 381 76 350 151 368 111 b 486 -44 407 3 450 -44 b 528 26 522 -44 528 -18 b 492 190 528 81 514 157 b 443 349 476 214 454 288 b 426 400 439 371 432 393 b 417 440 419 408 417 422 b 440 568 417 478 440 529 l 440 575 b 439 581 440 576 439 579 b 451 619 439 594 444 611 b 518 692 460 629 490 661 b 603 885 567 746 585 786 b 604 900 604 889 604 894 b 579 958 604 928 593 958 b 538 936 575 958 557 949 b 486 876 519 924 496 896 b 435 807 476 857 453 825 b 360 672 397 769 360 701 b 318 583 360 642 332 583 l 317 583 b 221 793 290 593 221 743 b 131 910 221 822 188 864 b 90 935 108 928 99 935 b 72 924 85 935 79 931 b 47 831 58 911 47 868 b 79 735 47 803 56 782 b 203 561 119 654 150 611 b 240 492 232 533 240 518 b 167 324 240 436 213 372 b 107 239 143 299 117 260 b 61 124 67 149 61 138 b 47 90 61 117 54 100 b 32 8 38 78 32 40 b 49 -40 32 -18 33 -40 z m 256 486 b 260 501 256 490 257 496 b 269 547 265 511 269 533 b 279 568 269 563 272 568 b 301 565 286 568 292 565 b 332 571 311 565 322 567 b 364 628 353 579 358 589 b 447 793 374 699 392 735 b 499 863 475 822 499 853 b 558 929 499 882 542 929 b 568 918 564 929 568 924 b 543 876 568 913 557 893 b 518 831 529 860 518 840 b 460 751 518 821 492 786 b 379 596 406 693 379 643 b 324 543 379 565 363 550 b 285 508 292 538 288 533 b 271 474 282 483 279 474 b 256 486 264 474 256 479 z m 64 829 b 76 856 64 838 76 847 b 65 881 76 865 65 871 b 89 908 65 894 76 908 b 99 894 96 908 99 906 b 96 872 99 889 97 882 b 78 813 89 828 85 813 b 64 829 72 813 64 824 z m 260 460 b 268 463 260 461 263 463 b 275 449 272 463 275 456 l 275 446 b 239 353 269 397 256 361 b 224 346 232 349 226 346 b 222 349 222 346 222 347 b 260 460 222 350 260 460 z m 379 276 b 372 283 375 276 372 279 b 390 310 372 296 379 310 b 407 297 397 310 404 307 l 407 294 b 379 276 407 285 392 276 z m 269 281 b 240 236 264 274 251 254 b 186 204 225 210 214 204 b 149 215 161 204 149 207 b 189 257 149 224 163 238 b 269 294 219 279 256 294 b 275 290 274 294 275 293 b 269 281 275 288 274 285 z m 464 144 b 468 132 465 144 468 139 b 442 104 468 125 457 111 b 408 88 426 97 411 89 l 407 88 b 404 94 406 88 404 90 b 422 147 404 108 414 142 b 438 151 426 150 432 151 b 464 144 446 151 461 144 z "},"Y":{"ha":661,"x_min":0,"x_max":0,"o":"m 360 626 b 351 600 360 617 358 600 b 292 653 343 600 326 615 b 232 728 260 688 232 721 b 183 819 232 744 183 801 l 183 821 b 185 835 183 826 185 831 b 139 915 185 861 174 881 l 94 960 l 56 939 b 10 867 19 919 10 907 b 50 782 10 825 28 785 b 82 754 61 781 76 767 b 107 731 88 742 100 731 b 160 617 139 731 158 689 b 201 413 161 536 169 492 b 294 301 224 358 244 333 b 321 254 314 289 321 275 b 311 219 321 239 317 222 b 301 182 306 217 301 200 b 254 7 301 143 254 33 b 336 -50 254 -26 301 -50 b 388 -32 356 -50 374 -43 b 419 56 397 -24 417 29 b 435 110 419 58 426 83 b 446 183 442 132 446 157 b 419 300 446 228 436 271 b 401 374 407 322 401 349 b 428 449 401 404 410 433 b 453 522 447 465 453 475 l 453 554 b 542 715 453 618 461 632 b 661 906 604 781 661 871 b 581 967 661 949 640 964 b 565 968 575 967 569 968 b 506 939 538 968 526 961 b 467 890 489 922 472 901 b 394 779 447 856 418 815 b 356 669 369 742 356 701 b 360 626 356 654 360 642 z m 524 879 b 468 813 514 879 468 829 b 469 810 468 811 468 810 b 481 799 476 810 481 806 b 450 760 481 785 467 764 b 392 668 425 754 393 703 b 383 651 392 656 388 651 b 371 675 378 651 371 660 b 422 790 371 704 410 790 b 444 825 426 790 436 806 b 565 944 461 865 543 944 l 567 944 b 592 939 575 942 586 939 b 594 938 593 939 594 939 b 524 879 594 922 532 879 z m 74 919 b 83 911 79 919 83 917 b 32 860 83 901 42 860 b 24 869 26 860 24 863 b 74 919 24 893 51 919 z m 250 653 l 250 650 b 238 640 250 644 244 640 b 222 657 229 640 222 649 b 232 668 222 665 226 668 b 250 653 239 668 246 663 z m 247 546 b 238 533 247 542 243 539 b 218 494 231 526 222 508 b 207 479 215 483 211 479 b 196 511 201 479 196 490 b 197 522 196 514 197 518 b 221 571 200 554 208 571 b 247 546 228 571 247 556 z m 390 550 b 350 501 390 536 363 501 b 342 514 344 501 342 507 b 358 549 342 525 347 540 b 383 561 369 557 378 561 b 390 550 389 561 390 557 z m 350 214 b 361 210 356 214 361 213 b 329 154 361 197 336 154 b 321 179 324 154 321 167 b 350 214 321 204 326 214 z m 314 76 b 313 92 313 76 313 81 l 313 93 b 325 143 313 103 318 143 b 329 128 326 143 328 139 l 329 121 b 314 76 329 110 322 76 z m 301 15 b 294 26 297 15 294 21 b 304 44 294 32 301 44 b 311 29 308 44 311 35 b 301 15 311 24 306 15 z "},"Z":{"ha":589,"x_min":0,"x_max":0,"o":"m 51 50 b 42 21 51 38 42 32 b 119 -24 42 -1 76 -24 b 169 -39 135 -24 158 -31 b 199 -47 179 -46 188 -47 b 264 -39 215 -47 247 -39 b 281 -42 274 -39 274 -42 b 388 -11 303 -42 372 -22 b 397 -10 389 -10 393 -10 b 433 -19 406 -10 419 -12 b 467 -32 449 -28 458 -32 b 501 -15 476 -32 485 -26 b 564 56 547 13 564 29 b 510 139 564 100 536 139 b 485 131 501 139 493 136 b 435 115 472 122 449 115 b 361 99 407 115 389 99 b 315 106 350 99 335 101 b 250 142 269 115 250 124 b 271 192 250 153 257 169 b 307 278 288 218 304 257 b 333 346 310 299 321 329 b 388 453 367 393 383 425 b 407 607 390 483 407 564 b 403 650 407 625 403 636 b 442 704 403 668 411 678 b 483 747 465 724 483 743 l 483 749 b 499 775 483 753 489 765 b 544 888 521 800 544 860 b 543 896 544 890 544 893 b 449 1000 528 943 510 964 b 375 1049 413 1022 378 1044 b 346 1058 371 1056 360 1058 b 281 1036 324 1058 294 1050 b 143 968 233 989 190 968 b 24 899 86 968 42 942 b 17 872 19 888 17 879 b 104 840 17 850 40 843 b 139 840 118 839 129 840 b 214 864 174 840 185 844 b 258 886 236 879 249 886 b 285 875 265 886 272 882 b 332 860 300 865 322 860 b 360 833 349 860 360 847 b 353 817 360 828 357 822 b 307 638 331 789 314 721 b 253 526 303 585 299 575 b 203 450 221 493 203 465 b 172 381 203 438 189 406 b 140 307 156 356 142 321 b 110 250 139 292 125 267 b 74 186 94 233 79 204 b 47 135 68 168 56 144 b 36 111 40 126 36 119 b 51 50 36 100 51 64 z m 417 986 b 403 982 417 983 411 982 b 353 986 392 982 365 986 b 328 979 339 986 331 983 b 304 968 324 972 313 968 b 242 944 296 968 268 958 b 147 921 210 928 181 921 l 132 921 b 72 897 97 921 86 915 b 51 881 64 886 57 881 b 44 892 47 881 44 885 b 114 950 44 925 82 950 b 151 940 129 950 138 940 b 246 978 167 940 238 978 b 283 1003 250 978 267 989 b 333 1028 303 1019 319 1028 b 361 1013 344 1028 353 1022 b 392 999 368 1004 382 999 b 417 986 404 999 411 992 z m 339 569 b 275 486 333 553 304 514 b 226 446 246 458 232 446 b 222 457 224 446 222 450 b 276 531 222 471 243 499 b 331 592 306 560 331 586 b 340 601 331 597 335 601 b 344 594 343 601 344 599 b 339 569 344 589 343 579 z m 378 56 b 375 58 375 56 375 57 b 407 81 375 65 400 81 l 410 81 l 410 78 b 378 56 410 68 383 56 z "},"[":{"ha":381,"x_min":0,"x_max":0,"o":"m 58 824 b 97 669 58 781 74 715 b 125 544 115 635 125 586 b 108 467 125 513 119 485 b 89 408 97 449 89 424 b 49 261 89 379 78 339 l 31 211 l 56 139 b 82 0 71 94 81 39 b 108 -90 83 -54 89 -69 b 165 -122 129 -112 147 -122 b 217 -107 181 -122 203 -107 b 233 -114 222 -107 226 -110 b 293 -139 257 -131 275 -139 b 371 -86 325 -139 371 -107 b 367 -78 371 -82 369 -81 b 339 -35 363 -75 349 -54 b 292 7 325 -8 306 7 b 279 1 286 7 282 6 b 254 -8 275 -4 265 -8 b 231 24 231 -8 231 -4 b 240 253 231 64 240 210 b 225 314 240 289 235 300 b 211 358 215 328 211 338 b 221 482 211 383 221 453 b 207 603 221 528 207 556 b 217 758 207 642 217 717 b 214 806 217 779 217 794 b 208 842 211 819 208 831 b 267 944 208 872 224 897 b 329 1047 310 992 329 1022 b 301 1086 329 1067 318 1086 b 236 1053 289 1086 269 1076 b 182 1024 206 1032 193 1024 b 157 1033 175 1024 168 1026 b 122 1042 146 1039 133 1042 b 74 1018 103 1042 83 1033 b 69 963 71 1013 69 989 b 76 882 69 926 72 886 l 78 882 b 94 896 82 882 88 886 b 107 908 100 904 106 908 b 108 889 110 908 108 903 b 99 857 108 874 104 860 b 89 833 93 854 89 844 b 79 814 89 822 85 814 b 71 831 75 814 71 819 b 72 843 71 835 72 839 b 74 857 74 849 74 853 b 71 867 74 863 72 867 b 58 824 61 867 58 840 z m 135 997 b 97 982 122 997 108 982 b 90 992 92 982 90 985 b 111 1017 90 1006 96 1017 b 178 1007 129 1017 167 1007 l 179 1007 b 221 1014 189 1007 206 1010 l 250 1021 l 231 1000 b 203 983 219 989 214 983 b 135 997 190 983 147 997 z m 93 935 b 83 944 89 935 83 942 b 104 967 83 951 99 967 b 108 960 107 967 108 964 b 93 935 108 950 101 935 z m 157 725 b 168 701 163 725 168 717 b 154 676 168 688 161 676 b 133 690 140 676 133 681 b 157 725 133 703 150 725 z m 168 585 b 158 554 168 572 164 557 l 156 554 b 149 578 151 554 149 563 b 158 608 149 594 153 608 b 168 585 164 608 168 597 z m 185 297 b 169 279 185 292 181 286 b 149 251 158 271 149 258 b 82 207 149 232 100 207 b 69 215 74 207 69 210 b 85 238 69 221 74 229 b 119 288 93 244 108 267 b 156 324 132 311 144 324 b 185 297 161 324 185 308 z m 160 75 b 171 49 165 75 171 67 b 169 35 171 44 169 40 b 135 -37 165 -10 153 -37 b 117 -12 124 -37 117 -28 b 160 75 117 10 142 75 z m 278 -46 b 268 -43 274 -46 269 -44 l 268 -42 b 278 -39 268 -40 271 -39 l 281 -39 b 292 -42 288 -39 292 -40 b 278 -46 292 -44 281 -46 z "},"\\":{"ha":501,"x_min":0,"x_max":0,"o":"m 336 468 l 336 475 b 301 507 336 488 325 497 b 172 686 253 526 204 594 b 136 779 158 728 142 768 b 119 843 131 790 124 818 b 81 918 114 875 103 896 b 32 950 63 936 42 950 l 31 950 b 17 938 21 950 17 947 b 33 838 17 906 26 875 b 88 701 38 811 63 750 b 133 569 122 633 133 604 b 172 471 133 532 140 515 b 211 403 194 442 211 411 b 260 276 211 388 260 293 b 347 104 260 254 315 144 b 457 31 386 56 422 31 b 485 54 475 31 485 36 b 446 207 485 79 446 178 b 388 322 446 238 388 290 b 367 365 388 335 378 354 b 336 468 349 383 336 426 z m 89 865 b 78 889 85 865 78 882 b 79 892 78 892 78 892 b 92 871 83 892 92 879 b 89 865 92 867 90 867 z m 192 550 b 154 632 183 550 154 619 b 156 633 154 633 156 633 b 218 543 161 633 190 592 b 265 506 225 532 247 514 b 299 481 283 497 299 486 b 296 479 299 479 299 479 b 201 535 274 479 201 521 b 192 550 201 543 196 550 z m 308 457 b 294 446 308 456 301 446 b 289 451 292 446 289 447 b 299 461 289 457 293 461 b 308 457 306 461 308 460 z m 347 296 b 290 382 347 307 290 369 l 290 385 b 293 386 290 386 292 386 b 368 318 307 386 368 332 b 399 267 368 313 382 289 b 432 194 417 242 431 213 b 447 132 433 176 440 150 b 454 100 453 119 454 107 b 446 90 454 93 451 90 b 418 161 435 90 424 117 b 379 250 413 201 403 224 b 347 296 363 269 347 292 z "},"]":{"ha":382,"x_min":0,"x_max":0,"o":"m 174 819 b 188 782 174 807 179 797 b 203 661 199 763 203 736 b 199 471 203 617 201 557 l 199 442 b 208 361 199 401 201 376 b 217 335 214 350 217 342 b 207 307 217 326 214 319 b 194 233 199 292 194 260 l 194 225 b 157 71 194 172 175 93 b 139 29 150 63 142 44 b 118 0 136 14 126 0 b 75 -18 86 -3 85 -4 b 65 -61 69 -28 65 -44 b 103 -121 65 -93 71 -121 b 149 -117 114 -121 135 -117 b 200 -135 169 -117 182 -122 b 232 -151 215 -146 224 -151 b 268 -118 249 -151 268 -135 b 264 -75 268 -108 264 -85 b 281 -42 264 -60 269 -51 b 300 14 293 -31 300 -11 b 315 82 300 35 307 65 b 331 206 326 103 331 132 l 331 242 b 319 404 329 313 325 385 b 310 471 314 425 310 447 b 324 563 310 500 314 532 b 333 614 331 583 333 599 b 321 711 333 646 321 675 b 324 738 321 721 322 731 b 342 890 331 786 333 817 b 344 921 343 903 344 913 b 307 994 344 944 336 957 b 215 1063 274 1038 256 1050 b 113 1076 186 1071 147 1076 b 39 1064 82 1076 54 1071 b 13 1038 22 1056 13 1049 b 32 999 13 1028 19 1015 b 131 942 61 958 90 942 b 185 888 167 942 185 922 b 174 819 185 868 174 835 z m 85 1014 b 67 1021 74 1014 67 1015 b 163 1067 67 1038 147 1065 b 192 1053 165 1067 178 1060 l 217 1039 l 190 1039 b 85 1014 163 1039 114 1014 z m 200 824 b 194 839 197 824 194 829 b 215 908 194 871 207 908 b 225 892 222 908 225 901 b 200 824 225 871 210 824 z m 249 550 b 244 553 246 550 244 550 b 267 575 244 560 261 575 b 269 571 269 575 269 574 b 249 550 269 560 258 550 z m 246 529 b 250 522 249 529 250 528 b 219 490 250 513 229 490 b 217 494 218 490 217 493 b 246 529 217 508 240 529 z m 275 407 b 253 394 275 403 264 396 l 244 394 b 231 418 233 394 231 400 b 236 439 231 432 232 439 b 275 407 246 439 275 413 z m 233 236 b 240 219 238 236 240 231 b 210 139 240 196 219 139 b 203 160 204 139 203 147 b 233 236 203 179 215 236 z m 206 72 l 206 68 b 150 -40 206 49 175 -14 b 94 -68 135 -57 108 -68 b 85 -61 89 -68 85 -67 b 124 -21 85 -57 103 -39 b 160 25 144 -3 160 18 l 160 31 b 196 78 160 51 182 78 b 206 72 200 78 203 76 z "},"^":{"ha":626,"x_min":0,"x_max":0,"o":"m 282 999 b 249 926 276 992 261 958 b 190 822 236 894 210 847 b 79 678 147 768 119 729 b 57 631 64 658 57 643 b 58 624 57 628 58 625 b 63 597 61 613 63 600 b 115 592 63 594 86 593 b 131 590 121 592 126 590 b 208 625 165 590 176 597 b 292 771 251 663 274 700 b 326 822 301 808 308 819 l 332 822 b 400 779 364 822 379 792 b 414 764 408 774 414 769 b 408 753 414 761 411 757 b 397 690 403 746 397 718 l 397 679 b 435 606 397 643 401 636 b 481 575 458 583 469 575 b 501 581 486 575 493 576 b 561 649 543 599 549 606 b 567 690 565 661 567 675 b 532 789 567 735 551 783 b 415 931 511 796 439 883 b 378 983 406 949 389 974 b 308 1007 361 999 331 1007 b 282 999 296 1007 286 1004 z m 338 969 b 319 960 338 964 331 960 b 278 888 300 960 278 922 b 208 804 278 867 226 804 b 201 810 203 804 201 806 b 235 861 201 817 211 832 b 268 928 253 885 268 915 b 297 990 268 956 285 990 b 338 969 308 990 338 978 z m 429 681 b 447 783 429 707 447 761 b 453 806 447 799 447 806 b 494 779 461 806 494 783 b 482 764 494 775 490 772 b 464 726 472 754 464 736 b 438 663 464 696 449 663 b 429 681 431 663 429 671 z m 124 686 l 122 688 b 157 726 122 700 147 726 b 161 722 160 726 161 725 b 124 686 161 721 129 686 z "},"_":{"ha":647,"x_min":0,"x_max":0,"o":"m 318 -18 b 235 -36 296 -18 260 -36 b 188 -26 222 -36 208 -33 b 147 -15 168 -19 156 -15 b 115 -32 136 -15 129 -21 b 64 -89 86 -54 64 -78 b 167 -146 64 -104 139 -146 b 226 -126 183 -146 208 -137 b 264 -114 242 -117 250 -114 b 353 -132 279 -114 303 -119 b 508 -161 404 -144 475 -157 b 550 -165 528 -162 540 -165 b 575 -144 569 -165 571 -160 b 579 -118 578 -135 579 -126 b 536 -37 579 -90 565 -67 b 415 7 501 -3 475 7 b 318 -18 375 7 353 -18 z m 404 -93 b 385 -83 399 -93 393 -89 b 346 -68 374 -75 356 -68 b 324 -61 331 -68 324 -65 b 435 -31 324 -44 424 -31 b 450 -39 444 -31 447 -33 b 451 -42 450 -40 451 -40 b 404 -93 451 -54 415 -93 z m 251 -68 b 250 -67 250 -68 250 -68 b 258 -56 250 -65 253 -62 b 288 -39 267 -44 279 -39 b 299 -49 294 -39 299 -42 b 289 -58 299 -54 294 -58 b 251 -68 283 -58 260 -68 z m 118 -82 b 106 -69 111 -82 106 -76 b 146 -49 106 -58 122 -49 l 147 -49 b 160 -51 156 -49 160 -49 b 118 -82 160 -58 128 -82 z "},"`":{"ha":367,"x_min":0,"x_max":0,"o":"m 3 890 l 3 886 b 150 736 3 829 64 767 b 226 653 196 719 199 717 b 294 606 242 619 260 606 b 328 608 304 606 315 606 b 361 643 357 614 361 615 l 361 653 b 272 774 360 701 336 732 b 204 881 224 804 204 836 b 207 921 204 892 207 910 b 107 989 207 958 149 989 b 3 890 46 989 6 951 z m 151 951 b 124 940 151 946 142 940 b 78 911 101 940 89 933 b 57 888 69 894 63 888 b 42 911 51 888 46 894 b 40 919 42 914 40 917 b 111 968 40 946 76 968 b 151 951 125 968 151 961 z m 72 854 b 61 853 72 853 68 853 b 36 868 51 853 36 858 b 40 872 36 871 38 872 b 72 854 43 872 72 863 z m 297 704 l 297 701 b 260 694 293 697 275 694 l 251 694 b 239 710 243 696 239 703 b 269 735 239 724 257 735 b 297 704 278 735 297 714 z "},"a":{"ha":624,"x_min":0,"x_max":0,"o":"m 167 549 b 254 604 190 549 217 565 b 315 654 281 632 307 654 b 411 549 336 654 411 583 b 364 482 411 522 389 490 b 344 468 353 479 344 472 b 265 389 344 456 294 406 b 201 344 250 381 221 361 b 79 250 103 264 86 250 b 19 122 71 250 19 140 b 78 29 19 96 53 42 b 133 -11 92 22 117 4 b 178 -32 151 -28 160 -32 b 296 -22 213 -32 261 -22 b 397 -39 339 -22 378 -28 b 424 -49 408 -44 417 -49 b 469 -24 435 -49 444 -40 b 539 103 517 8 532 35 b 543 153 542 126 543 140 b 528 272 543 178 528 235 b 532 325 528 289 529 307 b 571 510 551 449 561 499 b 582 565 579 519 582 542 b 528 736 582 628 558 717 b 392 774 504 751 418 774 b 383 771 386 774 383 772 b 290 747 383 763 319 747 b 279 749 285 747 282 747 b 275 750 278 749 276 750 b 225 728 265 750 244 740 b 151 694 203 713 171 697 b 90 631 113 688 90 661 b 167 549 90 600 124 549 z m 513 717 b 497 713 513 714 506 713 b 482 722 489 713 482 717 b 490 728 482 725 486 728 b 513 717 499 728 513 719 z m 167 661 b 128 639 143 661 128 654 b 118 625 128 631 124 625 b 108 640 111 625 108 631 b 121 671 108 651 113 664 b 235 692 132 681 165 686 l 247 692 b 254 690 251 692 254 692 b 240 674 254 688 249 683 b 207 657 231 663 221 657 b 167 661 193 657 179 661 z m 463 517 b 428 471 463 494 456 483 b 374 422 410 463 385 440 b 331 375 363 404 343 383 b 300 340 318 367 303 350 b 200 274 296 329 256 301 b 88 194 132 239 101 218 b 60 163 75 174 65 163 b 56 169 57 163 56 165 b 61 192 56 174 57 182 b 211 318 74 226 144 286 b 265 358 236 331 260 349 b 310 397 271 368 290 386 b 397 485 357 424 350 458 b 444 525 417 496 438 514 b 460 543 453 538 457 543 b 463 517 463 543 463 535 z m 424 333 b 393 263 424 319 410 288 b 358 192 376 238 361 207 b 229 85 353 161 258 85 l 228 85 b 208 117 218 86 210 99 l 208 126 b 292 232 208 153 224 171 b 351 296 314 251 342 281 b 411 360 376 338 399 360 b 424 333 419 360 424 351 z m 428 218 b 292 61 403 139 363 93 b 263 50 276 54 267 50 b 260 51 261 50 260 50 b 318 107 260 57 279 75 b 374 163 349 132 374 157 b 389 207 374 168 381 189 b 422 242 399 229 413 242 b 429 231 426 242 429 238 b 428 218 429 228 429 224 z m 135 172 b 129 181 131 172 129 176 b 156 201 129 190 142 201 b 167 199 163 201 167 201 b 135 172 167 193 140 172 z "},"b":{"ha":647,"x_min":0,"x_max":0,"o":"m 96 951 b 97 944 96 949 97 946 b 99 935 99 942 99 939 b 93 903 99 925 96 913 b 58 719 82 871 68 754 b 56 704 57 714 56 710 b 114 554 56 676 72 639 b 138 486 131 521 138 504 b 113 397 138 467 118 397 b 74 336 108 397 90 369 b 46 253 53 296 46 278 b 47 232 46 246 46 240 b 89 -22 68 54 76 8 l 103 -58 l 126 -37 b 161 -18 140 -24 150 -18 b 194 -31 171 -18 181 -22 b 407 -57 214 -43 326 -57 b 433 -56 417 -57 425 -56 b 563 19 478 -54 538 -19 b 603 160 578 43 590 88 l 603 174 b 592 235 603 192 599 214 b 581 306 585 254 581 281 b 597 394 581 338 586 371 b 601 417 600 400 601 407 b 540 589 601 461 574 540 b 431 731 465 696 457 708 b 360 751 414 744 386 751 b 318 744 344 751 331 750 b 249 651 301 738 261 683 b 222 635 244 640 233 635 b 183 689 199 635 183 664 b 222 774 183 713 196 739 b 261 840 243 803 261 832 b 236 886 261 849 250 868 b 211 925 222 904 211 921 b 188 951 211 928 200 942 b 157 990 175 961 160 979 b 138 1008 153 1003 146 1008 b 96 951 121 1008 96 972 z m 393 733 b 394 731 393 732 394 732 b 381 722 394 726 389 722 b 310 621 351 722 310 663 l 310 585 l 221 585 l 256 615 b 290 667 275 632 290 656 b 374 743 290 701 342 743 b 393 733 382 743 389 740 z m 113 664 b 122 649 118 664 122 658 b 114 635 122 640 118 635 b 97 650 104 635 97 642 b 113 664 97 658 106 664 z m 518 547 b 526 531 524 547 526 542 b 482 506 526 518 506 506 b 476 510 478 506 476 507 b 518 547 476 521 510 547 z m 439 510 b 447 453 443 497 447 471 b 463 385 447 435 454 404 b 478 275 472 361 478 317 b 460 164 478 228 472 182 b 374 99 431 119 407 99 b 297 122 353 99 329 107 l 235 153 l 228 207 b 226 239 226 218 226 228 b 261 374 226 293 240 350 b 319 494 285 401 319 472 b 383 540 319 524 351 540 b 439 510 407 540 431 531 z m 218 486 b 214 489 215 486 214 488 b 239 506 214 494 239 506 b 240 504 240 506 240 506 b 218 486 240 496 226 486 z m 78 299 b 138 363 78 318 104 349 b 182 403 157 371 176 388 b 206 428 188 418 199 428 b 211 418 210 428 211 425 b 201 403 211 413 207 407 b 192 364 196 400 192 382 b 161 324 192 335 188 329 b 111 297 144 319 122 308 b 89 283 101 288 94 283 b 78 299 83 283 78 292 z m 83 242 b 75 250 79 242 75 244 b 89 265 75 257 82 265 b 100 257 94 265 100 261 b 83 242 100 251 89 242 z m 546 208 b 517 161 546 203 533 182 b 488 104 500 140 488 115 b 468 72 488 93 479 78 b 442 38 457 67 444 51 b 389 0 436 14 414 0 b 315 19 367 0 332 17 b 293 28 300 22 293 25 b 332 33 293 31 307 33 b 432 101 375 33 379 36 b 497 199 463 139 492 182 b 519 225 504 217 510 225 b 528 224 522 225 525 224 b 546 208 539 221 546 214 z m 250 53 b 260 32 256 42 260 36 b 251 26 260 28 257 26 b 228 29 246 26 238 28 b 175 46 189 36 175 39 b 182 58 175 49 178 53 b 214 72 190 68 201 72 b 250 53 229 72 243 65 z "},"c":{"ha":551,"x_min":0,"x_max":0,"o":"m 446 157 b 394 143 431 157 414 153 b 306 121 372 132 333 122 l 293 121 b 232 171 249 121 232 135 b 236 219 232 186 236 206 b 221 276 236 239 231 256 b 157 385 193 332 176 361 b 144 419 149 394 144 407 b 165 467 144 438 151 456 b 179 490 174 474 179 483 b 221 572 179 507 207 561 b 378 611 236 585 347 611 b 396 590 389 611 396 600 b 431 549 396 582 411 564 l 467 522 l 496 554 b 518 590 513 572 518 579 b 508 621 518 597 514 606 b 433 700 492 661 456 700 b 428 699 432 700 429 699 l 424 699 b 363 726 413 699 388 710 b 239 768 324 753 276 768 b 129 713 182 768 164 733 b 58 590 106 699 71 615 b 42 419 51 576 42 467 b 64 353 42 382 47 374 b 101 211 94 317 101 293 l 101 143 b 108 50 101 94 104 56 b 121 14 114 44 119 26 b 225 -51 126 -17 182 -51 b 342 -39 247 -51 282 -47 b 501 106 419 -29 501 50 b 446 157 501 139 474 157 z m 276 721 b 222 690 258 717 233 704 b 172 667 210 675 192 667 b 146 675 156 667 146 669 b 186 713 146 682 160 694 b 272 744 217 733 249 744 b 296 738 282 744 290 742 b 301 732 299 735 301 733 b 276 721 301 728 293 724 z m 340 719 b 357 703 349 719 357 713 b 342 693 357 699 350 693 b 326 704 332 693 326 699 b 340 719 326 710 333 719 z m 422 682 b 443 665 431 682 440 675 l 443 664 b 426 654 443 658 436 654 b 406 665 413 654 406 658 b 422 682 406 672 414 682 z m 150 201 b 140 192 150 196 146 192 b 129 201 135 192 129 196 b 140 211 129 207 135 211 b 150 201 146 211 150 207 z m 157 157 b 151 139 157 150 156 143 b 140 106 144 132 140 118 b 129 83 140 93 135 83 b 119 124 124 83 119 103 b 142 181 119 146 124 181 b 157 157 149 181 157 169 z m 465 122 b 438 107 465 117 453 110 b 269 64 415 103 293 64 b 258 72 261 64 258 67 b 339 113 258 85 271 93 b 440 131 381 125 418 131 b 465 122 456 131 465 128 z m 249 93 b 238 83 249 88 243 83 b 228 93 232 83 228 88 b 238 103 228 99 232 103 b 249 93 243 103 249 99 z "},"d":{"ha":682,"x_min":0,"x_max":0,"o":"m 125 757 b 133 699 125 742 133 717 b 100 626 133 667 121 638 b 60 556 85 618 71 594 b 44 482 49 519 44 499 b 58 436 44 467 49 454 b 68 407 65 424 68 415 b 53 364 68 397 64 386 l 32 319 l 57 265 b 82 172 71 235 82 193 b 121 56 82 149 96 106 b 200 -46 154 -12 165 -28 b 246 -61 221 -57 233 -61 b 275 -54 254 -61 264 -58 b 319 -47 289 -50 307 -47 b 332 -49 325 -47 329 -47 b 339 -50 335 -49 336 -50 b 397 -14 353 -50 369 -39 b 451 21 426 13 436 21 b 535 4 469 21 526 4 b 640 288 561 4 640 226 b 628 351 640 307 632 318 b 614 428 625 374 618 410 b 608 547 610 443 608 489 b 625 847 608 668 617 836 b 631 865 629 851 631 858 b 601 921 631 882 621 903 b 550 953 578 943 564 953 b 500 892 524 953 506 918 b 483 832 492 849 490 850 b 458 621 479 819 467 629 b 447 617 456 618 451 617 b 408 647 435 617 418 629 b 288 786 363 732 339 760 b 204 811 256 803 228 811 b 125 757 174 811 125 786 z m 551 925 b 565 914 558 925 565 921 b 550 910 565 911 558 910 b 539 915 543 910 539 911 b 551 925 539 922 547 925 z m 146 758 b 163 782 146 764 151 772 b 214 801 176 794 199 801 b 231 792 224 801 231 799 b 218 782 231 786 225 782 b 183 760 211 782 196 772 b 158 746 174 750 165 746 b 146 758 153 746 146 753 z m 501 738 b 563 801 501 772 539 801 b 575 789 569 801 575 797 b 506 728 575 776 519 728 b 501 738 501 728 501 732 z m 349 654 b 339 644 349 649 344 644 b 328 654 333 644 328 649 b 339 664 328 660 333 664 b 349 654 344 664 349 660 z m 103 592 b 149 635 103 604 135 635 b 156 631 154 635 156 633 b 149 614 156 628 153 622 b 111 586 139 597 122 586 b 103 592 107 586 103 589 z m 297 576 b 357 531 310 563 338 542 b 393 481 385 515 392 504 b 426 413 394 424 397 418 b 464 364 454 406 464 394 b 440 260 464 328 453 274 b 418 218 433 251 424 233 b 393 192 413 203 401 192 b 346 161 385 192 364 178 b 294 132 326 142 311 132 b 200 207 269 132 243 156 b 172 294 182 228 175 250 b 169 372 169 326 169 351 b 200 524 169 426 176 458 b 246 610 225 594 232 610 b 297 576 264 610 282 594 z m 429 576 b 419 579 425 576 421 578 l 419 581 b 431 585 419 582 424 585 b 433 583 432 585 432 583 b 443 582 440 583 443 583 b 429 576 443 578 433 576 z m 574 367 b 585 349 582 367 585 361 b 572 332 585 336 582 332 b 532 338 565 332 540 338 b 508 313 519 338 515 331 b 490 260 503 297 493 274 b 440 206 485 239 451 206 b 436 211 438 206 436 207 b 481 290 436 222 481 275 b 478 297 481 293 478 294 b 517 378 478 315 507 378 b 531 368 521 378 526 374 b 547 363 533 364 539 363 b 574 367 556 363 568 367 z m 153 150 l 176 144 l 149 132 b 125 125 139 128 131 125 b 107 153 113 125 107 135 b 108 164 107 157 108 160 b 114 190 110 182 111 190 b 121 176 115 190 117 186 b 153 150 125 165 140 153 z m 426 163 b 394 118 426 157 413 138 b 286 83 363 83 358 83 b 203 99 231 83 203 90 b 290 117 203 107 232 115 b 383 144 333 118 353 124 b 425 171 410 163 421 171 b 426 163 428 171 426 168 z m 479 161 b 496 142 489 161 496 154 b 426 93 496 124 451 93 b 425 96 425 93 425 94 b 479 161 425 111 454 161 z "},"e":{"ha":585,"x_min":0,"x_max":0,"o":"m 219 189 b 251 242 219 203 231 219 b 292 292 271 263 289 285 b 344 303 294 299 310 303 b 372 301 353 303 363 301 l 390 301 b 481 313 429 301 463 306 b 543 435 522 329 543 378 b 517 549 543 471 535 511 b 467 707 488 607 492 649 b 401 763 451 742 443 750 b 322 776 369 772 344 776 b 221 743 289 776 260 765 b 156 683 179 719 160 701 b 113 624 153 669 133 643 b 68 558 92 604 72 574 b 28 453 57 518 28 500 b 33 422 28 442 29 432 b 67 329 46 390 46 353 b 82 301 75 319 82 307 b 97 279 82 296 89 286 b 107 239 104 274 107 260 b 100 172 107 221 106 199 b 99 164 100 169 99 167 b 135 51 99 132 119 67 b 311 18 167 21 181 18 b 461 39 415 18 436 22 b 542 124 496 63 542 75 b 535 147 542 132 540 142 b 446 183 515 171 482 183 b 410 179 435 183 422 182 b 269 164 369 169 308 164 b 219 189 242 164 219 168 z m 343 743 b 324 733 340 738 332 733 b 275 703 317 733 293 719 b 238 675 253 683 243 675 b 232 690 233 675 232 681 b 321 751 232 725 269 750 l 324 751 b 344 744 336 751 344 749 b 343 743 344 743 343 744 z m 328 615 b 414 532 360 607 414 553 b 286 464 414 519 317 474 b 238 413 276 461 254 438 b 189 371 217 382 203 371 l 186 371 b 164 396 172 374 164 381 b 210 521 164 418 179 457 b 288 624 249 600 260 624 b 328 615 299 624 310 621 z m 200 608 b 146 544 200 606 176 576 b 92 476 115 513 92 482 b 78 467 92 471 86 467 b 64 478 68 467 64 469 b 79 526 64 486 69 501 b 140 590 92 558 104 572 b 196 613 174 607 189 613 b 200 608 199 613 200 611 z m 419 467 b 338 432 410 467 374 451 b 267 400 296 410 275 400 b 263 403 264 400 263 400 b 306 442 263 421 288 436 b 358 467 321 446 344 456 b 401 486 374 478 393 486 b 433 513 410 486 425 499 b 451 529 442 524 447 529 b 454 522 454 529 454 526 b 419 467 454 501 439 467 z m 67 432 b 76 438 67 436 69 438 b 92 428 85 438 92 433 b 82 418 92 422 88 418 b 67 432 75 418 67 424 z m 235 332 b 231 336 232 332 231 335 b 261 378 231 343 254 378 b 264 371 264 378 264 375 b 235 332 264 353 250 332 z m 322 147 b 378 140 351 147 378 146 b 311 132 378 136 349 132 l 306 132 b 250 138 269 132 250 135 b 322 147 250 146 303 147 z "},"f":{"ha":488,"x_min":0,"x_max":0,"o":"m 458 496 b 449 543 458 510 449 529 l 449 550 b 451 560 450 553 451 557 b 343 618 451 590 399 618 b 313 615 333 618 322 617 l 274 607 l 307 606 b 357 594 325 606 349 600 b 365 588 361 592 365 589 b 306 581 365 585 350 583 b 269 561 297 581 282 572 b 251 549 260 553 254 549 b 249 551 250 549 249 550 b 264 599 249 553 264 592 b 263 600 264 600 264 600 b 244 589 260 600 256 596 b 222 579 233 582 226 579 b 206 618 213 579 206 603 b 221 669 206 636 211 657 b 233 732 226 676 232 704 b 263 808 236 776 249 808 b 269 806 265 808 268 807 b 301 833 275 806 289 817 b 368 864 318 854 335 864 b 446 856 388 864 411 861 b 471 853 456 854 464 853 b 524 915 508 853 524 872 b 500 961 524 942 518 953 b 481 979 489 967 481 974 b 482 981 481 981 482 981 l 482 982 b 454 989 482 986 468 989 b 422 983 442 989 426 988 b 324 950 411 972 346 950 b 288 965 314 950 296 957 b 268 976 279 972 275 976 b 249 969 263 976 257 974 b 218 961 239 964 228 961 l 211 961 b 206 963 210 961 208 963 b 165 950 196 963 179 958 b 104 788 135 933 117 885 b 85 728 101 765 92 739 b 71 643 75 714 71 676 b 83 582 71 613 75 585 b 94 489 92 579 94 554 l 94 457 b 71 307 93 349 90 333 b 46 175 54 285 46 229 b 64 63 46 131 51 88 b 126 11 81 29 103 11 b 186 50 147 11 168 24 b 208 157 201 71 207 96 b 224 361 211 260 217 268 b 296 486 229 440 257 486 b 332 474 307 486 319 482 b 406 450 347 464 379 450 b 458 496 426 450 458 476 z m 235 947 b 249 940 243 947 249 946 b 190 903 249 928 232 918 b 158 894 175 897 165 894 b 150 901 153 894 150 897 b 235 947 150 929 204 947 z m 485 925 b 475 910 485 917 481 910 b 465 925 469 910 465 917 b 475 940 465 933 469 940 b 485 925 481 940 485 933 z m 185 826 b 146 772 185 806 163 772 b 138 782 140 772 138 775 b 169 850 138 806 157 850 b 185 826 175 850 185 839 z m 143 722 b 150 714 147 722 150 719 b 135 693 150 708 143 700 b 110 657 126 686 115 669 b 92 633 104 642 97 633 b 85 647 88 633 85 639 b 143 722 85 682 125 722 z m 178 506 b 172 511 174 506 172 508 b 190 526 172 518 185 526 b 196 522 194 526 196 525 b 178 506 196 514 183 506 z m 106 289 b 100 300 103 289 100 294 b 111 310 100 306 106 310 b 117 304 115 310 117 307 b 106 289 117 297 107 289 z m 64 174 b 69 181 64 178 65 181 b 83 161 75 181 81 172 b 114 142 86 147 96 142 b 140 129 129 142 140 136 b 106 117 140 121 128 117 b 71 133 81 117 71 121 b 64 174 71 146 64 161 z "},"g":{"ha":653,"x_min":0,"x_max":0,"o":"m 364 771 b 313 758 343 771 328 767 b 271 747 299 751 282 747 b 264 749 268 747 265 749 l 260 749 b 108 594 228 749 147 667 b 68 458 82 544 72 514 b 51 367 65 419 57 378 b 40 322 44 353 40 338 b 65 263 40 300 50 279 b 119 175 79 247 103 208 l 150 114 l 124 97 b 24 3 71 63 24 18 b 47 -26 24 -6 33 -19 b 132 -37 61 -35 97 -37 b 207 -28 164 -37 194 -35 b 349 -10 226 -18 299 -10 b 396 -15 371 -10 389 -11 b 422 -75 411 -24 422 -53 b 421 -90 422 -81 422 -86 b 379 -110 418 -97 399 -107 b 285 -161 317 -121 310 -124 b 260 -204 271 -181 260 -201 b 354 -229 260 -215 318 -229 b 431 -218 378 -229 410 -219 b 550 -175 481 -211 504 -203 b 610 -99 588 -153 597 -142 b 624 -32 618 -71 624 -40 b 575 32 624 -24 601 4 b 469 83 528 81 524 82 b 360 124 418 83 360 85 b 404 165 360 144 378 165 b 426 164 411 165 419 164 b 553 296 471 164 518 214 b 600 400 571 338 593 386 b 608 447 606 411 608 429 b 593 501 608 472 603 496 b 585 525 589 504 585 515 b 558 594 585 535 572 565 b 538 664 544 621 538 643 b 594 764 538 696 556 722 b 642 833 629 800 642 817 b 632 865 642 843 638 851 b 583 890 625 882 611 890 b 513 881 565 890 543 886 b 463 828 467 871 467 871 b 411 768 458 783 447 768 b 364 771 397 768 378 771 z m 379 731 b 333 703 363 731 354 724 b 289 676 315 686 299 676 l 285 676 b 271 690 275 681 271 685 b 315 733 271 700 285 713 b 365 758 340 751 354 758 b 379 754 371 758 374 757 b 424 743 389 749 410 743 b 503 793 453 743 503 775 l 503 797 b 500 808 501 801 500 806 b 504 815 500 814 501 815 b 535 771 517 815 535 779 l 535 769 b 496 740 535 765 517 753 b 444 721 474 726 461 721 b 379 731 428 721 393 731 z m 414 586 b 483 497 463 547 483 524 b 436 410 483 467 451 421 b 417 378 426 403 417 388 b 294 240 417 357 313 240 b 242 321 279 240 257 274 b 204 394 235 340 218 375 b 182 460 189 415 182 438 b 232 564 182 493 199 528 b 335 624 279 615 292 622 l 336 624 b 414 586 357 624 381 613 z m 136 558 b 96 500 113 517 101 500 b 92 510 93 500 92 503 b 150 604 92 536 133 604 b 154 600 154 604 154 604 b 136 558 154 593 149 579 z m 82 340 b 72 329 82 335 78 329 b 63 344 65 329 63 336 b 74 381 63 354 67 367 b 92 463 88 407 88 429 b 93 465 92 465 92 465 b 108 397 100 465 108 410 b 82 340 108 375 82 357 z m 488 396 b 454 340 478 393 464 369 b 397 264 440 301 428 283 b 356 244 376 251 363 244 b 351 249 353 244 351 246 b 379 288 351 254 361 268 b 447 390 418 329 447 372 b 497 438 447 408 478 438 b 510 426 506 438 510 433 b 488 396 510 411 497 399 z m 315 99 b 289 65 315 85 304 65 b 269 81 283 65 278 69 b 250 96 261 90 254 96 b 249 94 249 96 249 96 b 163 40 246 85 179 40 b 124 64 149 40 124 58 b 144 78 124 69 131 74 b 188 104 157 82 175 93 b 222 119 199 114 210 119 b 244 117 229 119 238 117 b 275 132 256 117 265 121 b 293 144 283 140 288 144 b 315 99 303 144 315 122 z m 363 69 b 376 81 363 76 368 81 b 386 78 379 81 383 79 b 418 72 393 75 408 72 b 438 63 428 72 438 68 b 401 54 438 57 419 54 b 363 69 381 54 363 56 z m 543 -44 b 518 -75 543 -58 532 -75 b 489 -92 510 -75 497 -82 b 479 -103 483 -99 481 -103 b 478 -100 478 -103 478 -101 b 482 -81 478 -97 479 -90 b 524 -24 489 -47 508 -24 b 543 -44 532 -24 543 -33 z m 443 -164 b 438 -156 439 -164 438 -161 b 469 -124 438 -144 458 -124 b 472 -128 471 -124 472 -125 b 443 -164 472 -143 453 -164 z "},"h":{"ha":696,"x_min":0,"x_max":0,"o":"m 122 -25 b 179 33 149 -25 168 -6 b 240 260 218 169 229 211 b 285 364 247 289 267 336 b 324 449 303 393 321 431 b 375 522 328 472 343 493 b 463 582 422 564 446 582 b 485 571 471 582 476 578 b 565 438 507 551 565 454 b 531 374 565 432 550 403 b 496 296 511 344 496 310 b 478 235 496 263 478 271 b 482 174 478 219 482 190 b 472 142 482 157 479 147 b 453 86 460 132 453 110 b 483 -47 453 42 468 -31 b 521 -65 494 -60 507 -65 b 565 -24 543 -65 565 -49 b 589 10 565 -14 576 1 b 629 161 621 31 625 51 b 643 479 632 246 643 400 b 640 560 643 504 643 525 b 592 713 635 639 624 675 b 475 771 558 750 518 771 b 317 688 413 771 343 725 b 288 654 304 669 292 654 b 240 585 278 654 250 585 b 213 668 231 585 213 649 b 219 689 213 676 214 683 b 231 746 226 697 231 719 b 200 896 231 797 218 865 b 163 947 188 917 171 940 b 132 958 153 956 142 958 b 88 910 104 958 103 928 b 61 829 75 893 61 853 b 63 821 61 826 63 824 b 86 783 64 813 74 796 b 111 663 103 765 111 717 b 78 417 111 574 83 506 b 63 315 75 375 68 329 b 54 190 58 301 54 247 l 54 163 b 49 38 54 107 51 53 b 46 19 47 31 46 24 b 122 -25 46 -1 97 -25 z m 90 858 l 89 858 b 86 869 88 861 86 865 b 128 935 86 893 113 935 b 135 926 132 935 135 932 b 90 858 135 911 104 858 z m 140 686 b 129 703 135 686 129 692 l 129 710 b 157 753 135 744 140 753 b 168 744 164 753 168 750 b 165 735 168 742 167 739 b 140 686 160 722 156 686 z m 465 735 b 454 733 465 733 463 733 b 436 725 444 733 436 729 b 404 706 436 721 422 713 b 339 644 385 699 360 675 b 293 593 315 611 299 593 b 290 597 292 593 290 594 b 303 638 290 604 294 618 b 403 736 318 674 358 713 b 438 751 422 746 431 751 b 465 735 440 751 465 740 z m 147 614 b 151 594 150 614 151 606 b 142 575 151 583 147 575 b 138 585 139 575 138 579 b 147 614 138 596 144 614 z m 510 297 b 544 363 510 313 519 329 b 585 428 567 392 585 421 b 588 436 585 433 586 436 b 593 419 592 436 593 428 b 554 325 593 378 581 347 b 525 260 531 304 525 292 b 511 221 525 231 522 221 b 496 236 501 221 496 228 b 507 256 496 243 500 251 b 513 274 511 258 513 265 b 510 297 513 282 510 289 z m 108 367 b 110 364 110 367 110 365 b 126 349 111 356 118 349 b 142 343 135 349 142 346 b 78 282 142 333 88 282 b 76 285 78 282 76 283 b 108 367 76 296 97 367 z m 161 329 b 154 339 157 329 154 333 b 164 357 154 344 160 357 b 169 342 169 357 169 347 b 161 329 169 335 165 329 z m 76 210 b 93 250 76 226 85 250 b 101 226 97 250 101 239 b 86 193 101 208 94 193 b 76 210 81 193 76 203 z m 75 36 b 72 39 74 36 72 36 b 86 60 72 49 79 60 b 92 56 90 60 92 58 b 75 36 92 50 83 36 z "},"i":{"ha":293,"x_min":0,"x_max":0,"o":"m 78 661 b 57 561 64 632 57 597 b 81 446 57 522 65 482 b 100 382 94 415 100 401 b 69 253 100 347 79 271 b 61 201 64 243 61 226 b 64 160 61 189 63 176 b 104 56 69 93 71 85 b 183 22 128 35 160 22 b 210 33 196 22 206 25 b 225 135 214 39 221 85 b 249 264 229 185 240 243 b 260 300 256 281 260 290 b 206 413 260 328 218 399 b 172 489 185 436 172 464 b 203 551 172 514 182 536 b 214 565 210 557 214 560 b 196 607 214 572 208 585 b 117 701 160 671 138 701 b 78 661 103 701 90 688 z m 128 604 b 146 590 139 604 146 600 b 119 556 146 583 135 567 l 92 533 l 89 556 b 88 561 89 558 88 558 b 128 604 88 586 106 604 z m 82 192 b 103 260 82 217 92 246 b 122 332 110 268 118 301 b 147 388 128 378 132 388 b 165 368 158 388 165 381 b 154 326 165 357 160 339 b 135 275 147 314 139 292 b 92 160 132 265 103 160 b 82 192 85 160 82 182 z m 93 115 b 88 126 89 115 88 119 b 97 142 88 135 92 142 b 107 132 103 142 107 138 b 93 115 107 128 101 115 z m 106 950 b 103 942 106 944 106 942 b 99 943 101 942 100 942 b 96 944 97 943 97 944 b 65 903 81 944 65 921 b 90 871 65 886 75 871 b 128 851 97 871 114 863 b 185 825 150 833 169 825 b 243 932 226 825 243 888 b 231 976 243 953 239 971 b 129 992 219 983 160 992 l 115 992 b 103 975 107 990 103 985 b 106 950 103 969 106 956 z "},"j":{"ha":296,"x_min":0,"x_max":0,"o":"m 60 618 b 88 447 60 558 69 494 b 117 249 110 393 117 343 l 117 185 b 86 81 115 122 110 108 b 46 -7 69 61 54 25 b 25 -75 39 -37 29 -68 b 11 -83 22 -81 17 -83 b -14 -56 0 -83 -14 -71 b -97 -4 -14 -29 -51 -7 b -111 -3 -103 -4 -107 -3 b -151 -28 -133 -3 -140 -10 b -160 -50 -157 -37 -160 -43 b -139 -89 -160 -60 -153 -69 b -112 -140 -124 -108 -112 -131 b -26 -221 -112 -164 -37 -207 b 32 -233 -19 -229 6 -233 b 104 -218 61 -233 93 -228 b 138 -203 113 -210 129 -203 b 219 -128 160 -203 218 -150 b 238 -60 221 -118 228 -87 b 254 56 249 -26 254 17 b 242 132 254 88 250 117 b 206 324 224 165 211 229 b 201 433 203 361 201 399 b 214 560 201 500 207 553 b 218 575 217 563 218 568 b 169 706 218 606 196 665 b 117 767 139 753 131 767 b 60 618 69 767 60 699 z m 124 644 b 118 633 124 642 122 638 b 101 592 113 626 106 607 b 89 569 97 576 93 569 b 79 600 83 569 79 581 l 79 613 b 110 733 85 686 96 733 b 124 718 117 733 124 726 b 115 679 124 710 121 693 b 110 661 113 671 110 665 b 124 644 110 650 124 653 z m 153 349 b 164 336 158 349 164 344 b 144 265 164 306 153 265 l 143 265 b 135 308 138 268 135 289 b 153 349 135 331 138 349 z m 189 19 b 165 4 189 11 175 4 b 156 13 158 4 156 7 b 174 32 156 24 165 32 b 189 19 178 32 189 28 z m 69 -75 b 65 -65 67 -75 65 -71 b 75 -56 65 -60 69 -56 b 82 -60 79 -56 82 -57 b 69 -75 82 -65 71 -75 z m 94 935 b 53 865 94 910 72 871 b 36 849 42 861 36 856 b 89 817 36 835 65 817 b 146 832 103 817 118 822 b 206 883 194 850 201 856 l 206 896 b 185 946 206 914 200 926 b 146 978 168 967 157 978 b 94 935 129 978 94 949 z "},"k":{"ha":617,"x_min":0,"x_max":0,"o":"m 63 65 b 111 29 63 40 85 29 b 176 72 142 29 163 43 b 232 238 200 122 226 201 b 258 271 235 260 244 271 b 350 171 283 271 319 233 b 372 118 361 146 372 122 b 396 85 372 114 383 99 b 519 -25 474 1 501 -25 b 544 -10 528 -25 535 -19 b 589 104 569 14 589 65 b 543 183 589 129 578 147 b 485 231 518 208 492 231 b 471 240 476 231 471 235 b 347 364 471 251 372 349 b 333 394 338 369 333 376 b 338 440 333 406 335 419 b 375 526 344 501 346 508 b 415 542 389 535 407 542 b 419 540 417 542 418 540 l 425 540 b 444 549 432 540 439 543 b 507 618 451 556 479 588 b 557 699 542 656 557 676 b 538 744 557 713 550 726 b 490 772 522 765 518 772 b 442 769 479 772 463 771 b 340 732 372 765 365 763 b 307 650 324 711 311 681 b 278 578 303 618 293 593 b 247 557 265 565 254 557 b 228 699 232 557 228 596 b 210 936 226 821 225 861 b 146 979 206 954 168 979 b 117 957 142 979 129 969 b 83 879 93 932 83 907 b 88 844 83 868 85 857 b 101 761 93 824 100 786 b 135 613 104 701 135 674 b 125 546 135 590 131 568 b 51 326 106 476 65 353 b 24 219 39 306 24 254 b 36 194 24 207 28 200 b 72 103 54 182 72 132 b 63 65 72 86 63 78 z m 496 750 b 443 733 496 740 472 733 b 347 654 401 733 354 694 b 268 529 339 610 297 529 b 265 531 267 529 265 529 b 279 547 265 533 269 538 b 326 658 308 579 318 603 b 406 753 335 714 358 742 b 465 761 428 758 449 761 b 496 750 481 761 496 758 z m 181 646 b 190 626 185 646 190 635 b 171 544 190 611 183 585 b 101 406 144 465 113 406 b 97 411 100 406 99 407 l 97 413 b 125 490 97 424 110 458 b 156 565 142 525 156 558 b 181 646 156 572 169 646 z m 103 253 b 101 263 103 256 101 260 b 114 281 101 268 106 275 b 129 303 124 286 129 296 l 129 306 b 128 311 129 307 128 310 b 135 319 128 315 131 319 b 146 311 140 319 146 315 b 101 201 146 282 113 201 b 81 217 88 201 81 208 b 103 253 81 229 103 240 z m 50 242 b 47 251 47 242 47 244 b 69 283 47 267 61 283 b 75 279 72 283 74 283 l 75 276 b 50 242 75 268 60 242 z m 518 154 b 488 135 518 147 508 143 b 460 125 474 129 465 125 b 446 154 451 125 451 133 b 443 171 444 161 443 167 b 460 181 443 179 447 181 b 518 154 478 181 518 168 z m 103 72 b 96 81 99 72 96 75 b 117 103 96 92 107 103 b 121 96 119 103 121 100 b 103 72 121 83 110 72 z "},"l":{"ha":297,"x_min":0,"x_max":0,"o":"m 221 185 b 229 294 221 222 224 269 b 235 340 232 310 235 326 b 228 394 235 365 228 365 b 233 458 228 413 229 435 b 250 599 244 535 250 575 b 243 628 250 615 247 624 b 232 678 236 635 232 656 b 242 733 232 699 235 721 b 246 750 244 739 246 743 b 236 786 246 760 242 771 b 222 858 228 806 222 838 b 169 979 222 904 189 979 b 142 963 163 979 150 971 b 119 808 131 950 119 863 b 125 765 119 786 121 768 b 133 725 131 763 133 746 b 119 642 133 694 129 656 b 104 600 111 631 104 611 l 104 599 b 74 472 104 553 89 490 b 51 418 58 456 51 435 b 60 390 51 408 54 399 b 69 340 65 382 69 363 b 51 239 69 308 64 268 b 40 188 46 224 40 201 l 40 181 b 50 100 42 167 47 131 b 90 14 56 51 61 40 b 128 -15 108 -3 126 -15 b 164 15 129 -15 146 -3 b 221 165 207 57 221 92 z m 182 561 b 163 521 182 536 178 525 b 143 501 151 518 143 508 b 92 439 143 485 104 439 l 89 439 b 88 443 88 440 88 442 b 97 468 88 449 90 460 b 114 513 106 481 114 501 b 174 594 114 535 157 594 b 182 561 179 594 182 579 z m 103 88 b 150 132 103 111 129 132 b 163 121 158 132 163 128 b 111 69 163 107 124 69 b 103 88 104 69 103 82 z "},"m":{"ha":931,"x_min":0,"x_max":0,"o":"m 54 692 b 83 506 54 660 64 603 b 92 438 89 478 92 458 b 71 326 92 408 85 378 b 51 186 58 279 51 229 b 72 78 51 140 58 101 b 107 44 85 56 96 44 b 135 69 117 44 124 53 b 186 133 144 83 168 113 l 221 171 l 214 332 l 208 492 l 258 518 b 314 571 292 536 310 554 b 358 607 318 589 331 599 b 389 613 371 611 381 613 b 422 549 413 613 419 594 b 446 442 424 522 433 474 b 463 383 457 411 463 397 b 453 349 463 372 460 363 b 431 256 444 329 435 288 b 413 172 426 224 419 186 b 385 119 406 158 393 135 b 376 85 379 110 376 97 b 440 -6 376 42 406 -6 b 504 31 458 -6 504 22 b 500 33 504 32 503 33 l 500 35 b 531 85 500 40 513 60 l 568 138 l 568 246 b 546 393 567 338 564 360 b 524 474 533 417 524 449 b 561 551 524 510 529 522 b 646 608 607 594 626 608 b 669 604 653 608 660 607 b 756 503 700 593 713 579 b 775 447 769 478 775 464 b 742 351 775 415 756 361 b 681 171 710 329 681 233 b 688 131 681 154 682 140 b 701 78 694 115 701 92 b 747 -15 701 38 728 -15 b 842 97 769 -14 808 32 b 878 289 863 138 868 172 b 885 404 882 340 885 379 b 881 440 885 425 883 438 b 875 464 876 444 875 453 b 876 481 875 469 875 475 l 876 494 b 782 732 876 563 819 713 b 756 742 772 738 761 742 l 751 742 b 688 749 740 742 706 749 b 615 711 658 749 633 736 b 583 693 607 699 596 693 b 526 728 565 693 544 706 b 492 763 511 746 496 763 b 457 781 488 763 472 771 b 376 808 438 793 404 808 b 329 779 360 808 350 800 b 304 742 314 764 304 747 l 304 740 b 306 738 304 740 306 739 b 232 664 306 724 247 664 b 219 692 225 664 219 676 b 132 782 219 724 164 782 b 54 692 97 782 54 736 z m 443 763 b 447 760 444 761 447 761 b 417 749 447 756 436 751 b 356 708 385 743 372 736 b 326 674 344 690 332 674 b 275 633 321 674 297 656 b 217 594 249 607 228 594 b 210 604 211 594 210 597 b 224 626 210 610 215 619 b 354 757 253 653 333 732 b 394 778 365 771 378 778 b 443 763 408 778 424 772 z m 140 747 b 131 733 140 739 136 733 b 121 747 125 733 121 739 b 131 763 121 756 125 763 b 140 747 136 763 140 756 z m 160 638 b 151 626 160 632 156 628 b 125 588 144 624 133 607 b 108 558 117 568 113 558 b 94 628 103 558 94 603 b 114 654 94 643 100 649 b 142 663 128 660 136 663 b 160 638 150 663 160 649 z m 439 526 b 444 539 439 531 440 535 b 450 563 449 543 450 551 b 447 600 450 574 447 588 b 472 633 447 622 456 633 b 485 622 479 633 485 629 b 475 581 485 615 481 597 b 451 499 471 569 458 499 b 439 526 447 499 439 519 z m 790 521 b 786 529 786 521 786 525 b 803 571 786 539 794 571 b 807 561 806 571 807 567 b 790 521 807 551 799 521 z m 151 475 b 111 301 142 436 118 339 b 81 240 104 265 92 240 b 75 243 79 240 76 242 l 75 247 b 117 442 75 283 113 418 b 138 494 121 464 119 494 b 151 481 144 494 151 489 z m 707 176 b 704 185 704 176 704 178 b 707 222 704 192 704 204 b 765 353 717 294 721 301 b 814 396 790 382 807 396 b 818 388 817 396 818 393 b 789 326 818 364 803 339 b 731 217 761 303 731 246 b 707 176 731 204 721 176 z m 90 181 b 81 171 90 175 86 171 b 71 181 75 171 71 175 b 81 192 71 186 75 192 b 90 181 86 192 90 186 z m 506 143 b 464 113 506 133 479 113 b 429 88 453 113 438 101 b 406 64 419 72 411 64 b 396 90 400 64 396 72 b 451 156 396 124 415 156 b 506 143 468 156 506 153 z m 750 74 b 742 82 746 74 742 76 b 757 97 742 90 750 97 b 767 89 763 97 767 94 b 750 74 767 83 756 74 z "},"n":{"ha":638,"x_min":0,"x_max":0,"o":"m 81 83 b 104 111 81 99 92 111 b 118 99 111 111 118 107 b 89 75 118 88 100 75 b 81 83 82 75 81 76 z m 101 156 b 108 142 101 147 104 142 b 118 132 114 142 118 138 b 111 128 118 129 115 128 b 89 165 94 128 89 146 b 106 201 89 183 94 201 b 107 197 106 201 107 199 b 101 156 107 192 101 167 z m 165 349 b 167 346 165 347 167 347 b 143 321 167 338 157 328 b 118 281 125 313 118 301 b 103 239 118 265 111 246 b 94 233 99 236 96 233 b 90 244 92 233 90 238 b 111 357 90 272 104 349 b 136 367 117 364 126 367 b 165 349 150 367 163 360 z m 125 536 b 128 521 128 536 128 529 b 113 506 128 513 121 506 b 103 510 106 506 103 507 b 125 536 103 518 122 536 z m 119 567 b 103 582 111 567 103 575 b 111 592 103 588 106 592 b 128 574 118 592 128 582 b 119 567 128 569 124 567 z m 101 638 b 122 679 101 649 114 679 b 144 660 129 679 144 665 b 133 644 144 656 140 651 b 118 614 125 636 118 621 b 115 607 118 610 117 607 b 101 638 110 607 101 631 z m 385 765 b 314 689 385 761 353 726 b 253 635 276 651 258 635 b 250 639 251 635 250 638 b 251 644 250 640 251 642 b 292 701 256 658 274 683 b 325 743 310 719 325 738 b 372 772 325 754 354 772 b 385 765 379 772 385 769 z m 125 10 b 133 8 128 10 131 8 b 178 83 168 8 178 28 b 204 181 178 108 189 149 b 228 268 221 214 228 240 b 199 372 228 299 218 329 b 174 447 181 413 174 431 b 217 531 174 483 196 519 b 281 578 231 538 260 560 b 396 629 313 607 365 629 b 422 593 417 629 422 619 l 422 589 b 443 497 422 569 431 529 b 461 428 456 465 461 447 b 454 379 461 414 458 400 b 447 307 450 357 447 329 b 451 257 447 289 451 272 b 435 229 451 243 447 238 b 414 200 422 222 414 208 b 407 178 414 192 411 182 b 397 149 403 174 399 161 b 376 51 394 125 376 82 b 439 -19 376 18 401 -19 b 508 49 464 -19 486 3 b 551 107 522 78 542 104 b 588 200 568 113 581 144 b 596 239 589 213 593 231 b 597 243 596 240 597 242 b 576 279 597 253 589 265 b 551 324 563 293 551 313 l 551 325 b 553 396 551 332 553 361 l 553 446 b 567 563 553 507 557 544 b 581 603 576 579 581 592 b 564 643 581 615 575 626 b 513 746 544 674 526 707 b 414 800 500 775 456 800 b 360 786 396 800 379 794 b 278 714 343 779 307 746 b 218 654 249 682 222 654 b 169 689 214 654 192 669 b 111 721 144 710 126 721 b 72 679 94 721 83 707 b 61 636 65 661 61 650 b 68 590 61 624 64 610 b 90 414 83 526 90 472 b 75 256 90 365 85 315 b 56 142 65 201 57 150 b 44 96 53 122 44 119 b 125 10 44 39 65 13 z "},"o":{"ha":642,"x_min":0,"x_max":0,"o":"m 261 767 b 207 753 222 754 219 753 b 149 608 190 753 160 681 b 108 493 140 560 129 524 b 75 428 93 469 76 439 b 53 386 74 417 64 399 b 13 285 36 368 13 319 b 40 196 13 267 21 246 b 94 108 65 135 79 113 b 138 60 107 106 125 83 b 315 -64 199 -60 203 -62 l 331 -64 b 433 -43 389 -64 407 -60 b 488 -10 451 -32 476 -15 b 508 44 503 -1 507 13 b 511 100 510 68 511 93 b 525 125 511 107 518 117 b 578 243 549 150 571 203 b 603 324 582 265 592 303 b 619 385 614 346 619 365 b 568 478 619 418 603 449 b 518 575 528 513 524 519 b 431 736 511 644 497 671 b 356 781 393 774 383 781 l 336 781 b 261 767 311 779 278 772 z m 257 725 b 210 685 244 715 224 697 b 183 668 197 674 189 668 b 178 675 181 668 178 671 b 185 699 178 681 179 688 b 261 742 197 725 226 742 l 264 742 b 274 739 271 742 274 740 b 257 725 274 736 268 733 z m 403 708 b 410 697 407 703 410 700 b 401 693 410 694 408 693 b 360 711 379 693 360 703 l 360 714 b 376 722 364 719 369 722 b 403 708 385 722 394 718 z m 188 193 b 197 217 188 203 190 213 b 203 231 201 219 203 224 b 201 243 203 235 203 239 b 194 299 197 257 194 279 b 200 343 194 315 196 332 b 211 435 204 354 208 396 b 226 525 214 474 221 514 b 236 563 232 536 236 553 b 293 633 236 576 281 631 b 343 610 296 633 318 622 b 407 549 378 592 394 576 b 461 453 426 503 443 474 b 468 424 465 447 468 438 b 368 156 468 360 419 221 b 286 108 343 124 315 108 b 188 193 250 108 188 146 z m 463 585 b 472 571 468 585 472 581 b 458 556 472 563 467 556 b 443 565 449 556 443 560 b 463 585 443 575 454 585 z m 475 332 b 474 340 474 332 474 335 b 478 378 474 347 475 360 b 506 444 483 421 493 444 b 513 442 508 444 510 443 b 514 438 514 442 514 440 b 475 332 514 418 479 332 z m 39 268 b 58 290 39 278 50 290 b 69 265 65 290 69 281 b 60 246 69 251 67 246 b 39 268 47 246 39 260 z m 286 96 b 404 163 328 96 386 139 b 440 192 415 178 432 192 b 451 188 447 192 451 190 b 444 179 451 186 449 183 b 433 149 438 172 433 158 b 417 125 433 139 426 128 b 365 96 407 121 383 108 b 276 72 343 81 308 72 b 213 88 250 72 226 78 b 199 104 203 94 199 101 b 207 107 199 107 201 107 b 286 96 219 107 268 96 z "},"p":{"ha":640,"x_min":0,"x_max":0,"o":"m 118 683 b 94 610 118 669 108 636 b 76 560 82 586 76 569 b 81 549 76 554 78 551 b 86 526 85 543 86 535 b 86 517 86 524 88 519 b 85 506 86 514 85 510 b 103 358 85 471 103 397 b 96 275 103 329 96 308 l 96 249 b 47 53 96 210 74 119 b 14 -58 24 -4 14 -37 b 18 -79 14 -67 15 -74 b 33 -129 24 -90 31 -112 b 63 -250 43 -185 56 -239 b 106 -261 67 -257 86 -261 b 156 -250 126 -261 149 -258 b 171 -185 161 -243 167 -214 b 197 -101 175 -156 186 -118 b 217 -50 208 -83 217 -61 b 231 -21 217 -31 221 -21 b 258 -32 238 -21 246 -25 b 304 -43 274 -39 285 -43 b 374 -36 319 -43 340 -40 b 503 28 468 -24 503 -7 b 531 89 503 40 515 67 b 567 153 546 111 563 139 b 582 188 571 165 576 182 b 606 296 589 196 606 268 b 589 356 606 315 600 331 b 574 424 578 382 574 400 b 578 483 574 442 578 467 b 542 579 578 510 569 528 b 503 668 519 619 503 660 b 406 710 503 697 472 710 l 375 710 b 276 685 303 707 288 703 b 238 665 268 672 251 665 b 214 678 226 665 217 669 b 138 722 207 697 160 722 b 118 683 124 722 118 701 z m 389 690 b 340 674 389 681 368 674 b 285 643 328 674 303 660 b 224 601 254 614 235 601 b 213 615 215 601 213 607 b 219 625 213 621 214 625 b 265 658 226 625 247 640 b 367 701 294 689 314 697 l 368 701 b 389 690 379 701 389 699 z m 126 556 b 122 567 124 556 122 560 b 151 640 122 583 133 640 b 156 631 154 640 156 638 b 126 556 156 614 139 556 z m 426 553 b 472 449 454 525 461 510 b 479 367 478 419 479 392 b 354 153 479 265 439 196 l 319 133 l 268 163 b 192 296 215 193 192 235 b 201 421 192 335 200 383 b 283 510 204 476 217 492 b 353 553 311 517 336 533 b 386 585 368 571 382 585 b 426 553 390 585 408 571 z m 144 521 l 144 515 b 132 469 144 504 140 486 l 113 432 l 110 461 b 108 479 108 467 108 474 b 131 536 108 511 119 536 b 144 521 135 536 140 532 z m 533 513 l 533 501 b 518 458 533 483 529 469 b 511 454 515 456 513 454 b 504 486 507 454 506 464 b 503 496 504 489 503 493 b 517 526 503 518 507 526 b 533 513 525 526 532 519 z m 138 236 b 128 206 138 224 133 208 l 125 206 b 118 231 121 206 118 215 b 128 260 118 247 122 260 b 138 236 133 260 138 249 z m 269 50 b 279 57 269 51 272 54 b 292 72 288 60 292 64 b 289 92 292 78 289 86 b 307 111 289 100 294 106 b 383 156 319 117 354 136 b 447 190 418 179 439 190 b 453 183 451 190 453 188 b 422 151 453 179 439 165 b 325 58 343 88 325 71 b 306 38 325 44 318 38 b 269 50 299 38 269 44 z m 133 133 b 99 106 133 113 118 106 b 89 113 93 106 89 107 b 122 172 89 128 113 172 b 133 133 132 172 133 138 z m 167 35 b 128 6 167 31 150 18 b 74 -32 106 -7 82 -24 b 54 -40 68 -37 60 -40 b 39 -26 46 -40 39 -36 b 121 46 39 -4 92 43 b 143 47 129 47 138 47 b 167 35 160 47 167 43 z "},"q":{"ha":640,"x_min":0,"x_max":0,"o":"m 208 669 b 132 653 179 669 158 664 b 67 588 86 632 67 615 b 74 554 67 578 69 568 b 88 496 82 529 88 511 b 75 451 88 481 83 468 b 29 296 54 408 29 324 b 42 258 29 282 35 265 b 89 132 76 222 89 190 b 103 46 89 99 94 61 b 240 -64 122 10 214 -64 b 315 -42 251 -64 286 -54 b 374 -22 342 -31 365 -22 l 376 -22 b 383 -83 381 -25 383 -53 b 431 -232 385 -186 392 -208 b 468 -247 449 -243 458 -247 b 490 -240 475 -247 482 -244 b 532 -144 518 -225 532 -196 b 546 -96 532 -124 539 -103 b 558 6 556 -87 558 -60 l 558 21 b 569 125 558 79 563 118 b 581 165 576 132 581 150 b 572 194 581 179 578 192 b 569 208 571 196 569 201 b 581 288 569 225 581 271 b 568 317 581 300 576 307 b 551 382 557 329 551 357 b 561 424 551 400 554 417 b 585 593 576 439 579 567 b 586 606 586 597 586 601 b 536 660 586 633 568 654 b 424 706 496 667 451 685 b 390 721 410 717 400 721 b 343 693 378 721 367 713 b 279 665 318 672 307 665 b 208 669 264 665 228 669 z m 331 640 b 240 618 331 632 271 618 b 218 621 231 618 225 621 b 189 588 207 621 201 611 b 149 532 178 567 160 542 b 128 488 138 522 128 501 b 107 424 128 474 118 444 b 92 383 97 406 92 389 l 92 381 b 94 376 93 379 94 379 b 68 339 94 364 78 339 b 58 358 61 339 58 349 b 68 383 58 368 61 379 b 78 408 74 386 78 397 b 99 468 78 419 88 446 b 114 513 108 486 114 504 l 114 517 b 138 550 114 522 124 536 b 165 586 158 569 165 578 b 147 613 165 594 157 613 b 122 600 142 613 135 608 b 96 589 110 592 101 589 b 89 596 92 589 89 590 b 132 629 89 617 106 624 b 172 644 151 633 169 639 b 233 651 175 649 201 651 b 331 640 278 651 324 647 z m 449 340 b 406 271 449 318 439 307 b 329 207 381 244 346 215 b 272 165 313 199 288 181 b 238 146 258 153 247 146 b 204 178 225 146 214 157 b 169 243 197 193 182 222 b 151 300 158 263 151 282 b 172 349 151 319 158 338 b 208 431 179 354 196 392 b 281 549 228 489 240 510 b 356 593 318 583 332 593 l 363 593 b 408 575 381 592 401 583 b 442 418 419 561 442 458 l 442 417 b 449 340 442 406 449 361 z m 468 365 b 481 388 468 376 478 388 b 494 347 486 388 492 374 l 494 335 b 454 236 494 292 476 244 b 418 222 443 232 428 222 b 414 226 415 222 414 224 b 446 286 414 235 424 253 b 474 344 463 311 474 333 b 468 365 474 350 468 357 z m 138 96 b 131 82 138 88 135 82 b 115 101 125 82 118 89 b 114 107 115 103 114 106 b 156 181 114 131 142 181 b 171 165 161 181 168 174 b 172 161 171 164 172 163 b 138 96 172 142 138 111 z m 479 157 b 490 149 488 157 490 154 l 490 143 b 396 117 488 126 447 117 b 321 121 372 117 343 121 b 267 108 299 121 282 117 b 228 93 250 100 233 93 b 217 106 221 93 217 99 b 229 122 217 114 221 122 b 265 142 236 122 251 131 b 324 161 281 154 306 161 b 344 150 336 161 344 157 b 349 147 344 147 346 147 b 372 156 353 147 363 150 b 406 169 390 165 399 169 b 419 161 411 169 415 168 b 443 154 422 157 432 154 b 479 157 453 154 471 157 z "},"r":{"ha":574,"x_min":0,"x_max":0,"o":"m 214 339 b 224 374 214 354 218 371 b 267 482 238 382 264 446 b 357 592 269 514 335 592 b 361 590 358 592 360 590 b 411 476 378 579 411 506 b 479 401 411 450 450 401 b 496 404 485 401 489 403 b 549 469 529 414 549 429 b 533 517 549 488 543 506 b 515 617 522 528 518 560 b 474 756 511 710 500 749 b 436 767 464 758 447 764 l 429 767 b 357 743 414 767 388 758 b 260 674 325 726 281 696 b 208 635 239 651 215 635 b 179 664 201 635 188 647 b 143 692 168 685 161 692 l 133 692 b 75 649 110 689 96 678 b 49 593 57 624 49 608 b 71 546 49 579 56 565 b 94 453 90 519 94 501 b 101 361 94 419 97 379 b 104 342 103 354 104 347 b 85 303 104 328 99 317 b 60 168 64 281 63 268 l 60 135 b 121 -68 60 4 81 -68 b 139 -64 126 -68 133 -67 b 215 46 164 -53 196 -7 b 224 89 221 61 224 72 b 217 143 224 103 221 119 b 197 281 204 213 197 257 b 214 339 197 313 214 306 z m 165 585 b 179 594 165 590 169 594 b 289 665 194 594 279 649 b 376 713 300 683 356 713 b 392 711 386 713 392 713 b 378 700 392 710 388 706 b 299 639 367 693 332 667 b 188 568 238 588 207 568 b 165 585 176 568 165 576 z m 104 626 b 97 632 100 626 97 628 b 132 664 97 643 119 664 b 140 656 138 664 140 661 b 104 626 140 639 115 626 z m 206 468 b 147 428 206 460 161 428 b 136 457 140 428 136 440 b 147 483 136 476 136 483 b 206 468 165 483 201 472 z "},"s":{"ha":575,"x_min":0,"x_max":0,"o":"m 183 446 b 199 503 183 457 189 474 b 313 600 228 586 246 600 b 376 582 354 600 369 594 b 447 518 386 564 419 518 b 496 586 474 518 496 546 b 492 618 496 596 494 607 b 397 686 478 667 453 686 l 389 686 b 328 696 361 686 335 690 b 179 732 315 706 208 732 l 178 732 b 136 722 169 732 151 726 b 51 643 83 707 51 672 b 65 614 51 632 56 622 b 76 576 72 608 76 593 b 64 525 76 558 72 539 b 58 494 60 518 58 507 b 74 439 58 474 64 450 b 96 388 82 429 92 406 b 276 194 111 307 174 242 b 326 122 311 179 326 158 b 289 67 326 83 318 67 b 244 74 278 67 263 68 b 179 117 203 85 190 93 b 89 192 167 144 111 192 b 79 178 83 192 79 186 b 65 151 79 171 74 158 b 50 113 57 144 50 128 b 82 33 50 81 69 33 b 154 -29 88 33 118 6 b 264 -99 208 -82 226 -93 b 290 -101 274 -100 282 -101 b 361 -79 313 -101 329 -96 b 428 -57 389 -65 413 -57 b 435 -58 431 -57 432 -58 b 447 -60 439 -60 443 -60 b 531 -19 476 -60 521 -40 b 538 40 535 -10 538 14 b 522 153 538 83 532 136 b 315 332 499 196 353 322 b 258 368 301 335 276 351 b 217 397 240 385 222 397 b 183 446 207 397 183 431 z m 238 699 b 158 671 238 683 225 679 b 104 658 140 668 115 663 b 92 654 97 656 93 654 b 90 656 90 654 90 656 b 99 667 90 657 93 660 b 214 710 121 690 181 710 b 238 699 228 710 238 707 z m 438 578 b 435 581 436 578 435 578 b 449 601 435 590 442 601 b 454 597 451 601 454 600 b 438 578 454 594 444 578 z m 151 561 b 153 556 151 560 153 557 b 129 526 153 543 140 526 b 122 550 126 526 124 536 l 122 553 b 138 575 122 567 131 575 b 151 561 143 575 147 571 z m 242 289 b 238 300 239 289 238 294 b 247 310 238 306 242 310 b 254 304 251 310 254 307 b 242 289 254 300 242 289 z m 347 275 b 356 269 351 275 356 274 b 332 260 356 264 344 260 b 299 279 315 260 299 264 b 315 300 299 289 306 300 b 326 283 321 300 326 292 b 335 272 326 276 329 272 b 347 275 338 272 344 275 z m 76 124 l 74 124 b 71 131 72 125 71 128 b 97 151 71 140 83 151 b 108 149 104 151 108 151 b 76 124 108 143 83 124 z m 482 122 b 454 107 482 115 474 111 b 392 63 438 103 410 83 b 304 15 367 35 328 15 b 286 28 293 15 286 18 b 300 43 286 36 293 43 b 342 72 308 43 326 56 b 381 103 357 89 375 103 b 413 125 386 103 400 113 b 456 149 426 140 443 149 b 482 122 469 149 482 135 z m 264 38 b 258 35 264 35 263 35 b 242 38 254 35 250 36 b 125 65 221 43 125 54 b 160 74 125 69 149 74 b 239 53 189 74 215 53 b 264 38 247 53 264 46 z "},"t":{"ha":504,"x_min":0,"x_max":0,"o":"m 203 1 b 247 -25 218 1 229 -6 b 282 -49 263 -42 272 -49 b 292 -46 285 -49 288 -47 b 322 -40 297 -43 310 -40 b 360 -43 335 -40 347 -43 b 483 32 411 -43 471 -8 b 486 44 485 36 486 40 b 358 113 486 82 432 111 b 244 174 299 114 272 128 b 217 264 226 204 217 235 b 233 326 217 286 222 308 b 253 390 246 347 253 368 b 238 451 253 410 247 429 b 210 558 218 493 210 531 b 238 610 210 586 219 606 b 247 611 240 610 243 611 b 303 601 261 611 285 608 b 385 583 326 593 364 585 b 397 582 390 583 393 582 b 443 608 418 582 429 589 b 458 638 454 622 458 629 b 446 668 458 644 454 653 b 400 732 436 686 415 715 b 317 763 375 758 365 763 b 243 794 265 763 261 764 b 213 861 232 813 218 843 b 158 919 201 896 178 919 b 126 897 151 919 139 910 b 85 783 100 868 85 828 b 65 728 85 761 78 740 b 38 635 50 713 38 668 b 54 599 38 618 43 610 b 101 460 86 568 101 524 b 79 299 101 415 94 363 b 67 221 71 263 67 242 b 74 171 67 206 69 190 b 132 35 90 99 100 90 b 169 -3 147 6 154 -3 b 203 1 178 -3 194 1 z m 139 871 b 129 879 133 871 129 874 b 150 900 129 892 140 900 b 158 892 156 900 158 897 b 139 871 158 881 147 871 z m 163 768 b 111 700 163 749 143 722 b 65 671 82 679 71 671 b 58 681 61 671 60 675 l 58 682 b 94 728 58 689 74 708 b 135 778 117 747 135 771 b 146 790 135 786 140 790 b 163 768 156 790 163 781 z m 257 728 b 317 746 257 735 272 739 l 322 746 b 371 722 342 746 371 732 b 317 713 371 715 344 713 b 257 728 290 713 257 715 z m 154 442 b 113 349 154 422 121 349 b 106 354 107 349 106 350 b 114 381 106 358 108 367 b 129 431 119 393 126 415 b 147 456 132 446 142 456 b 154 443 151 456 154 451 z m 171 185 b 189 164 181 185 189 172 b 188 161 189 163 188 163 b 169 151 185 156 178 151 b 146 135 161 151 151 144 b 132 122 142 128 136 122 b 129 124 131 122 131 122 b 128 126 128 124 128 125 b 171 185 128 140 158 185 z "},"u":{"ha":622,"x_min":0,"x_max":0,"o":"m 439 356 b 425 296 439 333 433 307 b 410 256 417 285 410 267 b 393 201 410 244 403 219 b 304 150 378 171 338 150 b 286 151 299 150 292 150 b 204 239 264 157 204 221 b 183 279 204 246 194 264 b 165 328 171 296 165 308 b 167 350 165 335 165 342 b 206 507 179 446 193 499 b 207 513 207 508 207 510 b 108 685 207 540 133 671 b 89 692 100 689 94 692 b 57 600 71 692 64 667 b 43 519 53 558 47 522 b 42 515 42 518 42 517 b 51 490 42 510 46 499 b 67 357 61 475 65 436 b 115 119 68 217 78 165 b 144 69 131 100 144 78 b 219 -6 144 44 196 -6 b 249 -15 232 -6 246 -10 b 286 -25 253 -22 268 -25 b 346 -14 306 -25 331 -21 b 367 -8 354 -10 360 -8 b 406 -24 376 -8 388 -12 b 464 -44 428 -36 447 -44 b 560 47 499 -44 526 -15 b 576 96 572 71 576 83 b 569 128 576 106 574 114 b 563 185 564 143 563 165 b 568 289 563 218 568 253 b 543 497 568 344 543 422 b 549 536 543 514 544 526 b 556 563 553 546 556 556 b 546 592 556 571 553 579 b 510 667 538 607 522 642 b 474 713 497 692 481 713 b 440 682 465 713 451 700 b 419 583 428 661 419 617 b 428 540 419 564 422 547 b 457 433 433 532 457 457 b 450 413 457 424 454 418 b 439 358 443 404 439 381 z m 453 594 b 442 611 444 594 442 601 b 457 653 442 622 446 638 b 474 669 465 664 469 669 b 483 649 478 669 483 657 b 453 594 483 629 465 594 z m 69 535 b 76 581 69 544 72 563 b 99 650 89 631 93 650 b 118 610 107 650 118 621 b 115 600 118 606 118 603 b 106 575 110 594 106 583 b 74 526 106 557 83 526 b 69 535 69 526 69 528 z m 106 443 b 96 403 106 425 101 406 l 94 403 b 86 436 89 403 86 415 b 96 476 86 458 90 476 b 106 443 101 476 106 461 z m 89 333 b 86 356 86 333 86 339 b 96 388 86 374 90 388 b 106 371 101 388 106 381 b 89 333 106 363 99 333 z m 479 364 b 488 331 483 364 486 351 b 489 317 488 325 489 321 b 465 258 489 293 482 278 b 440 219 451 242 440 225 b 431 211 440 214 436 211 b 421 224 424 211 421 215 b 449 292 421 238 431 263 b 474 340 463 314 474 335 b 472 342 474 342 472 342 b 472 347 471 343 472 346 b 479 364 472 350 475 364 z m 108 193 b 106 208 107 193 106 199 b 115 231 106 221 110 231 b 125 224 121 231 125 228 b 108 193 125 221 115 193 z "},"v":{"ha":733,"x_min":0,"x_max":0,"o":"m 653 760 b 667 743 653 751 667 751 b 657 726 667 739 664 733 b 615 661 649 717 629 686 b 575 614 601 636 582 614 b 561 628 565 614 561 619 b 575 654 561 636 565 646 b 626 744 593 669 626 731 b 625 747 626 746 626 747 l 624 746 b 599 713 617 743 606 728 b 554 660 592 697 572 674 b 515 590 529 640 521 624 b 485 514 513 567 497 531 b 461 469 472 496 461 476 b 442 417 461 463 453 439 b 417 347 431 394 419 364 b 379 269 414 322 389 269 b 349 311 378 269 364 289 b 272 399 333 335 299 374 b 225 464 246 424 225 453 b 218 490 225 475 222 486 b 210 569 214 494 210 531 b 188 668 210 628 206 644 b 69 738 164 699 96 738 l 64 738 b 18 639 50 732 18 663 b 39 607 18 633 28 619 b 86 524 50 596 71 557 b 140 438 101 490 126 451 b 185 274 172 408 185 364 b 274 44 185 161 197 128 l 342 -29 l 386 -12 b 474 103 440 8 467 43 b 524 342 489 239 494 258 b 561 388 529 357 546 378 b 625 444 578 397 606 422 b 706 699 674 501 706 621 b 674 772 706 742 696 772 b 653 760 664 772 653 768 z m 111 699 l 139 686 l 115 671 b 71 658 103 663 85 658 b 46 671 57 658 46 663 l 46 674 b 85 713 49 683 75 710 b 111 699 86 713 96 706 z m 483 410 b 449 360 467 378 453 360 b 447 363 447 360 447 361 b 458 396 447 368 451 379 b 506 464 472 429 496 464 l 507 464 l 508 463 b 483 410 508 458 497 436 z m 217 300 b 207 313 210 300 207 304 b 228 356 207 328 217 356 b 243 331 235 356 240 347 l 243 326 b 217 300 243 310 232 300 z m 225 275 b 215 260 225 267 221 260 b 206 275 210 260 206 267 b 215 289 206 283 210 289 b 225 275 221 289 225 283 z m 419 250 b 417 253 418 250 417 251 b 447 285 417 263 440 285 b 451 281 449 285 451 283 b 419 250 451 271 428 250 z "},"w":{"ha":958,"x_min":0,"x_max":0,"o":"m 67 685 b 43 593 50 667 43 632 b 93 415 43 532 61 461 b 110 315 107 396 110 379 b 108 267 110 301 108 286 l 108 211 b 139 86 108 146 114 133 b 207 19 163 42 179 19 b 304 54 229 19 258 32 b 419 179 392 97 408 117 b 436 226 424 201 432 224 b 440 226 438 228 439 226 b 517 103 460 226 497 167 b 561 65 519 94 539 78 b 628 49 586 53 601 49 b 667 50 639 49 651 49 b 775 147 742 57 749 65 b 804 300 797 218 796 201 b 840 415 811 372 815 388 b 868 463 856 433 868 456 b 897 533 868 469 881 501 b 925 626 917 571 925 597 l 925 635 b 883 686 924 678 922 679 b 858 688 874 688 865 688 b 817 674 843 688 831 683 b 783 654 801 663 788 654 b 732 601 775 654 767 644 b 715 536 725 592 717 563 b 686 439 714 508 700 467 b 667 381 672 411 667 399 b 675 326 667 368 669 353 l 689 261 l 651 231 b 604 201 628 211 614 201 b 575 221 596 201 588 208 b 553 321 556 239 553 251 b 565 433 553 365 558 415 b 571 460 569 443 571 451 b 550 518 571 474 565 489 b 490 608 536 547 507 588 b 453 640 471 632 463 640 b 439 636 449 640 444 639 b 374 517 422 628 374 538 l 375 517 l 375 515 b 360 496 375 513 368 504 b 342 407 351 486 344 450 b 314 303 339 354 331 326 b 275 269 300 282 285 269 b 268 279 271 269 268 272 l 268 282 b 269 304 269 289 269 297 b 249 367 269 332 263 353 b 194 439 239 376 214 410 b 163 517 169 476 163 488 b 165 560 163 528 164 542 l 171 629 l 135 667 b 90 703 114 688 94 703 b 67 685 86 703 75 694 z m 478 547 b 476 546 478 546 478 546 l 475 546 b 456 547 468 547 461 547 b 422 513 435 547 426 538 b 383 411 419 497 399 411 b 368 439 376 411 368 431 b 378 465 368 446 371 454 b 401 526 386 479 397 508 b 431 594 408 561 424 594 b 478 547 432 594 478 558 z m 92 519 b 81 543 86 519 81 526 b 93 581 81 568 85 581 b 114 558 103 581 114 569 b 92 519 114 540 100 519 z m 781 583 b 807 568 793 583 804 578 l 807 565 b 775 556 807 558 797 556 b 746 561 754 556 746 557 b 781 583 746 576 768 583 z m 769 483 b 726 429 769 468 736 429 b 725 431 725 429 725 431 b 722 436 724 432 722 433 b 726 449 722 440 724 444 b 739 493 736 464 735 474 b 749 501 739 499 743 501 b 769 483 758 501 769 493 z m 694 388 b 685 394 689 388 685 390 b 707 408 685 401 699 408 b 717 401 713 408 717 406 b 694 388 717 393 704 388 z m 147 332 b 136 297 146 313 142 297 l 135 297 b 128 313 131 299 128 306 l 128 317 b 131 351 129 326 131 342 b 140 368 131 361 135 368 b 147 342 144 368 147 357 z m 742 301 l 740 300 b 711 333 733 300 711 332 b 721 339 711 336 714 339 b 731 335 726 339 731 338 b 742 301 731 332 742 307 z m 376 269 b 258 201 376 260 275 201 b 247 210 250 201 247 204 b 288 250 247 219 263 238 b 339 289 310 261 332 278 b 358 308 347 301 353 308 b 376 269 365 308 376 276 z m 729 233 b 604 163 725 214 636 164 b 576 147 592 163 579 156 b 561 131 572 136 567 131 b 543 161 553 131 543 142 b 565 190 543 185 544 190 b 583 189 569 190 576 189 l 594 189 b 644 208 617 189 629 194 b 683 231 657 221 674 231 b 706 240 692 231 703 235 b 719 250 710 247 715 250 b 729 238 725 250 729 244 z "},"x":{"ha":601,"x_min":0,"x_max":0,"o":"m 32 700 b 43 667 32 692 35 682 b 117 556 72 611 79 621 b 189 449 135 525 168 476 b 222 378 215 414 222 399 b 164 272 222 331 192 281 b 51 94 138 265 60 143 b 39 31 50 79 39 50 b 103 -18 39 7 81 -18 b 185 54 128 -18 185 33 b 238 125 185 63 208 94 b 301 174 267 157 285 174 b 375 75 324 174 342 143 b 436 -25 400 24 426 -21 b 449 -28 439 -26 443 -28 b 543 18 479 -28 535 -1 b 544 22 543 19 544 21 b 514 104 544 36 532 68 b 478 206 494 143 478 189 b 421 321 478 250 460 286 l 386 353 l 414 408 b 483 506 429 439 460 482 b 533 571 506 529 529 558 b 558 619 538 583 549 606 b 574 653 568 633 574 644 b 539 675 574 667 561 675 b 458 656 519 675 492 669 b 351 553 388 626 385 624 b 297 490 332 510 317 490 b 250 515 285 490 269 499 b 214 596 228 535 219 551 b 161 703 204 664 189 694 b 114 728 150 707 129 718 b 72 744 97 739 85 744 b 32 700 53 744 32 722 z m 57 701 b 49 711 51 701 49 704 b 63 725 49 718 54 725 b 78 717 71 725 78 721 b 57 701 78 713 67 701 z m 247 449 b 289 471 247 461 263 471 b 396 540 310 471 382 519 b 404 547 399 544 401 547 b 407 546 406 547 406 547 l 407 544 b 381 497 407 539 396 518 b 306 447 354 460 342 453 b 263 429 282 444 263 436 b 261 426 263 426 263 426 b 247 449 257 426 247 440 z m 253 383 b 246 393 249 383 246 388 b 257 411 246 397 253 411 b 263 396 260 411 263 400 b 253 383 263 388 258 383 z m 132 206 l 131 207 l 131 208 b 164 240 131 214 144 228 b 233 344 201 265 233 313 b 254 374 233 360 240 374 b 264 365 260 374 264 371 b 247 308 264 360 256 333 b 157 192 236 274 213 246 b 79 129 119 156 86 129 b 78 131 78 129 78 131 l 78 132 b 132 206 78 146 132 192 z m 424 154 b 390 119 424 142 397 119 b 381 142 385 119 381 128 b 399 176 381 165 388 176 b 424 154 407 176 424 167 z "}}}
